G04*
G04 #@! TF.GenerationSoftware,Altium Limited,Altium Designer,22.4.2 (48)*
G04*
G04 Layer_Color=8388736*
%FSLAX25Y25*%
%MOIN*%
G70*
G04*
G04 #@! TF.SameCoordinates,BE1E711C-C8E7-489F-BFDC-0012772F392D*
G04*
G04*
G04 #@! TF.FilePolarity,Negative*
G04*
G01*
G75*
%ADD13R,0.06127X0.06213*%
%ADD14R,0.04724X0.01181*%
%ADD15R,0.01181X0.04724*%
%ADD16R,0.03197X0.03666*%
%ADD17R,0.03543X0.03150*%
%ADD18R,0.02362X0.04724*%
%ADD19R,0.03197X0.02593*%
%ADD20R,0.04749X0.03765*%
%ADD21R,0.03666X0.03197*%
%ADD22R,0.03765X0.04749*%
%ADD23R,0.02977X0.04355*%
%ADD26R,0.04724X0.02756*%
%ADD27R,0.03150X0.03937*%
%ADD28R,0.04724X0.03937*%
%ADD29R,0.11024X0.03937*%
%ADD30C,0.04507*%
%ADD31R,0.04724X0.01181*%
%ADD32R,0.01181X0.04724*%
%ADD34R,0.03937X0.02362*%
%ADD35R,0.03937X0.01772*%
%ADD36R,0.02593X0.03197*%
%ADD38R,0.04724X0.02362*%
%ADD40R,0.11024X0.06299*%
%ADD41R,0.22453X0.04737*%
%ADD42R,0.12611X0.07099*%
%ADD43R,0.06312X0.05328*%
%ADD44R,0.05131X0.05524*%
%ADD45R,0.05524X0.05131*%
%ADD46R,0.06706X0.06706*%
%ADD47C,0.06706*%
%ADD48R,0.06706X0.06706*%
%ADD49C,0.08300*%
%ADD50C,0.08200*%
%ADD51O,0.06800X0.13005*%
%ADD52O,0.06800X0.09068*%
%ADD53O,0.13005X0.06800*%
%ADD54C,0.03556*%
G36*
X126587Y428370D02*
X127177Y427779D01*
X132689D01*
Y422661D01*
X125209D01*
Y429945D01*
X126587D01*
Y428370D01*
D02*
G37*
D13*
X311500Y354402D02*
D03*
Y347598D02*
D03*
X357500Y355500D02*
D03*
Y348696D02*
D03*
X164500Y329402D02*
D03*
Y322598D02*
D03*
X166000Y411402D02*
D03*
Y404598D02*
D03*
D14*
X310362Y442264D02*
D03*
Y440295D02*
D03*
Y438327D02*
D03*
Y436358D02*
D03*
Y434390D02*
D03*
Y432421D02*
D03*
Y430453D02*
D03*
Y428484D02*
D03*
Y426516D02*
D03*
Y424547D02*
D03*
Y422579D02*
D03*
Y420610D02*
D03*
Y418642D02*
D03*
Y416673D02*
D03*
Y414705D02*
D03*
Y412736D02*
D03*
X355638D02*
D03*
Y414705D02*
D03*
Y416673D02*
D03*
Y418642D02*
D03*
Y420610D02*
D03*
Y422579D02*
D03*
Y424547D02*
D03*
Y426516D02*
D03*
Y428484D02*
D03*
Y430453D02*
D03*
Y432421D02*
D03*
Y434390D02*
D03*
Y436358D02*
D03*
Y438327D02*
D03*
Y440295D02*
D03*
Y442264D02*
D03*
D15*
X318236Y404862D02*
D03*
X320205D02*
D03*
X322173D02*
D03*
X324142D02*
D03*
X326110D02*
D03*
X328079D02*
D03*
X330047D02*
D03*
X332016D02*
D03*
X333984D02*
D03*
X335953D02*
D03*
X337921D02*
D03*
X339890D02*
D03*
X341858D02*
D03*
X343827D02*
D03*
X345795D02*
D03*
X347764D02*
D03*
Y450138D02*
D03*
X345795D02*
D03*
X343827D02*
D03*
X341858D02*
D03*
X339890D02*
D03*
X337921D02*
D03*
X335953D02*
D03*
X333984D02*
D03*
X332016D02*
D03*
X330047D02*
D03*
X328079D02*
D03*
X326110D02*
D03*
X324142D02*
D03*
X322173D02*
D03*
X320205D02*
D03*
X318236D02*
D03*
D16*
X357000Y394128D02*
D03*
Y389872D02*
D03*
D17*
X343500Y354453D02*
D03*
Y348547D02*
D03*
X259500Y325500D02*
D03*
Y331406D02*
D03*
D18*
X330740Y343472D02*
D03*
X323260D02*
D03*
Y352528D02*
D03*
X327000D02*
D03*
X330740D02*
D03*
D19*
X368500Y318836D02*
D03*
Y324164D02*
D03*
X360000D02*
D03*
Y318836D02*
D03*
X346000Y394164D02*
D03*
Y388836D02*
D03*
X335000Y393828D02*
D03*
Y388500D02*
D03*
X323500Y393828D02*
D03*
Y388500D02*
D03*
X262500Y455672D02*
D03*
Y461000D02*
D03*
X163500Y306836D02*
D03*
Y312164D02*
D03*
X234500Y372836D02*
D03*
Y378164D02*
D03*
X242000Y360172D02*
D03*
Y365500D02*
D03*
X259500Y345164D02*
D03*
Y339836D02*
D03*
D20*
X299500Y473035D02*
D03*
Y464965D02*
D03*
X239500Y385465D02*
D03*
Y393535D02*
D03*
Y412535D02*
D03*
Y404465D02*
D03*
X262500Y442035D02*
D03*
Y433965D02*
D03*
D21*
X329628Y333500D02*
D03*
X325372D02*
D03*
X201628Y414000D02*
D03*
X197372D02*
D03*
X186500D02*
D03*
X182244D02*
D03*
X199872Y385000D02*
D03*
X204128D02*
D03*
D22*
X353465Y464500D02*
D03*
X361535D02*
D03*
X303465Y390500D02*
D03*
X311535D02*
D03*
X214965Y377500D02*
D03*
X223035D02*
D03*
X171035Y345500D02*
D03*
X162965D02*
D03*
X213965Y363000D02*
D03*
X222035D02*
D03*
D23*
X223142Y414500D02*
D03*
X215858D02*
D03*
X215358Y388500D02*
D03*
X222642D02*
D03*
D26*
X188398Y440575D02*
D03*
Y444906D02*
D03*
Y449236D02*
D03*
Y453567D02*
D03*
Y457898D02*
D03*
Y462228D02*
D03*
Y466559D02*
D03*
Y470890D02*
D03*
Y474630D02*
D03*
D27*
X147059Y478370D02*
D03*
D28*
X188398Y434472D02*
D03*
X171469Y478370D02*
D03*
D29*
X130720D02*
D03*
D30*
X129988Y425165D02*
D03*
D31*
X249776Y463343D02*
D03*
Y461374D02*
D03*
Y459406D02*
D03*
Y457437D02*
D03*
Y455469D02*
D03*
Y453500D02*
D03*
Y451532D02*
D03*
Y449563D02*
D03*
Y447595D02*
D03*
Y445626D02*
D03*
Y443658D02*
D03*
Y441689D02*
D03*
Y439721D02*
D03*
Y437752D02*
D03*
Y435784D02*
D03*
Y433815D02*
D03*
X204500D02*
D03*
Y435784D02*
D03*
Y437752D02*
D03*
Y439721D02*
D03*
Y441689D02*
D03*
Y443658D02*
D03*
Y445626D02*
D03*
Y447595D02*
D03*
Y449563D02*
D03*
Y451532D02*
D03*
Y453500D02*
D03*
Y455469D02*
D03*
Y457437D02*
D03*
Y459406D02*
D03*
Y461374D02*
D03*
Y463343D02*
D03*
D32*
X241902Y425941D02*
D03*
X239933D02*
D03*
X237965D02*
D03*
X235996D02*
D03*
X234028D02*
D03*
X232059D02*
D03*
X230091D02*
D03*
X228122D02*
D03*
X226154D02*
D03*
X224185D02*
D03*
X222217D02*
D03*
X220248D02*
D03*
X218280D02*
D03*
X216311D02*
D03*
X214343D02*
D03*
X212374D02*
D03*
Y471217D02*
D03*
X214343D02*
D03*
X216311D02*
D03*
X218280D02*
D03*
X220248D02*
D03*
X222217D02*
D03*
X224185D02*
D03*
X226154D02*
D03*
X228122D02*
D03*
X230091D02*
D03*
X232059D02*
D03*
X234028D02*
D03*
X235996D02*
D03*
X237965D02*
D03*
X239933D02*
D03*
X241902D02*
D03*
D34*
X149661Y370784D02*
D03*
Y356217D02*
D03*
X132339Y370784D02*
D03*
Y356217D02*
D03*
Y389717D02*
D03*
Y404284D02*
D03*
X149661Y389717D02*
D03*
Y404284D02*
D03*
D35*
X141000Y373441D02*
D03*
Y353559D02*
D03*
Y387059D02*
D03*
Y406941D02*
D03*
D36*
X231336Y482000D02*
D03*
X236664D02*
D03*
X137836Y379500D02*
D03*
X143164D02*
D03*
X143328Y415000D02*
D03*
X138000D02*
D03*
X200836Y372000D02*
D03*
X206164D02*
D03*
X190664Y345500D02*
D03*
X185336D02*
D03*
X219164Y482500D02*
D03*
X213836D02*
D03*
X195336Y398000D02*
D03*
X200664D02*
D03*
X182836D02*
D03*
X188164D02*
D03*
D38*
X181000Y330740D02*
D03*
Y327000D02*
D03*
Y323260D02*
D03*
X190055D02*
D03*
Y330740D02*
D03*
D40*
X169535Y370500D02*
D03*
X186465D02*
D03*
D41*
X131642Y325063D02*
D03*
Y332937D02*
D03*
D42*
X140500Y342386D02*
D03*
Y315614D02*
D03*
D43*
X223831Y399350D02*
D03*
X215169D02*
D03*
Y405650D02*
D03*
X223831D02*
D03*
D44*
X143634Y305000D02*
D03*
X135366D02*
D03*
D45*
X199000Y484634D02*
D03*
Y476366D02*
D03*
D46*
X296500Y346000D02*
D03*
X370500Y378000D02*
D03*
X260000Y362500D02*
D03*
D47*
X296500Y356000D02*
D03*
X314000Y321500D02*
D03*
X324000D02*
D03*
X334000D02*
D03*
X370500Y338000D02*
D03*
Y348000D02*
D03*
Y358000D02*
D03*
Y368000D02*
D03*
X304500Y373500D02*
D03*
X314500D02*
D03*
X324500D02*
D03*
X334500D02*
D03*
X344500D02*
D03*
X369500Y478500D02*
D03*
X359500D02*
D03*
X349500D02*
D03*
X339500D02*
D03*
X329500D02*
D03*
X217500Y313500D02*
D03*
X227500D02*
D03*
X237500D02*
D03*
X247500D02*
D03*
X241500Y341000D02*
D03*
X231500D02*
D03*
X221500D02*
D03*
X260000Y412500D02*
D03*
Y402500D02*
D03*
Y392500D02*
D03*
Y382500D02*
D03*
Y372500D02*
D03*
D48*
X344000Y321500D02*
D03*
X354500Y373500D02*
D03*
X319500Y478500D02*
D03*
X207500Y313500D02*
D03*
X211500Y341000D02*
D03*
D49*
X369000Y415000D02*
D03*
Y425000D02*
D03*
X299000Y445000D02*
D03*
Y435000D02*
D03*
X369000Y445000D02*
D03*
X299000Y425000D02*
D03*
X369000Y435000D02*
D03*
X299000Y415000D02*
D03*
D50*
X369000D02*
D03*
Y445000D02*
D03*
Y435000D02*
D03*
Y425000D02*
D03*
X299000Y445000D02*
D03*
Y435000D02*
D03*
Y425000D02*
D03*
Y415000D02*
D03*
D51*
X298500Y311500D02*
D03*
D52*
X333000Y309000D02*
D03*
X370000Y308500D02*
D03*
D53*
X270000Y311500D02*
D03*
X268500Y477000D02*
D03*
D54*
X312600Y395700D02*
D03*
X314900Y421300D02*
D03*
X300000Y399300D02*
D03*
Y397600D02*
D03*
X291300Y398400D02*
D03*
X320205Y413100D02*
D03*
X321300Y424100D02*
D03*
X323400Y445700D02*
D03*
X350600Y448800D02*
D03*
X331600Y400300D02*
D03*
X298900Y388872D02*
D03*
X360900Y381400D02*
D03*
X351100Y415700D02*
D03*
X335700Y463300D02*
D03*
X339300Y418100D02*
D03*
X360100Y374060D02*
D03*
X330300Y462000D02*
D03*
X338600Y409700D02*
D03*
X338100Y398000D02*
D03*
X296300Y393879D02*
D03*
X333000Y417700D02*
D03*
X319700Y445500D02*
D03*
X341200Y385000D02*
D03*
X328858Y435000D02*
D03*
X343335Y424800D02*
D03*
X361166Y427878D02*
D03*
X362885Y433115D02*
D03*
X232059Y419200D02*
D03*
X200836Y367200D02*
D03*
X207800Y473800D02*
D03*
X250300Y413200D02*
D03*
X194368Y466559D02*
D03*
X196500Y454528D02*
D03*
X254400Y438300D02*
D03*
X191800Y398000D02*
D03*
X197821Y442700D02*
D03*
X233200Y404400D02*
D03*
X198700Y329000D02*
D03*
X197000Y450800D02*
D03*
X163000Y430500D02*
D03*
X129000Y425500D02*
D03*
X212500Y450000D02*
D03*
Y445000D02*
D03*
Y440500D02*
D03*
X182000Y356500D02*
D03*
X222000Y330000D02*
D03*
X274500Y401000D02*
D03*
X237000Y445000D02*
D03*
X160000Y382000D02*
D03*
X155000Y315000D02*
D03*
X181500Y304500D02*
D03*
D03*
M02*
