G04*
G04 #@! TF.GenerationSoftware,Altium Limited,Altium Designer,22.4.2 (48)*
G04*
G04 Layer_Physical_Order=1*
G04 Layer_Color=255*
%FSLAX25Y25*%
%MOIN*%
G70*
G04*
G04 #@! TF.SameCoordinates,BE1E711C-C8E7-489F-BFDC-0012772F392D*
G04*
G04*
G04 #@! TF.FilePolarity,Positive*
G04*
G01*
G75*
%ADD12C,0.01000*%
%ADD13R,0.06127X0.06213*%
%ADD14R,0.04724X0.01181*%
%ADD15R,0.01181X0.04724*%
%ADD16R,0.03197X0.03666*%
%ADD17R,0.03543X0.03150*%
%ADD18R,0.02362X0.04724*%
%ADD19R,0.03197X0.02593*%
%ADD20R,0.04749X0.03765*%
%ADD21R,0.03666X0.03197*%
%ADD22R,0.03765X0.04749*%
%ADD23R,0.02977X0.04355*%
%ADD24R,0.21654X0.03937*%
%ADD25R,0.11811X0.06299*%
%ADD26R,0.04724X0.02756*%
%ADD27R,0.03150X0.03937*%
%ADD28R,0.04724X0.03937*%
%ADD29R,0.11024X0.03937*%
%ADD30C,0.04507*%
%ADD31R,0.04724X0.01181*%
%ADD32R,0.01181X0.04724*%
%ADD33R,0.05512X0.04528*%
%ADD34R,0.03937X0.02362*%
%ADD35R,0.03937X0.01772*%
%ADD36R,0.02593X0.03197*%
%ADD37R,0.04331X0.04724*%
%ADD38R,0.04724X0.02362*%
%ADD39R,0.04724X0.04331*%
%ADD40R,0.11024X0.06299*%
%ADD55C,0.00600*%
%ADD56R,0.05906X0.05906*%
%ADD57C,0.05906*%
%ADD58R,0.05906X0.05906*%
%ADD59C,0.07500*%
%ADD60C,0.07400*%
%ADD61O,0.06000X0.12205*%
%ADD62O,0.06000X0.08268*%
%ADD63O,0.12205X0.06000*%
%ADD64C,0.02756*%
G36*
X358866Y461338D02*
X360223D01*
Y446044D01*
X357821Y443642D01*
X353905D01*
X353698Y444142D01*
X354393Y444836D01*
X354677Y445262D01*
X354777Y445765D01*
Y461126D01*
X356347D01*
Y464000D01*
X353465D01*
X350582D01*
Y462813D01*
X341974D01*
X338362Y466425D01*
X338553Y466887D01*
X350582D01*
Y465000D01*
X353465D01*
X356347D01*
Y466887D01*
X358866D01*
Y461338D01*
D02*
G37*
G36*
X377187Y461356D02*
X376687Y461089D01*
X376502Y461213D01*
X376000Y461313D01*
X375498Y461213D01*
X375072Y460928D01*
X374713Y461244D01*
X368528Y467428D01*
X361308Y474648D01*
X361391Y475273D01*
X361796Y475507D01*
X362493Y476203D01*
X362985Y477056D01*
X363240Y478008D01*
Y478992D01*
X362985Y479944D01*
X362493Y480796D01*
X361796Y481493D01*
X360944Y481985D01*
X359992Y482240D01*
X359008D01*
X358056Y481985D01*
X357204Y481493D01*
X356507Y480796D01*
X356015Y479944D01*
X355760Y478992D01*
Y478008D01*
X356015Y477056D01*
X356507Y476203D01*
X356798Y475913D01*
X356591Y475413D01*
X352409D01*
X352202Y475913D01*
X352493Y476203D01*
X352985Y477056D01*
X353240Y478008D01*
Y478992D01*
X352985Y479944D01*
X352493Y480796D01*
X351797Y481493D01*
X350944Y481985D01*
X349992Y482240D01*
X349008D01*
X348056Y481985D01*
X347203Y481493D01*
X346507Y480796D01*
X346015Y479944D01*
X345760Y478992D01*
Y478008D01*
X346015Y477056D01*
X346507Y476203D01*
X346798Y475913D01*
X346591Y475413D01*
X342409D01*
X342202Y475913D01*
X342493Y476203D01*
X342985Y477056D01*
X343240Y478008D01*
Y478992D01*
X342985Y479944D01*
X342493Y480796D01*
X341796Y481493D01*
X340944Y481985D01*
X339992Y482240D01*
X339008D01*
X338056Y481985D01*
X337204Y481493D01*
X336507Y480796D01*
X336015Y479944D01*
X335760Y478992D01*
Y478008D01*
X336015Y477056D01*
X336507Y476203D01*
X336798Y475913D01*
X336591Y475413D01*
X334444D01*
X333073Y476783D01*
X333183Y476974D01*
X333453Y477980D01*
Y478000D01*
X330000D01*
Y474547D01*
X330020D01*
X331026Y474817D01*
X331217Y474927D01*
X332972Y473172D01*
X333398Y472887D01*
X333900Y472787D01*
X359456D01*
X362486Y469758D01*
X362167Y469369D01*
X362102Y469413D01*
X361600Y469513D01*
X330344D01*
X323240Y476616D01*
Y481487D01*
X324656D01*
X325927Y480217D01*
X325817Y480026D01*
X325547Y479020D01*
Y479000D01*
X329000D01*
Y482453D01*
X328980D01*
X327974Y482183D01*
X327783Y482073D01*
X326128Y483728D01*
X325702Y484013D01*
X325200Y484113D01*
X316000D01*
X315498Y484013D01*
X315072Y483728D01*
X312772Y481428D01*
X312487Y481002D01*
X312387Y480500D01*
Y476008D01*
X303336Y466957D01*
X302874Y467149D01*
Y467847D01*
X300000D01*
Y462082D01*
X302874D01*
Y463652D01*
X303200D01*
X303702Y463752D01*
X304128Y464036D01*
X314628Y474536D01*
X314913Y474962D01*
X315013Y475465D01*
Y479874D01*
X315272Y480080D01*
X315760Y479864D01*
Y474760D01*
X318187D01*
Y465408D01*
X317308Y464528D01*
X317023Y464102D01*
X316924Y463600D01*
Y453287D01*
X316858D01*
Y451513D01*
X297044D01*
X293513Y455044D01*
Y469956D01*
X295279Y471723D01*
X296338D01*
Y470366D01*
X302662D01*
Y475705D01*
X296338D01*
Y474348D01*
X294735D01*
X294233Y474248D01*
X293807Y473964D01*
X291272Y471428D01*
X290987Y471002D01*
X290887Y470500D01*
Y454500D01*
X290987Y453998D01*
X291272Y453572D01*
X295572Y449272D01*
X295937Y449028D01*
X295951Y449007D01*
X296024Y448726D01*
X296050Y448467D01*
X295369Y447786D01*
X294772Y446751D01*
X294463Y445597D01*
Y444403D01*
X294772Y443249D01*
X295369Y442214D01*
X296214Y441369D01*
X297249Y440772D01*
X298403Y440463D01*
X299597D01*
X300751Y440772D01*
X301786Y441369D01*
X302631Y442214D01*
X303228Y443249D01*
X303537Y444403D01*
Y445597D01*
X303228Y446751D01*
X302631Y447786D01*
X302029Y448387D01*
X302237Y448887D01*
X315413D01*
X315766Y448387D01*
X315722Y448165D01*
Y445842D01*
X313848Y443968D01*
X313512Y443642D01*
Y443642D01*
X313512Y443642D01*
X307213D01*
Y443576D01*
X305864D01*
X305362Y443476D01*
X304936Y443192D01*
X303172Y441428D01*
X302887Y441002D01*
X302787Y440500D01*
Y438337D01*
X302287Y438130D01*
X301786Y438631D01*
X300751Y439228D01*
X299597Y439537D01*
X298403D01*
X297249Y439228D01*
X296214Y438631D01*
X295369Y437786D01*
X294772Y436751D01*
X294463Y435597D01*
Y434403D01*
X294772Y433249D01*
X295369Y432214D01*
X296214Y431369D01*
X297249Y430772D01*
X298403Y430463D01*
X299597D01*
X300751Y430772D01*
X301786Y431369D01*
X302287Y431871D01*
X302787Y431663D01*
Y428337D01*
X302287Y428129D01*
X301786Y428631D01*
X300751Y429228D01*
X299597Y429537D01*
X298403D01*
X297249Y429228D01*
X296214Y428631D01*
X295369Y427786D01*
X294772Y426751D01*
X294463Y425597D01*
Y424403D01*
X294772Y423249D01*
X295369Y422214D01*
X296214Y421369D01*
X297249Y420772D01*
X298403Y420463D01*
X299597D01*
X300751Y420772D01*
X301786Y421369D01*
X302287Y421871D01*
X302787Y421663D01*
Y418337D01*
X302287Y418129D01*
X301786Y418631D01*
X300751Y419228D01*
X299597Y419537D01*
X298403D01*
X297249Y419228D01*
X296214Y418631D01*
X295369Y417786D01*
X294772Y416751D01*
X294463Y415597D01*
Y414403D01*
X294772Y413249D01*
X295369Y412214D01*
X296214Y411369D01*
X297249Y410772D01*
X298403Y410463D01*
X299597D01*
X300751Y410772D01*
X301786Y411369D01*
X302287Y411870D01*
X302787Y411663D01*
Y410544D01*
X300556Y408313D01*
X293100D01*
X292598Y408213D01*
X292172Y407928D01*
X287813Y403569D01*
X287313Y403768D01*
Y485687D01*
X377187D01*
Y461356D01*
D02*
G37*
G36*
X214187Y435128D02*
X207862D01*
Y435284D01*
X204500D01*
Y436284D01*
X207862D01*
Y437374D01*
X207650D01*
Y438343D01*
Y440311D01*
Y442280D01*
Y444248D01*
Y446217D01*
Y448185D01*
Y450154D01*
Y452122D01*
Y454091D01*
Y456059D01*
Y458028D01*
Y458093D01*
X214187D01*
Y435128D01*
D02*
G37*
G36*
X375926Y454859D02*
X376428Y454759D01*
X376687Y454811D01*
X377187Y454475D01*
Y405976D01*
X376687Y405769D01*
X374328Y408128D01*
X373902Y408413D01*
X373400Y408513D01*
X355644D01*
X353260Y410896D01*
X353451Y411358D01*
X358787D01*
Y423972D01*
X359287Y424182D01*
X359560Y424000D01*
X360062Y423900D01*
X362270D01*
X362773Y424000D01*
X363199Y424284D01*
X364001Y425086D01*
X364463Y424895D01*
Y424403D01*
X364772Y423249D01*
X365369Y422214D01*
X366214Y421369D01*
X367249Y420772D01*
X368403Y420463D01*
X369597D01*
X370751Y420772D01*
X371786Y421369D01*
X372287Y421871D01*
X372787Y421663D01*
Y420644D01*
X371300Y419157D01*
X370833Y419426D01*
X369625Y419750D01*
X369500D01*
Y415500D01*
X373750D01*
Y415625D01*
X373426Y416833D01*
X373157Y417300D01*
X375028Y419172D01*
X375313Y419598D01*
X375413Y420100D01*
Y454601D01*
X375913Y454868D01*
X375926Y454859D01*
D02*
G37*
G36*
X240589Y467441D02*
Y429303D01*
X240433D01*
Y425941D01*
Y422579D01*
X240589D01*
Y415205D01*
X236338D01*
Y409866D01*
X242662D01*
Y411495D01*
X242830Y411607D01*
X243114Y412033D01*
X243214Y412535D01*
Y422791D01*
X243280D01*
Y429091D01*
X243214D01*
Y463619D01*
X243676Y463810D01*
X245072Y462414D01*
X245498Y462130D01*
X246000Y462030D01*
X246413D01*
Y461874D01*
X249776D01*
X253138D01*
Y462407D01*
X253149Y462414D01*
X254101Y463366D01*
X259430D01*
X259901Y463297D01*
Y461500D01*
X262500D01*
Y461000D01*
X263000D01*
Y458703D01*
X265099D01*
Y458703D01*
X265587Y458676D01*
Y444918D01*
X263000D01*
Y442035D01*
Y439153D01*
X265587D01*
Y437008D01*
X265213Y436634D01*
X259338D01*
Y431295D01*
X261187D01*
Y418440D01*
X261287Y417938D01*
X261572Y417512D01*
X264428Y414656D01*
Y413180D01*
X263928Y413114D01*
X263683Y414026D01*
X263163Y414927D01*
X262427Y415663D01*
X261526Y416183D01*
X260520Y416453D01*
X260500D01*
Y412500D01*
X260000D01*
Y412000D01*
X256047D01*
Y411980D01*
X256317Y410974D01*
X256837Y410073D01*
X257573Y409337D01*
X258474Y408817D01*
X259236Y408613D01*
X259170Y408113D01*
X255300D01*
X254798Y408013D01*
X254372Y407728D01*
X243070Y396426D01*
X242662Y396205D01*
Y396205D01*
X242662Y396205D01*
X236338D01*
Y392271D01*
X235876Y392080D01*
X230613Y397344D01*
Y403682D01*
X231113Y403781D01*
X231364Y403173D01*
X231973Y402564D01*
X232769Y402235D01*
X233631D01*
X234427Y402564D01*
X235036Y403173D01*
X235365Y403969D01*
Y404831D01*
X235036Y405627D01*
X234513Y406150D01*
Y415155D01*
X238893Y419535D01*
X239177Y419961D01*
X239277Y420463D01*
Y422579D01*
X239433D01*
Y425941D01*
Y429303D01*
X238342D01*
Y429091D01*
X216650D01*
X216600Y429591D01*
X216659Y429602D01*
X217085Y429887D01*
X234956Y447758D01*
X235240Y448183D01*
X235340Y448686D01*
Y468067D01*
X240589D01*
Y467441D01*
D02*
G37*
G36*
X333835Y428575D02*
X333643Y428113D01*
X319953D01*
X319451Y428013D01*
X319025Y427728D01*
X315400Y424103D01*
Y421800D01*
X317267D01*
X317133Y422123D01*
X318673Y423663D01*
X319208Y423492D01*
X319464Y422873D01*
X320073Y422264D01*
X320869Y421935D01*
X321609D01*
X334622Y408922D01*
Y408012D01*
X321795D01*
Y408224D01*
X321517D01*
Y411070D01*
X321552Y411084D01*
X322221Y411753D01*
X322572Y412600D01*
X317838D01*
X318189Y411753D01*
X318858Y411084D01*
X318892Y411070D01*
Y408397D01*
X318708Y408224D01*
X318614D01*
Y408224D01*
X318166Y408012D01*
X316858D01*
X316824Y408498D01*
Y417088D01*
X316724Y417591D01*
X316440Y418016D01*
X315805Y418651D01*
X315903Y419141D01*
X316247Y419284D01*
X316916Y419953D01*
X317267Y420800D01*
X314900D01*
Y421300D01*
X314400D01*
Y423667D01*
X314012Y423506D01*
X313512Y423840D01*
Y429140D01*
X333269D01*
X333835Y428575D01*
D02*
G37*
G36*
X289072Y394772D02*
X289498Y394487D01*
X290000Y394387D01*
X293673D01*
X294016Y394329D01*
X294135Y393904D01*
Y393448D01*
X294464Y392652D01*
X295073Y392043D01*
X295869Y391713D01*
X296731D01*
X297527Y392043D01*
X298136Y392652D01*
X298357Y393187D01*
X300582D01*
Y390905D01*
X300082Y390726D01*
X299331Y391037D01*
X298469D01*
X297673Y390708D01*
X297064Y390099D01*
X296735Y389303D01*
Y388441D01*
X297064Y387645D01*
X297587Y387122D01*
Y371900D01*
X297687Y371398D01*
X297972Y370972D01*
X303072Y365872D01*
X303498Y365587D01*
X304000Y365487D01*
X320556D01*
X328069Y357975D01*
X327878Y357513D01*
X323260D01*
X322758Y357413D01*
X322332Y357128D01*
X322047Y356702D01*
X321947Y356200D01*
Y355983D01*
X321447Y355702D01*
X321386Y355714D01*
X315351D01*
Y358296D01*
X307649D01*
Y355714D01*
X305344D01*
X304130Y356928D01*
X303704Y357213D01*
X303202Y357313D01*
X300020D01*
X299985Y357444D01*
X299493Y358296D01*
X298797Y358993D01*
X297944Y359485D01*
X296992Y359740D01*
X296008D01*
X295056Y359485D01*
X294203Y358993D01*
X293507Y358296D01*
X293015Y357444D01*
X292760Y356492D01*
Y355508D01*
X293015Y354556D01*
X293507Y353703D01*
X294203Y353007D01*
X295056Y352515D01*
X296008Y352260D01*
X296992D01*
X297944Y352515D01*
X298797Y353007D01*
X299493Y353703D01*
X299985Y354556D01*
X300020Y354687D01*
X302658D01*
X303872Y353474D01*
X304298Y353189D01*
X304800Y353089D01*
X307649D01*
Y351705D01*
X307437D01*
Y348911D01*
X304800D01*
X304298Y348811D01*
X303872Y348526D01*
X302658Y347313D01*
X300453D01*
Y349953D01*
X297000D01*
Y346000D01*
X296500D01*
Y345500D01*
X292547D01*
Y342047D01*
X295187D01*
Y339000D01*
X295287Y338498D01*
X295572Y338072D01*
X310427Y323217D01*
X310317Y323026D01*
X310047Y322020D01*
Y322000D01*
X313500D01*
Y325453D01*
X313480D01*
X312474Y325183D01*
X312283Y325073D01*
X297813Y339544D01*
Y342047D01*
X300453D01*
Y344687D01*
X303202D01*
X303704Y344787D01*
X304130Y345072D01*
X305344Y346286D01*
X307437D01*
Y343492D01*
X311000D01*
Y347598D01*
X312000D01*
Y343492D01*
X315563D01*
Y346286D01*
X321291D01*
Y340323D01*
X321947D01*
Y339444D01*
X318772Y336268D01*
X318487Y335842D01*
X318387Y335340D01*
Y322330D01*
X317887Y322264D01*
X317683Y323026D01*
X317163Y323927D01*
X316427Y324663D01*
X315526Y325183D01*
X314520Y325453D01*
X314500D01*
Y321500D01*
Y317547D01*
X314520D01*
X315526Y317817D01*
X316427Y318337D01*
X317163Y319073D01*
X317683Y319974D01*
X317887Y320736D01*
X318387Y320670D01*
Y319500D01*
X318487Y318998D01*
X318772Y318572D01*
X321072Y316272D01*
X321498Y315987D01*
X322000Y315887D01*
X326000D01*
X326502Y315987D01*
X326928Y316272D01*
X329728Y319072D01*
X330013Y319498D01*
X330079Y319829D01*
X330603Y319904D01*
X331007Y319203D01*
X331703Y318507D01*
X332556Y318015D01*
X332713Y317973D01*
X332787Y317598D01*
X333072Y317172D01*
X334972Y315272D01*
X335398Y314987D01*
X335900Y314887D01*
X372000D01*
X372502Y314987D01*
X372928Y315272D01*
X373928Y316272D01*
X374213Y316698D01*
X374313Y317200D01*
Y319200D01*
X374213Y319702D01*
X373928Y320128D01*
X370886Y323170D01*
Y326248D01*
X370558D01*
X370367Y326710D01*
X376725Y333069D01*
X377187Y332878D01*
Y300813D01*
X287313D01*
Y395832D01*
X287813Y396031D01*
X289072Y394772D01*
D02*
G37*
G36*
X211872Y419172D02*
X212298Y418887D01*
X212800Y418787D01*
X217398D01*
X218008Y418178D01*
X217801Y417678D01*
X216358D01*
Y415000D01*
X218347D01*
Y417132D01*
X218847Y417339D01*
X220866Y415320D01*
Y411535D01*
X221829D01*
Y410389D01*
X221929Y409887D01*
X222214Y409461D01*
X222474Y409201D01*
X222411Y408701D01*
X220287D01*
Y402614D01*
X220075D01*
Y399850D01*
X223831D01*
Y399350D01*
X224331D01*
Y396087D01*
X227587D01*
Y396252D01*
X228086Y396302D01*
X228087Y396298D01*
X228372Y395872D01*
X236126Y388118D01*
Y385965D01*
X239500D01*
X242874D01*
Y387587D01*
X243856D01*
X245472Y385972D01*
X245898Y385687D01*
X246400Y385587D01*
X257091D01*
X257298Y385087D01*
X257007Y384797D01*
X256515Y383944D01*
X256480Y383813D01*
X248170D01*
X247668Y383713D01*
X247242Y383428D01*
X241072Y377258D01*
X240787Y376832D01*
X240687Y376330D01*
Y367584D01*
X239614D01*
Y363416D01*
X244386D01*
Y367584D01*
X243313D01*
Y375786D01*
X248714Y381187D01*
X256124D01*
X256331Y380687D01*
X251832Y376188D01*
X251547Y375762D01*
X251447Y375260D01*
Y344000D01*
X251547Y343498D01*
X251832Y343072D01*
X255996Y338908D01*
X256422Y338623D01*
X256924Y338523D01*
X257114D01*
Y337752D01*
X256754Y337413D01*
X244110D01*
X244003Y337913D01*
X244663Y338573D01*
X245183Y339474D01*
X245453Y340480D01*
Y340500D01*
X241500D01*
Y341000D01*
X241000D01*
Y344953D01*
X240980D01*
X239974Y344683D01*
X239073Y344163D01*
X238813Y343903D01*
X238313Y344110D01*
Y369370D01*
X238314Y369372D01*
X238599Y369798D01*
X238699Y370300D01*
Y375500D01*
X238599Y376002D01*
X238314Y376428D01*
X237513Y377230D01*
Y378164D01*
X237413Y378666D01*
X237128Y379092D01*
X236886Y379254D01*
Y380248D01*
X232114D01*
Y376080D01*
X235057D01*
X235272Y375758D01*
X235610Y375420D01*
X235403Y374920D01*
X232114D01*
Y370752D01*
X232788D01*
X232995Y370252D01*
X229556Y366813D01*
X223348D01*
Y370604D01*
X223248Y371106D01*
X222964Y371532D01*
X220832Y373664D01*
X221023Y374126D01*
X222535D01*
Y377000D01*
X220153D01*
Y374996D01*
X219691Y374804D01*
X218406Y376090D01*
X217980Y376374D01*
X217634Y376443D01*
Y380662D01*
X212295D01*
Y375468D01*
X211795Y375261D01*
X205117Y381939D01*
X205308Y382401D01*
X206961D01*
Y384500D01*
X204128D01*
Y385000D01*
X203628D01*
Y387599D01*
X201295D01*
X201185Y388053D01*
Y390556D01*
X201592Y390964D01*
X201877Y391390D01*
X201977Y391892D01*
Y395614D01*
X202748D01*
Y396952D01*
X202928Y397072D01*
X207228Y401372D01*
X207350Y401553D01*
X207939Y401572D01*
X207972Y401522D01*
X211072Y398422D01*
X211498Y398138D01*
X211626Y398112D01*
Y396299D01*
X213857D01*
Y393989D01*
X213956Y393487D01*
X214046Y393353D01*
Y391465D01*
X213082D01*
Y385535D01*
X217634D01*
Y391465D01*
X216671D01*
Y393800D01*
X216571Y394302D01*
X216482Y394436D01*
Y396299D01*
X218712D01*
Y402386D01*
X218925D01*
Y405150D01*
X211413D01*
Y402500D01*
X210979Y402228D01*
X210213Y402994D01*
Y420178D01*
X210675Y420369D01*
X211872Y419172D01*
D02*
G37*
G36*
X342256Y401213D02*
X341972Y400928D01*
X341687Y400502D01*
X341587Y400000D01*
Y392500D01*
X341687Y391998D01*
X341972Y391572D01*
X342972Y390572D01*
X343398Y390287D01*
X343614Y390244D01*
Y386752D01*
X344687D01*
Y382444D01*
X343572Y381328D01*
X343287Y380902D01*
X343187Y380400D01*
Y377020D01*
X343056Y376985D01*
X342203Y376493D01*
X341507Y375797D01*
X341015Y374944D01*
X340760Y373992D01*
Y373008D01*
X341015Y372056D01*
X341507Y371203D01*
X341676Y371034D01*
X341485Y370572D01*
X337515D01*
X337324Y371034D01*
X337493Y371203D01*
X337985Y372056D01*
X338240Y373008D01*
Y373992D01*
X337985Y374944D01*
X337493Y375797D01*
X336796Y376493D01*
X335944Y376985D01*
X335813Y377020D01*
Y380456D01*
X335928Y380572D01*
X336213Y380998D01*
X336313Y381500D01*
Y386416D01*
X337386D01*
Y389887D01*
X337956D01*
X339887Y387956D01*
Y386750D01*
X339364Y386227D01*
X339035Y385431D01*
Y384569D01*
X339364Y383773D01*
X339973Y383164D01*
X340769Y382835D01*
X341631D01*
X342427Y383164D01*
X343036Y383773D01*
X343365Y384569D01*
Y385431D01*
X343036Y386227D01*
X342513Y386750D01*
Y388500D01*
X342413Y389002D01*
X342128Y389428D01*
X339428Y392128D01*
X339002Y392413D01*
X338500Y392513D01*
X337599D01*
Y393328D01*
X335000D01*
Y394328D01*
X337599D01*
Y395788D01*
X337669Y395835D01*
X338531D01*
X339327Y396164D01*
X339936Y396773D01*
X340265Y397569D01*
Y398431D01*
X339936Y399227D01*
X339775Y399387D01*
X339844Y399687D01*
X339967Y399903D01*
X340392Y399987D01*
X340818Y400272D01*
X341103Y400698D01*
X341202Y401200D01*
Y401713D01*
X342049D01*
X342256Y401213D01*
D02*
G37*
G36*
X364253Y396191D02*
Y382044D01*
X363565Y381356D01*
X363065Y381563D01*
Y381831D01*
X362736Y382627D01*
X362127Y383236D01*
X361331Y383565D01*
X360469D01*
X359673Y383236D01*
X359150Y382713D01*
X353322D01*
X353131Y383175D01*
X355395Y385439D01*
X359900D01*
X360402Y385539D01*
X360828Y385823D01*
X361113Y386249D01*
X361213Y386752D01*
Y394128D01*
X361113Y394630D01*
X360828Y395056D01*
X360402Y395341D01*
X359900Y395441D01*
X359599D01*
Y396961D01*
X357500D01*
Y394128D01*
X357000D01*
Y393628D01*
X354401D01*
Y391295D01*
X353947Y391185D01*
X351072D01*
X349828Y392428D01*
X349402Y392713D01*
X348900Y392813D01*
X348386D01*
Y396248D01*
X347712D01*
X347505Y396748D01*
X349409Y398653D01*
X361791D01*
X364253Y396191D01*
D02*
G37*
G36*
X321736Y376025D02*
X321507Y375797D01*
X321015Y374944D01*
X320760Y373992D01*
Y373008D01*
X321015Y372056D01*
X321507Y371203D01*
X322203Y370507D01*
X323056Y370015D01*
X324008Y369760D01*
X324992D01*
X325944Y370015D01*
X326061Y370083D01*
X329312Y366832D01*
X329738Y366547D01*
X330240Y366447D01*
X349000D01*
X349502Y366547D01*
X349928Y366832D01*
X351168Y368072D01*
X351453Y368498D01*
X351553Y369000D01*
Y369760D01*
X353187D01*
Y365944D01*
X350072Y362828D01*
X349787Y362402D01*
X349687Y361900D01*
Y357045D01*
X349223Y356736D01*
X349187Y356740D01*
X348928Y357128D01*
X346928Y359128D01*
X346502Y359413D01*
X346000Y359513D01*
X330244D01*
X322028Y367728D01*
X321602Y368013D01*
X321100Y368113D01*
X304544D01*
X303498Y369159D01*
X303756Y369607D01*
X303980Y369547D01*
X304000D01*
Y373500D01*
X304500D01*
Y374000D01*
X308453D01*
Y374020D01*
X308183Y375026D01*
X308073Y375217D01*
X309344Y376487D01*
X311545D01*
X311736Y376025D01*
X311507Y375797D01*
X311015Y374944D01*
X310760Y373992D01*
Y373008D01*
X311015Y372056D01*
X311507Y371203D01*
X312204Y370507D01*
X313056Y370015D01*
X314008Y369760D01*
X314992D01*
X315944Y370015D01*
X316796Y370507D01*
X317493Y371203D01*
X317985Y372056D01*
X318240Y373008D01*
Y373992D01*
X317985Y374944D01*
X317493Y375797D01*
X317264Y376025D01*
X317455Y376487D01*
X321545D01*
X321736Y376025D01*
D02*
G37*
G36*
X344000Y351878D02*
X346272D01*
X346687Y351675D01*
Y347900D01*
X346787Y347398D01*
X347072Y346972D01*
X358687Y335356D01*
Y326248D01*
X357614D01*
Y322080D01*
X361899D01*
X362682Y321297D01*
X362352Y320920D01*
X357614D01*
Y320148D01*
X353944D01*
X351664Y322428D01*
X351238Y322713D01*
X350736Y322813D01*
X347740D01*
Y325240D01*
X340260D01*
Y317760D01*
X339862Y317513D01*
X336444D01*
X336050Y317907D01*
X336115Y318402D01*
X336297Y318507D01*
X336993Y319203D01*
X337485Y320056D01*
X337740Y321008D01*
Y321992D01*
X337485Y322944D01*
X336993Y323797D01*
X336297Y324493D01*
X335444Y324985D01*
X334492Y325240D01*
X334104D01*
X333896Y325740D01*
X344428Y336272D01*
X344713Y336698D01*
X344813Y337200D01*
Y346185D01*
X346059D01*
Y350909D01*
X340941D01*
Y346185D01*
X342187D01*
Y337744D01*
X334518Y330074D01*
X334057Y330320D01*
X334113Y330600D01*
Y342300D01*
X334013Y342802D01*
X333728Y343228D01*
X333302Y343513D01*
X332800Y343613D01*
X332709D01*
Y346622D01*
X328772D01*
Y346622D01*
X328313Y346721D01*
Y347487D01*
X334200D01*
X334702Y347587D01*
X335128Y347872D01*
X340228Y352972D01*
X340728Y352765D01*
Y351878D01*
X343000D01*
Y354453D01*
X344000D01*
Y351878D01*
D02*
G37*
G36*
X361905Y353474D02*
X361987Y353058D01*
X362272Y352632D01*
X365072Y349832D01*
X365498Y349547D01*
X366000Y349447D01*
X366498D01*
X366882Y348947D01*
X366760Y348492D01*
Y347508D01*
X367015Y346556D01*
X367083Y346439D01*
X366256Y345613D01*
X361563D01*
Y348196D01*
X357500D01*
Y349196D01*
X361563D01*
Y352803D01*
X361351D01*
Y353263D01*
X361399Y353320D01*
X361851Y353519D01*
X361905Y353474D01*
D02*
G37*
G36*
X374987Y339978D02*
Y335044D01*
X367572Y327628D01*
X367287Y327202D01*
X367187Y326700D01*
Y326248D01*
X366513D01*
Y336001D01*
X367013Y336135D01*
X367337Y335573D01*
X368073Y334837D01*
X368974Y334317D01*
X369980Y334047D01*
X370000D01*
Y338000D01*
X370500D01*
Y338500D01*
X374453D01*
Y338520D01*
X374183Y339526D01*
X374073Y339717D01*
X374525Y340169D01*
X374987Y339978D01*
D02*
G37*
G36*
X280187Y379500D02*
Y301313D01*
X122813D01*
Y322307D01*
X143256D01*
Y323750D01*
X147356D01*
X149437Y321670D01*
X149863Y321386D01*
X150365Y321286D01*
X160649D01*
Y318704D01*
X168351D01*
Y321579D01*
X173112Y321947D01*
X177850D01*
Y321291D01*
X184150D01*
Y324819D01*
X184362D01*
Y326500D01*
X181000D01*
Y327500D01*
X184362D01*
Y329181D01*
X184150D01*
Y332033D01*
X191487Y339371D01*
X191901Y339248D01*
X191987Y339185D01*
Y332709D01*
X186906D01*
Y328772D01*
X193205D01*
Y329428D01*
X196416D01*
X196535Y329309D01*
Y328569D01*
X196864Y327773D01*
X197473Y327164D01*
X198269Y326835D01*
X199131D01*
X199927Y327164D01*
X200536Y327773D01*
X200865Y328569D01*
Y329431D01*
X200536Y330227D01*
X199927Y330836D01*
X199131Y331165D01*
X198391D01*
X197888Y331668D01*
X197462Y331953D01*
X196960Y332053D01*
X194613D01*
Y348500D01*
X194513Y349002D01*
X194228Y349428D01*
X193802Y349713D01*
X193300Y349813D01*
X188900D01*
X188398Y349713D01*
X187972Y349428D01*
X187148Y348605D01*
X186846Y348670D01*
X186648Y348795D01*
Y351921D01*
X199951Y365223D01*
X200405Y365035D01*
X201267D01*
X202062Y365364D01*
X202672Y365973D01*
X203001Y366769D01*
Y367631D01*
X202672Y368427D01*
X202148Y368950D01*
Y369614D01*
X202920D01*
Y374386D01*
X198752D01*
Y369614D01*
X199523D01*
Y368950D01*
X199000Y368427D01*
X198688Y367672D01*
X184408Y353392D01*
X184123Y352966D01*
X184023Y352464D01*
Y347886D01*
X183252D01*
Y343913D01*
X173705D01*
Y348662D01*
X172348D01*
Y360092D01*
X179703Y367447D01*
X180165Y367256D01*
Y366563D01*
X192764D01*
Y374437D01*
X181513D01*
Y381280D01*
X181599Y381344D01*
X182013Y381467D01*
X185908Y377572D01*
X186334Y377287D01*
X186836Y377187D01*
X203944D01*
X206071Y375061D01*
X205880Y374599D01*
X203868D01*
Y372500D01*
X206164D01*
Y372000D01*
X206664D01*
Y369401D01*
X208461D01*
Y372018D01*
X208923Y372209D01*
X213260Y367872D01*
X213686Y367587D01*
X214188Y367487D01*
X214453D01*
X215104Y366836D01*
X214912Y366374D01*
X214465D01*
Y363000D01*
Y359626D01*
X215822D01*
Y347178D01*
X213384Y344740D01*
X207760D01*
Y337260D01*
X215240D01*
Y342884D01*
X216860Y344503D01*
X217322Y344312D01*
Y343866D01*
X217422Y343363D01*
X217706Y342937D01*
X218083Y342561D01*
X218015Y342444D01*
X217760Y341492D01*
Y340508D01*
X218015Y339556D01*
X218507Y338703D01*
X219203Y338007D01*
X220056Y337515D01*
X221008Y337260D01*
X221992D01*
X222944Y337515D01*
X223797Y338007D01*
X224493Y338703D01*
X224985Y339556D01*
X225240Y340508D01*
Y341492D01*
X224985Y342444D01*
X224493Y343297D01*
X223797Y343993D01*
X222944Y344485D01*
X221992Y344740D01*
X221008D01*
X220447Y344590D01*
X219947Y344974D01*
Y359838D01*
X220723D01*
Y350465D01*
X220823Y349962D01*
X221107Y349536D01*
X228083Y342561D01*
X228015Y342444D01*
X227760Y341492D01*
Y340508D01*
X228015Y339556D01*
X228507Y338703D01*
X229204Y338007D01*
X230056Y337515D01*
X231008Y337260D01*
X231992D01*
X232944Y337515D01*
X233061Y337583D01*
X237272Y333372D01*
X237698Y333087D01*
X238200Y332987D01*
X256728D01*
Y331906D01*
X259500D01*
X262272D01*
Y332987D01*
X262300D01*
X262802Y333087D01*
X263228Y333372D01*
X264828Y334972D01*
X265113Y335398D01*
X265213Y335900D01*
Y358600D01*
X265113Y359102D01*
X264828Y359528D01*
X263740Y360616D01*
Y364384D01*
X266587Y367231D01*
X266904Y367159D01*
X267087Y367039D01*
Y322144D01*
X255256Y310313D01*
X250610D01*
X250403Y310813D01*
X250663Y311073D01*
X251183Y311974D01*
X251453Y312980D01*
Y313000D01*
X243547D01*
Y312980D01*
X243817Y311974D01*
X244337Y311073D01*
X244597Y310813D01*
X244390Y310313D01*
X240309D01*
X240102Y310813D01*
X240493Y311204D01*
X240985Y312056D01*
X241240Y313008D01*
Y313992D01*
X240985Y314944D01*
X240493Y315796D01*
X239796Y316493D01*
X238944Y316985D01*
X237992Y317240D01*
X237008D01*
X236056Y316985D01*
X235939Y316917D01*
X234128Y318728D01*
X233702Y319013D01*
X233200Y319113D01*
X201000D01*
X200498Y319013D01*
X200072Y318728D01*
X192156Y310813D01*
X166099D01*
Y311664D01*
X163500D01*
X160901D01*
Y310813D01*
X136366D01*
X135864Y310713D01*
X135438Y310428D01*
X134438Y309428D01*
X134153Y309002D01*
X134054Y308500D01*
Y308150D01*
X132413D01*
Y301850D01*
X138319D01*
Y308150D01*
X138803Y308187D01*
X140197D01*
X140681Y308150D01*
Y301850D01*
X146587D01*
Y303687D01*
X152600D01*
X153102Y303787D01*
X153528Y304072D01*
X154980Y305523D01*
X161114D01*
Y304752D01*
X165886D01*
Y308187D01*
X192700D01*
X193202Y308287D01*
X193628Y308572D01*
X201544Y316487D01*
X203760D01*
Y309760D01*
X209384D01*
X211072Y308072D01*
X211498Y307787D01*
X212000Y307687D01*
X255800D01*
X256302Y307787D01*
X256728Y308072D01*
X263306Y314650D01*
X263730Y314367D01*
X263375Y313510D01*
X263110Y312179D01*
Y311748D01*
X263078Y311500D01*
X263110Y311252D01*
Y310821D01*
X263375Y309490D01*
X263894Y308237D01*
X264648Y307108D01*
X265608Y306148D01*
X266737Y305394D01*
X267990Y304875D01*
X269321Y304610D01*
X270679D01*
X272010Y304875D01*
X273264Y305394D01*
X274392Y306148D01*
X275352Y307108D01*
X276106Y308237D01*
X276625Y309490D01*
X276890Y310821D01*
Y311252D01*
X276922Y311500D01*
X276890Y311748D01*
Y312179D01*
X276625Y313510D01*
X276106Y314763D01*
X275352Y315892D01*
X274392Y316852D01*
X273264Y317606D01*
X272010Y318125D01*
X270679Y318390D01*
X269321D01*
X267990Y318125D01*
X267133Y317770D01*
X266850Y318194D01*
X269328Y320672D01*
X269613Y321098D01*
X269713Y321600D01*
Y463800D01*
X269613Y464302D01*
X269328Y464728D01*
X247528Y486528D01*
X247102Y486813D01*
X246600Y486913D01*
X235000D01*
X234498Y486813D01*
X234072Y486528D01*
X233072Y485528D01*
X232787Y485102D01*
X232687Y484600D01*
Y484386D01*
X229252D01*
Y479614D01*
X230023D01*
Y477689D01*
X229162Y476828D01*
X228878Y476402D01*
X228778Y475900D01*
Y474366D01*
X221838D01*
Y474579D01*
X220748D01*
Y471217D01*
X219748D01*
Y474579D01*
X219592D01*
Y475820D01*
X219492Y476323D01*
X219208Y476749D01*
X218149Y477807D01*
X218314Y478350D01*
X218502Y478387D01*
X218928Y478672D01*
X220092Y479836D01*
X220278Y480114D01*
X221248D01*
Y484886D01*
X217080D01*
Y480913D01*
X216132D01*
Y482000D01*
X213836D01*
X211539D01*
Y480913D01*
X210378D01*
X205728Y485562D01*
X205302Y485847D01*
X204800Y485946D01*
X202150D01*
Y487586D01*
X195850D01*
Y481681D01*
X195850D01*
X195774Y481213D01*
X195300D01*
X194798Y481113D01*
X194372Y480828D01*
X194087Y480402D01*
X193987Y479900D01*
Y472900D01*
X194087Y472398D01*
X194372Y471972D01*
X201180Y465164D01*
X201350Y464720D01*
X201350D01*
X201350Y464720D01*
Y462964D01*
X201138D01*
Y461874D01*
X204500D01*
Y460874D01*
X201138D01*
Y459783D01*
X201350D01*
Y457411D01*
X200850Y457203D01*
X199228Y458826D01*
X198802Y459110D01*
X198300Y459210D01*
X191547D01*
Y459851D01*
X191760D01*
Y461728D01*
X188398D01*
X185035D01*
Y459851D01*
X185248D01*
Y455732D01*
Y451902D01*
X185248Y451402D01*
X185248D01*
Y451402D01*
X185248D01*
Y447284D01*
X185035D01*
Y445406D01*
X188398D01*
X191760D01*
Y447284D01*
X191770Y447303D01*
X192377Y447403D01*
X192608Y447172D01*
X193034Y446887D01*
X193536Y446787D01*
X198300D01*
X198802Y446887D01*
X199228Y447172D01*
X200888Y448832D01*
X201350Y448641D01*
Y446217D01*
Y441734D01*
X200850Y441527D01*
X199986Y442391D01*
Y443131D01*
X199656Y443927D01*
X199047Y444536D01*
X198251Y444865D01*
X197390D01*
X196594Y444536D01*
X195985Y443927D01*
X195655Y443131D01*
Y442269D01*
X195985Y441473D01*
X196594Y440864D01*
X197390Y440535D01*
X198130D01*
X199441Y439223D01*
X199529Y438680D01*
X196072Y435223D01*
X195787Y434797D01*
X195687Y434295D01*
Y432295D01*
X195787Y431793D01*
X196072Y431367D01*
X200315Y427123D01*
Y417053D01*
X200205Y416599D01*
X197872D01*
Y414000D01*
Y411401D01*
X200205D01*
Y411614D01*
X204248D01*
Y416386D01*
X202941D01*
Y427667D01*
X202841Y428169D01*
X202556Y428595D01*
X198313Y432839D01*
Y433751D01*
X200638Y436076D01*
X201138Y435869D01*
Y434193D01*
X201350D01*
Y432437D01*
X204987D01*
Y402844D01*
X202530Y400386D01*
X201977D01*
Y400900D01*
X201877Y401402D01*
X201592Y401828D01*
X201167Y402113D01*
X200664Y402213D01*
X192644D01*
X187813Y407044D01*
Y411614D01*
X189120D01*
Y416386D01*
X185077D01*
Y416599D01*
X182744D01*
Y414000D01*
Y411401D01*
X185077D01*
X185187Y410947D01*
Y406500D01*
X185287Y405998D01*
X185572Y405572D01*
X188469Y402675D01*
X188278Y402213D01*
X185444D01*
X184928Y402728D01*
X184502Y403013D01*
X184000Y403113D01*
X169851D01*
Y407295D01*
X170063D01*
Y410902D01*
X166000D01*
X161937D01*
Y407295D01*
X162149D01*
Y405911D01*
X159100D01*
X158598Y405811D01*
X158172Y405526D01*
X148672Y396026D01*
X148387Y395601D01*
X148287Y395098D01*
Y391685D01*
X146906D01*
Y391029D01*
X135094D01*
Y391685D01*
X129583D01*
Y387748D01*
X135094D01*
Y388404D01*
X138244D01*
Y385386D01*
X143756D01*
Y388404D01*
X146906D01*
Y387748D01*
X149774D01*
X151687Y385834D01*
Y372752D01*
X146906D01*
Y372096D01*
X143756D01*
Y375114D01*
X138244D01*
Y372096D01*
X136413D01*
Y377114D01*
X139920D01*
Y381886D01*
X135752D01*
Y380743D01*
X135598Y380713D01*
X135172Y380428D01*
X134172Y379428D01*
X133887Y379002D01*
X133787Y378500D01*
Y372752D01*
X129583D01*
Y368815D01*
X135094D01*
Y369471D01*
X146906D01*
Y368815D01*
X151687D01*
Y360099D01*
X149774Y358185D01*
X146906D01*
Y357529D01*
X135094D01*
Y358185D01*
X129583D01*
Y354248D01*
X135094D01*
Y354904D01*
X138244D01*
Y351886D01*
X143756D01*
Y354904D01*
X146906D01*
Y354248D01*
X152417D01*
Y357116D01*
X153928Y358627D01*
X154213Y359053D01*
X154313Y359555D01*
Y386378D01*
X154213Y386880D01*
X153928Y387306D01*
X152417Y388817D01*
Y391685D01*
X150913D01*
Y394554D01*
X159644Y403286D01*
X162149D01*
Y400704D01*
X165322D01*
X165498Y400587D01*
X166000Y400487D01*
X178887D01*
Y370500D01*
X178913Y370370D01*
X176509Y367966D01*
X176047Y368157D01*
Y370000D01*
X170035D01*
Y366350D01*
X174241D01*
X174432Y365889D01*
X170107Y361564D01*
X169823Y361138D01*
X169723Y360635D01*
Y348662D01*
X168366D01*
Y342338D01*
X169775D01*
X169823Y342098D01*
X170107Y341672D01*
X170533Y341387D01*
X171035Y341287D01*
X188000D01*
X188502Y341387D01*
X188852Y341621D01*
X189147Y341534D01*
X189311Y341431D01*
X189342Y340939D01*
X181112Y332709D01*
X177850D01*
Y331828D01*
X177612Y331668D01*
X176372Y330428D01*
X176087Y330002D01*
X175987Y329500D01*
Y324572D01*
X173062D01*
X173011Y324562D01*
X172960Y324569D01*
X168718Y324241D01*
X168351Y324580D01*
Y325295D01*
X168563D01*
Y328902D01*
X164500D01*
X160437D01*
Y325295D01*
X160649D01*
Y323911D01*
X150909D01*
X148828Y325991D01*
X148402Y326276D01*
X147900Y326376D01*
X143256D01*
Y327819D01*
X122813D01*
Y329969D01*
X131142D01*
Y332937D01*
Y335906D01*
X122813D01*
Y489187D01*
X280187D01*
Y379500D01*
D02*
G37*
%LPC*%
G36*
X330020Y482453D02*
X330000D01*
Y479000D01*
X333453D01*
Y479020D01*
X333183Y480026D01*
X332663Y480927D01*
X331927Y481663D01*
X331026Y482183D01*
X330020Y482453D01*
D02*
G37*
G36*
X369992Y482240D02*
X369008D01*
X368056Y481985D01*
X367203Y481493D01*
X366507Y480796D01*
X366015Y479944D01*
X365760Y478992D01*
Y478008D01*
X366015Y477056D01*
X366507Y476203D01*
X367203Y475507D01*
X368056Y475015D01*
X369008Y474760D01*
X369992D01*
X370944Y475015D01*
X371796Y475507D01*
X372493Y476203D01*
X372985Y477056D01*
X373240Y478008D01*
Y478992D01*
X372985Y479944D01*
X372493Y480796D01*
X371796Y481493D01*
X370944Y481985D01*
X369992Y482240D01*
D02*
G37*
G36*
X329000Y478000D02*
X325547D01*
Y477980D01*
X325817Y476974D01*
X326337Y476073D01*
X327073Y475337D01*
X327974Y474817D01*
X328980Y474547D01*
X329000D01*
Y478000D01*
D02*
G37*
G36*
X299000Y467847D02*
X296126D01*
Y465465D01*
X299000D01*
Y467847D01*
D02*
G37*
G36*
Y464465D02*
X296126D01*
Y462082D01*
X299000D01*
Y464465D01*
D02*
G37*
G36*
X368500Y419750D02*
X368375D01*
X367167Y419426D01*
X366083Y418801D01*
X365199Y417917D01*
X364574Y416833D01*
X364250Y415625D01*
Y415500D01*
X368500D01*
Y419750D01*
D02*
G37*
G36*
X373750Y414500D02*
X369500D01*
Y410250D01*
X369625D01*
X370833Y410574D01*
X371917Y411199D01*
X372801Y412083D01*
X373426Y413167D01*
X373750Y414375D01*
Y414500D01*
D02*
G37*
G36*
X368500D02*
X364250D01*
Y414375D01*
X364574Y413167D01*
X365199Y412083D01*
X366083Y411199D01*
X367167Y410574D01*
X368375Y410250D01*
X368500D01*
Y414500D01*
D02*
G37*
G36*
X262000Y460500D02*
X259901D01*
Y458703D01*
X262000D01*
Y460500D01*
D02*
G37*
G36*
X253138Y460874D02*
X249776D01*
X246413D01*
Y459783D01*
X246626D01*
Y456059D01*
Y452122D01*
Y448185D01*
Y444248D01*
Y440311D01*
Y436374D01*
Y432437D01*
X248987D01*
Y414950D01*
X248464Y414427D01*
X248135Y413631D01*
Y412769D01*
X248464Y411973D01*
X249073Y411364D01*
X249869Y411035D01*
X250731D01*
X251527Y411364D01*
X252136Y411973D01*
X252465Y412769D01*
Y413631D01*
X252136Y414427D01*
X251613Y414950D01*
Y432437D01*
X252925D01*
Y436059D01*
X253425Y436360D01*
X253969Y436135D01*
X254831D01*
X255627Y436464D01*
X256236Y437073D01*
X256565Y437869D01*
Y438731D01*
X256236Y439527D01*
X255676Y440087D01*
X255613Y440402D01*
X255328Y440828D01*
X253539Y442617D01*
X253113Y442902D01*
X252925Y442939D01*
Y446217D01*
Y450154D01*
Y454156D01*
X256000D01*
X256502Y454256D01*
X256657Y454359D01*
X260114D01*
Y453587D01*
X264886D01*
Y457756D01*
X260114D01*
Y456984D01*
X256203D01*
X255701Y456884D01*
X255546Y456781D01*
X252925D01*
Y459783D01*
X253138D01*
Y460874D01*
D02*
G37*
G36*
X262000Y444918D02*
X259126D01*
Y442535D01*
X262000D01*
Y444918D01*
D02*
G37*
G36*
Y441535D02*
X259126D01*
Y439153D01*
X262000D01*
Y441535D01*
D02*
G37*
G36*
X259500Y416453D02*
X259480D01*
X258474Y416183D01*
X257573Y415663D01*
X256837Y414927D01*
X256317Y414026D01*
X256047Y413020D01*
Y413000D01*
X259500D01*
Y416453D01*
D02*
G37*
G36*
X242874Y407347D02*
X240000D01*
Y404965D01*
X242874D01*
Y407347D01*
D02*
G37*
G36*
X239000D02*
X236126D01*
Y404965D01*
X239000D01*
Y407347D01*
D02*
G37*
G36*
X242874Y403965D02*
X240000D01*
Y401582D01*
X242874D01*
Y403965D01*
D02*
G37*
G36*
X239000D02*
X236126D01*
Y401582D01*
X239000D01*
Y403965D01*
D02*
G37*
G36*
X320705Y415467D02*
Y413600D01*
X322572D01*
X322221Y414447D01*
X321552Y415116D01*
X320705Y415467D01*
D02*
G37*
G36*
X319705D02*
X318858Y415116D01*
X318189Y414447D01*
X317838Y413600D01*
X319705D01*
Y415467D01*
D02*
G37*
G36*
X296000Y349953D02*
X292547D01*
Y346500D01*
X296000D01*
Y349953D01*
D02*
G37*
G36*
X313500Y321000D02*
X310047D01*
Y320980D01*
X310317Y319974D01*
X310837Y319073D01*
X311573Y318337D01*
X312474Y317817D01*
X313480Y317547D01*
X313500D01*
Y321000D01*
D02*
G37*
G36*
X298500Y318422D02*
X298252Y318390D01*
X297821D01*
X296490Y318125D01*
X295236Y317606D01*
X294108Y316852D01*
X293148Y315892D01*
X292394Y314763D01*
X291875Y313510D01*
X291610Y312179D01*
Y310821D01*
X291875Y309490D01*
X292394Y308237D01*
X293148Y307108D01*
X294108Y306148D01*
X295236Y305394D01*
X296490Y304875D01*
X297821Y304610D01*
X298252D01*
X298500Y304578D01*
X298748Y304610D01*
X299179D01*
X300510Y304875D01*
X301764Y305394D01*
X302892Y306148D01*
X303852Y307108D01*
X304606Y308237D01*
X305125Y309490D01*
X305390Y310821D01*
Y312179D01*
X305125Y313510D01*
X304606Y314763D01*
X303852Y315892D01*
X302892Y316852D01*
X301764Y317606D01*
X300510Y318125D01*
X299179Y318390D01*
X298748D01*
X298500Y318422D01*
D02*
G37*
G36*
X333000Y313954D02*
X332752Y313921D01*
X332352D01*
X331101Y313586D01*
X329978Y312938D01*
X329062Y312022D01*
X328414Y310899D01*
X328079Y309648D01*
Y308352D01*
X328414Y307101D01*
X329062Y305978D01*
X329978Y305062D01*
X331101Y304414D01*
X332352Y304079D01*
X332752D01*
X333000Y304046D01*
X333248Y304079D01*
X333648D01*
X334899Y304414D01*
X336022Y305062D01*
X336938Y305978D01*
X337586Y307101D01*
X337921Y308352D01*
Y309648D01*
X337586Y310899D01*
X336938Y312022D01*
X336022Y312938D01*
X334899Y313586D01*
X333648Y313921D01*
X333248D01*
X333000Y313954D01*
D02*
G37*
G36*
X370000Y313454D02*
X369752Y313421D01*
X369352D01*
X368101Y313086D01*
X366978Y312438D01*
X366062Y311522D01*
X365414Y310400D01*
X365079Y309148D01*
Y307852D01*
X365414Y306600D01*
X366062Y305478D01*
X366978Y304562D01*
X368101Y303914D01*
X369352Y303579D01*
X369752D01*
X370000Y303546D01*
X370248Y303579D01*
X370648D01*
X371900Y303914D01*
X373022Y304562D01*
X373938Y305478D01*
X374586Y306600D01*
X374921Y307852D01*
Y309148D01*
X374586Y310400D01*
X373938Y311522D01*
X373022Y312438D01*
X371900Y313086D01*
X370648Y313421D01*
X370248D01*
X370000Y313454D01*
D02*
G37*
G36*
X215358Y417678D02*
X213370D01*
Y415000D01*
X215358D01*
Y417678D01*
D02*
G37*
G36*
X218347Y414000D02*
X216358D01*
Y411322D01*
X218347D01*
Y414000D01*
D02*
G37*
G36*
X215358D02*
X213370D01*
Y411322D01*
X215358D01*
Y414000D01*
D02*
G37*
G36*
X218925Y408913D02*
X215669D01*
Y406150D01*
X218925D01*
Y408913D01*
D02*
G37*
G36*
X214669D02*
X211413D01*
Y406150D01*
X214669D01*
Y408913D01*
D02*
G37*
G36*
X223331Y398850D02*
X220075D01*
Y396087D01*
X223331D01*
Y398850D01*
D02*
G37*
G36*
X225130Y391678D02*
X223142D01*
Y389000D01*
X225130D01*
Y391678D01*
D02*
G37*
G36*
X222142D02*
X220153D01*
Y389000D01*
X222142D01*
Y391678D01*
D02*
G37*
G36*
X204628Y387599D02*
Y385500D01*
X206961D01*
Y387599D01*
X204628D01*
D02*
G37*
G36*
X225130Y388000D02*
X223142D01*
Y385322D01*
X225130D01*
Y388000D01*
D02*
G37*
G36*
X222142D02*
X220153D01*
Y385322D01*
X222142D01*
Y388000D01*
D02*
G37*
G36*
X242874Y384965D02*
X240000D01*
Y382582D01*
X242874D01*
Y384965D01*
D02*
G37*
G36*
X239000D02*
X236126D01*
Y382582D01*
X239000D01*
Y384965D01*
D02*
G37*
G36*
X225918Y380874D02*
X223535D01*
Y378000D01*
X225918D01*
Y380874D01*
D02*
G37*
G36*
X222535D02*
X220153D01*
Y378000D01*
X222535D01*
Y380874D01*
D02*
G37*
G36*
X225918Y377000D02*
X223535D01*
Y374126D01*
X225918D01*
Y377000D01*
D02*
G37*
G36*
X244599Y362468D02*
X242500D01*
Y360672D01*
X244599D01*
Y362468D01*
D02*
G37*
G36*
X241500D02*
X239401D01*
Y360672D01*
X241500D01*
Y362468D01*
D02*
G37*
G36*
X244599Y359672D02*
X242500D01*
Y357875D01*
X244599D01*
Y359672D01*
D02*
G37*
G36*
X241500D02*
X239401D01*
Y357875D01*
X241500D01*
Y359672D01*
D02*
G37*
G36*
X242020Y344953D02*
X242000D01*
Y341500D01*
X245453D01*
Y341520D01*
X245183Y342526D01*
X244663Y343427D01*
X243927Y344163D01*
X243026Y344683D01*
X242020Y344953D01*
D02*
G37*
G36*
X356500Y396961D02*
X354401D01*
Y394628D01*
X356500D01*
Y396961D01*
D02*
G37*
G36*
X308453Y373000D02*
X305000D01*
Y369547D01*
X305020D01*
X306026Y369817D01*
X306927Y370337D01*
X307663Y371073D01*
X308183Y371974D01*
X308453Y372980D01*
Y373000D01*
D02*
G37*
G36*
X374453Y337500D02*
X371000D01*
Y334047D01*
X371020D01*
X372026Y334317D01*
X372927Y334837D01*
X373663Y335573D01*
X374183Y336474D01*
X374453Y337480D01*
Y337500D01*
D02*
G37*
G36*
X216132Y485099D02*
X214336D01*
Y483000D01*
X216132D01*
Y485099D01*
D02*
G37*
G36*
X213336D02*
X211539D01*
Y483000D01*
X213336D01*
Y485099D01*
D02*
G37*
G36*
X149634Y481339D02*
X147559D01*
Y478870D01*
X149634D01*
Y481339D01*
D02*
G37*
G36*
X137232D02*
X131220D01*
Y478870D01*
X137232D01*
Y481339D01*
D02*
G37*
G36*
X146559D02*
X144484D01*
Y478870D01*
X146559D01*
Y481339D01*
D02*
G37*
G36*
X130220D02*
X124209D01*
Y478870D01*
X130220D01*
Y481339D01*
D02*
G37*
G36*
X170969D02*
X168106D01*
Y480748D01*
X154933D01*
X154626Y480687D01*
X154365Y480513D01*
X154191Y480252D01*
X154130Y479945D01*
Y476992D01*
X154145Y476917D01*
X153845Y476463D01*
X153774Y476417D01*
X149634D01*
Y477870D01*
X147059D01*
X144484D01*
Y476417D01*
X137232D01*
Y477870D01*
X131220D01*
Y475401D01*
X132870D01*
Y472858D01*
X132932Y472551D01*
X133106Y472291D01*
X133366Y472117D01*
X133673Y472055D01*
X161610D01*
Y438606D01*
X161672Y438299D01*
X161846Y438039D01*
X162106Y437865D01*
X162413Y437804D01*
X168713D01*
X169020Y437865D01*
X169280Y438039D01*
X169454Y438299D01*
X169516Y438606D01*
Y472858D01*
X169454Y473166D01*
X169280Y473426D01*
X169020Y473600D01*
X168713Y473661D01*
X164397D01*
Y475614D01*
X164382Y475690D01*
X164682Y476144D01*
X164754Y476190D01*
X168106D01*
Y475401D01*
X170969D01*
Y478370D01*
Y481339D01*
D02*
G37*
G36*
X130220Y477870D02*
X124209D01*
Y475401D01*
X130220D01*
Y477870D01*
D02*
G37*
G36*
X191760Y477008D02*
X188898D01*
Y475130D01*
X191760D01*
Y477008D01*
D02*
G37*
G36*
X174831Y481339D02*
X171969D01*
Y478370D01*
Y475401D01*
X174831D01*
Y476189D01*
X185035D01*
Y475130D01*
X187898D01*
Y477008D01*
X187429D01*
Y479945D01*
X187368Y480252D01*
X187194Y480513D01*
X186933Y480687D01*
X186626Y480748D01*
X174831D01*
Y481339D01*
D02*
G37*
G36*
X269179Y483890D02*
X267821D01*
X266490Y483625D01*
X265236Y483106D01*
X264108Y482352D01*
X263148Y481392D01*
X262394Y480264D01*
X261875Y479010D01*
X261610Y477679D01*
Y477248D01*
X261578Y477000D01*
X261610Y476752D01*
Y476321D01*
X261875Y474990D01*
X262394Y473736D01*
X263148Y472608D01*
X264108Y471648D01*
X265236Y470894D01*
X266490Y470375D01*
X267821Y470110D01*
X269179D01*
X270510Y470375D01*
X271763Y470894D01*
X272892Y471648D01*
X273852Y472608D01*
X274606Y473736D01*
X275125Y474990D01*
X275390Y476321D01*
Y476752D01*
X275422Y477000D01*
X275390Y477248D01*
Y477679D01*
X275125Y479010D01*
X274606Y480264D01*
X273852Y481392D01*
X272892Y482352D01*
X271763Y483106D01*
X270510Y483625D01*
X269179Y483890D01*
D02*
G37*
G36*
X191760Y474130D02*
X188398D01*
X185035D01*
Y472252D01*
X185248D01*
Y469224D01*
X185248Y468724D01*
X185248Y468224D01*
Y464606D01*
X185035D01*
Y462728D01*
X188398D01*
X191760D01*
Y464606D01*
X191547D01*
Y465246D01*
X192618D01*
X193141Y464723D01*
X193937Y464394D01*
X194799D01*
X195594Y464723D01*
X196203Y465332D01*
X196533Y466128D01*
Y466990D01*
X196203Y467786D01*
X195594Y468395D01*
X194799Y468724D01*
X193937D01*
X193141Y468395D01*
X192618Y467872D01*
X191901D01*
X191547Y468225D01*
X191547Y468724D01*
X191547Y469224D01*
Y472252D01*
X191760D01*
Y474130D01*
D02*
G37*
G36*
Y444406D02*
X188398D01*
X185035D01*
Y442528D01*
X185248D01*
Y438410D01*
X191547D01*
Y442528D01*
X191760D01*
Y444406D01*
D02*
G37*
G36*
Y437441D02*
X188898D01*
Y434972D01*
X191760D01*
Y437441D01*
D02*
G37*
G36*
X187898D02*
X185035D01*
Y434972D01*
X187898D01*
Y437441D01*
D02*
G37*
G36*
X191760Y433972D02*
X188898D01*
Y431504D01*
X191760D01*
Y433972D01*
D02*
G37*
G36*
X187898D02*
X185035D01*
Y431504D01*
X187898D01*
Y433972D01*
D02*
G37*
G36*
X130524Y440787D02*
X125209D01*
X124901Y440726D01*
X124641Y440552D01*
X124467Y440292D01*
X124406Y439984D01*
Y429945D01*
X124406Y429945D01*
Y422661D01*
X124467Y422354D01*
X124641Y422094D01*
X124901Y421920D01*
X125209Y421859D01*
X132689D01*
X132996Y421920D01*
X133257Y422094D01*
X133431Y422354D01*
X133492Y422661D01*
Y427779D01*
X133431Y428087D01*
X133257Y428347D01*
X132996Y428521D01*
X132689Y428582D01*
X127947D01*
X127897Y428642D01*
X128129Y429142D01*
X130524D01*
X130831Y429203D01*
X131091Y429377D01*
X131265Y429638D01*
X131326Y429945D01*
Y439984D01*
X131265Y440292D01*
X131091Y440552D01*
X130831Y440726D01*
X130524Y440787D01*
D02*
G37*
G36*
X140297Y417599D02*
X138500D01*
Y415500D01*
X140297D01*
Y417599D01*
D02*
G37*
G36*
X137500D02*
X135703D01*
Y415500D01*
X137500D01*
Y417599D01*
D02*
G37*
G36*
X196872Y416599D02*
X194539D01*
Y414500D01*
X196872D01*
Y416599D01*
D02*
G37*
G36*
X181744D02*
X179411D01*
Y414500D01*
X181744D01*
Y416599D01*
D02*
G37*
G36*
X140297Y414500D02*
X138500D01*
Y412401D01*
X140297D01*
Y414500D01*
D02*
G37*
G36*
X137500D02*
X135703D01*
Y412401D01*
X137500D01*
Y414500D01*
D02*
G37*
G36*
X170063Y415508D02*
X166500D01*
Y411902D01*
X170063D01*
Y415508D01*
D02*
G37*
G36*
X165500D02*
X161937D01*
Y411902D01*
X165500D01*
Y415508D01*
D02*
G37*
G36*
X196872Y413500D02*
X194539D01*
Y411401D01*
X196872D01*
Y413500D01*
D02*
G37*
G36*
X181744D02*
X179411D01*
Y411401D01*
X181744D01*
Y413500D01*
D02*
G37*
G36*
X145413Y417386D02*
X141244D01*
Y412614D01*
X145413D01*
X145413Y412614D01*
Y412614D01*
X145793Y412351D01*
X146004Y412140D01*
Y405596D01*
X143756D01*
Y408614D01*
X138244D01*
Y405596D01*
X135094D01*
Y406252D01*
X129583D01*
Y402315D01*
X135094D01*
Y402971D01*
X146906D01*
Y402315D01*
X152417D01*
Y406252D01*
X148629D01*
Y412684D01*
X148529Y413186D01*
X148245Y413612D01*
X145928Y415928D01*
X145502Y416213D01*
X145413Y416231D01*
Y417386D01*
D02*
G37*
G36*
X145461Y382099D02*
X143664D01*
Y380000D01*
X145461D01*
Y382099D01*
D02*
G37*
G36*
X142664D02*
X140867D01*
Y380000D01*
X142664D01*
Y382099D01*
D02*
G37*
G36*
X145461Y379000D02*
X143664D01*
Y376901D01*
X145461D01*
Y379000D01*
D02*
G37*
G36*
X142664D02*
X140867D01*
Y376901D01*
X142664D01*
Y379000D01*
D02*
G37*
G36*
X176047Y374650D02*
X170035D01*
Y371000D01*
X176047D01*
Y374650D01*
D02*
G37*
G36*
X169035D02*
X163024D01*
Y371000D01*
X169035D01*
Y374650D01*
D02*
G37*
G36*
X205664Y371500D02*
X203868D01*
Y369401D01*
X205664D01*
Y371500D01*
D02*
G37*
G36*
X169035Y370000D02*
X163024D01*
Y366350D01*
X169035D01*
Y370000D01*
D02*
G37*
G36*
X213465Y366374D02*
X211082D01*
Y363500D01*
X213465D01*
Y366374D01*
D02*
G37*
G36*
Y362500D02*
X211082D01*
Y359626D01*
X213465D01*
Y362500D01*
D02*
G37*
G36*
X165847Y348874D02*
X163465D01*
Y346000D01*
X165847D01*
Y348874D01*
D02*
G37*
G36*
X162465D02*
X160082D01*
Y346000D01*
X162465D01*
Y348874D01*
D02*
G37*
G36*
X165847Y345000D02*
X163465D01*
Y342126D01*
X165847D01*
Y345000D01*
D02*
G37*
G36*
X162465D02*
X160082D01*
Y342126D01*
X162465D01*
Y345000D01*
D02*
G37*
G36*
X147193Y346323D02*
X133807D01*
Y338449D01*
X147193D01*
Y346323D01*
D02*
G37*
G36*
X143469Y335906D02*
X132142D01*
Y333437D01*
X143469D01*
Y335906D01*
D02*
G37*
G36*
Y332437D02*
X132142D01*
Y329969D01*
X143469D01*
Y332437D01*
D02*
G37*
G36*
X168563Y333508D02*
X165000D01*
Y329902D01*
X168563D01*
Y333508D01*
D02*
G37*
G36*
X164000D02*
X160437D01*
Y329902D01*
X164000D01*
Y333508D01*
D02*
G37*
G36*
X262272Y330906D02*
X260000D01*
Y328831D01*
X262272D01*
Y330906D01*
D02*
G37*
G36*
X259000D02*
X256728D01*
Y328831D01*
X259000D01*
Y330906D01*
D02*
G37*
G36*
X262059Y327862D02*
X256941D01*
Y326813D01*
X222540D01*
X222038Y326713D01*
X221612Y326428D01*
X219756Y324572D01*
X193205D01*
Y325228D01*
X186906D01*
Y321291D01*
X193205D01*
Y321947D01*
X220300D01*
X220802Y322047D01*
X221228Y322332D01*
X223084Y324187D01*
X256941D01*
Y323138D01*
X262059D01*
Y327862D01*
D02*
G37*
G36*
X248020Y317453D02*
X248000D01*
Y314000D01*
X251453D01*
Y314020D01*
X251183Y315026D01*
X250663Y315927D01*
X249927Y316663D01*
X249026Y317183D01*
X248020Y317453D01*
D02*
G37*
G36*
X247000D02*
X246980D01*
X245974Y317183D01*
X245073Y316663D01*
X244337Y315927D01*
X243817Y315026D01*
X243547Y314020D01*
Y314000D01*
X247000D01*
Y317453D01*
D02*
G37*
G36*
X166099Y314461D02*
X164000D01*
Y312664D01*
X166099D01*
Y314461D01*
D02*
G37*
G36*
X163000D02*
X160901D01*
Y312664D01*
X163000D01*
Y314461D01*
D02*
G37*
G36*
X147193Y319551D02*
X133807D01*
Y311677D01*
X147193D01*
Y319551D01*
D02*
G37*
%LPD*%
G36*
X126587Y428370D02*
X127177Y427779D01*
X132689D01*
Y422661D01*
X125209D01*
Y429945D01*
X126587D01*
Y428370D01*
D02*
G37*
D12*
X386000Y299495D02*
X388000Y299505D01*
X385000Y487995D02*
X387000Y488005D01*
X384968Y305489D02*
X387000Y299500D01*
X388968Y305510D01*
X384032Y481989D02*
X386000Y488000D01*
X388032Y482011D01*
X386652Y365159D02*
X387000Y299500D01*
X386000Y488000D02*
X386348Y422341D01*
X386681Y489427D02*
X388319Y490574D01*
X379681Y499427D02*
X381319Y500573D01*
X387500Y490000D02*
X389302Y483938D01*
X387500Y490000D02*
X392579Y486232D01*
X375421Y503768D02*
X380500Y500000D01*
X378698Y506062D02*
X380500Y500000D01*
X387500Y490000D02*
X393235Y481808D01*
X374765Y508192D02*
X380500Y500000D01*
Y499000D02*
Y501000D01*
X120500Y499000D02*
Y501000D01*
X374500Y498000D02*
X380500Y500000D01*
X374500Y502000D02*
X380500Y500000D01*
X120500D02*
X126500Y498000D01*
X120500Y500000D02*
X126500Y502000D01*
X279091Y500000D02*
X380500D01*
X120500D02*
X221909D01*
X323500Y388500D02*
X335000D01*
X353400Y318836D02*
X360000D01*
X350736Y321500D02*
X353400Y318836D01*
X344000Y321500D02*
X350736D01*
X304800Y354402D02*
X311500D01*
X303202Y356000D02*
X304800Y354402D01*
X296500Y356000D02*
X303202D01*
X304500Y373500D02*
Y381400D01*
X303465Y382435D02*
X304500Y381400D01*
X303465Y382435D02*
Y390500D01*
X304800Y347598D02*
X311500D01*
X303202Y346000D02*
X304800Y347598D01*
X296500Y346000D02*
X303202D01*
X360000Y324164D02*
X361672D01*
X365200Y320500D02*
X366864Y318836D01*
X323260Y338900D02*
Y343472D01*
X319700Y335340D02*
X323260Y338900D01*
X319700Y319500D02*
Y335340D01*
Y319500D02*
X322000Y317200D01*
X326000D01*
X328800Y320000D01*
Y322500D01*
X343500Y337200D01*
Y348547D01*
X361535Y445500D02*
Y464500D01*
X358299Y442264D02*
X361535Y445500D01*
X355638Y442264D02*
X358299D01*
X326000Y347598D02*
X327000Y348598D01*
X311500Y347598D02*
X326000D01*
X319500Y478500D02*
X329800Y468200D01*
X361600D01*
X361535Y464500D02*
X361600D01*
X318236Y463600D02*
X319500Y464864D01*
Y478500D01*
X323260Y352528D02*
Y356200D01*
X330740D01*
Y352528D02*
Y356200D01*
X368500Y323700D02*
Y324164D01*
Y323700D02*
X373000Y319200D01*
Y317200D02*
Y319200D01*
X372000Y316200D02*
X373000Y317200D01*
X335900Y316200D02*
X372000D01*
X334000Y318100D02*
X335900Y316200D01*
X334000Y318100D02*
Y321500D01*
X355638Y440295D02*
X361400D01*
X363600Y442495D01*
Y450000D01*
X367600Y454000D01*
Y466500D01*
X333900Y474100D02*
X360000D01*
X329500Y478500D02*
X333900Y474100D01*
X310362Y442264D02*
X314000D01*
X317035Y445298D01*
Y448165D01*
X318236D02*
Y450138D01*
X369000Y415000D02*
X374100Y420100D01*
Y460000D01*
X367740Y350760D02*
X370500Y348000D01*
X366000Y350760D02*
X367740D01*
X363200Y353560D02*
X366000Y350760D01*
X363200Y353560D02*
Y354500D01*
X362200Y355500D02*
X363200Y354500D01*
X357500Y355500D02*
X362200D01*
X310362Y414705D02*
X314012D01*
Y411512D02*
Y414705D01*
X312600Y410100D02*
X314012Y411512D01*
X312600Y395700D02*
Y410100D01*
X310362Y420610D02*
X314210D01*
X314900Y421300D01*
X304800Y399300D02*
X311535Y392565D01*
Y390500D02*
Y392565D01*
X310362Y432421D02*
X326079D01*
X326200Y432300D01*
X335900D01*
X305864Y442264D02*
X310362D01*
X304100Y440500D02*
X305864Y442264D01*
X304100Y410000D02*
Y440500D01*
X301100Y407000D02*
X304100Y410000D01*
X293100Y407000D02*
X301100D01*
X288600Y402500D02*
X293100Y407000D01*
X288600Y397100D02*
Y402500D01*
Y397100D02*
X290000Y395700D01*
X294000D01*
X295900Y397600D01*
X291300Y398400D02*
X298249Y405349D01*
X302424D01*
X305900Y408825D01*
Y421500D01*
X306979Y422579D01*
X310362D01*
X350528Y389872D02*
X357000D01*
X348900Y391500D02*
X350528Y389872D01*
X343900Y391500D02*
X348900D01*
X342900Y392500D02*
X343900Y391500D01*
X342900Y392500D02*
Y400000D01*
X343827Y400927D01*
Y404862D01*
X321300Y424100D02*
X335935Y409465D01*
Y407035D02*
Y409465D01*
X335953Y404862D02*
Y407035D01*
X344500Y373500D02*
Y380400D01*
X346000Y381900D01*
Y388836D01*
X354500Y373500D02*
X357725Y376725D01*
X360791D01*
X365565Y381500D01*
Y396735D01*
X362335Y399965D02*
X365565Y396735D01*
X348998Y399965D02*
X362335D01*
X346000Y394164D02*
Y399436D01*
X299500Y464965D02*
X303200D01*
X313700Y475465D01*
Y480500D01*
X316000Y482800D01*
X325200D01*
X329500Y478500D01*
X341431Y461500D02*
X353465D01*
X336765Y466165D02*
X341431Y461500D01*
X327835Y466165D02*
X336765D01*
X320205Y458536D02*
X327835Y466165D01*
X320205Y450138D02*
Y458536D01*
X324142Y446442D02*
Y450138D01*
X323400Y445700D02*
X324142Y446442D01*
X350600Y448800D02*
Y454500D01*
X348400Y456700D02*
X350600Y454500D01*
X338000Y456700D02*
X348400D01*
X335953Y454653D02*
X338000Y456700D01*
X335953Y450138D02*
Y454653D01*
X339890Y401200D02*
Y404862D01*
X332500Y401200D02*
X339890D01*
X331600Y400300D02*
X332500Y401200D01*
X298900Y371900D02*
Y388872D01*
Y371900D02*
X304000Y366800D01*
X321100D01*
X329700Y358200D01*
X346000D01*
X348000Y356200D01*
Y347900D02*
Y356200D01*
Y347900D02*
X360000Y335900D01*
Y324164D02*
Y335900D01*
X354500Y365400D02*
Y373500D01*
X351000Y361900D02*
X354500Y365400D01*
X351000Y345300D02*
Y361900D01*
Y345300D02*
X352000Y344300D01*
X366800D01*
X370500Y348000D01*
Y338000D02*
X374800Y342300D01*
Y350500D01*
X373040Y352260D02*
X374800Y350500D01*
X367000Y352260D02*
X373040D01*
X364760Y354500D02*
X367000Y352260D01*
X364760Y354500D02*
Y357140D01*
X362000Y359900D02*
X364760Y357140D01*
X353100Y359900D02*
X362000D01*
X353100Y348696D02*
Y359900D01*
Y348696D02*
X357500D01*
X304500Y373500D02*
X308800Y377800D01*
X327500D01*
X328800Y376500D01*
Y372300D02*
Y376500D01*
Y372300D02*
X331840Y369260D01*
X347500D01*
X348740Y370500D01*
Y380640D01*
X354852Y386752D01*
X359900D01*
Y394128D01*
X357000D02*
X359900D01*
X370500Y378000D02*
Y394500D01*
X363535Y401465D02*
X370500Y394500D01*
X355935Y401465D02*
X363535D01*
X344284Y413116D02*
X355935Y401465D01*
X324500Y373500D02*
X330240Y367760D01*
X349000D01*
X350240Y369000D01*
Y379940D01*
X351700Y381400D01*
X360900D01*
X334335Y464665D02*
X335700Y463300D01*
X328765Y464665D02*
X334335D01*
X322173Y458073D02*
X328765Y464665D01*
X322173Y450138D02*
Y458073D01*
X360100Y374060D02*
X366260Y367900D01*
Y355500D02*
Y367900D01*
Y355500D02*
X368000Y353760D01*
X374000D01*
X376300Y351460D01*
Y334500D02*
Y351460D01*
X368500Y326700D02*
X376300Y334500D01*
X368500Y324164D02*
Y326700D01*
X294735Y473035D02*
X299500D01*
X292200Y470500D02*
X294735Y473035D01*
X292200Y454500D02*
Y470500D01*
Y454500D02*
X296500Y450200D01*
X318236Y450138D02*
Y450200D01*
X325372Y330600D02*
Y333500D01*
Y330600D02*
X332800D01*
Y342300D01*
X330740D02*
Y343472D01*
X296500Y339000D02*
Y346000D01*
Y339000D02*
X314000Y321500D01*
X324000D02*
Y326800D01*
X325372Y328172D01*
X347764Y401200D02*
Y404862D01*
X346000Y399436D02*
X347764Y401200D01*
X327000Y340400D02*
X329628Y337772D01*
Y333500D02*
Y337772D01*
X339853Y354453D02*
X343500D01*
X334200Y348800D02*
X339853Y354453D01*
X328000Y348800D02*
X334200D01*
X327000Y349800D02*
X328000Y348800D01*
X351900Y440295D02*
X355638D01*
X351900D02*
Y444200D01*
X353465Y445765D01*
X321386Y354402D02*
X323260Y352528D01*
X311500Y354402D02*
X321386D01*
X334500Y373500D02*
Y381000D01*
X335000Y381500D01*
Y388500D01*
X326110Y457810D02*
X330300Y462000D01*
X326110Y450138D02*
Y457810D01*
X337921Y404862D02*
Y409021D01*
X338600Y409700D01*
X334729Y398000D02*
X338100D01*
X329033D02*
X329398Y397635D01*
X319100Y391100D02*
Y398000D01*
X307500Y388300D02*
X309000Y386800D01*
X307500Y388300D02*
Y393500D01*
X306500Y394500D02*
X307500Y393500D01*
X334363Y397635D02*
X334729Y398000D01*
X329398Y397635D02*
X334363D01*
X319100Y398000D02*
X329033D01*
X314800Y386800D02*
X319100Y391100D01*
X309000Y386800D02*
X314800D01*
X296921Y394500D02*
X306500D01*
X296300Y393879D02*
X296921Y394500D01*
X333000Y417453D02*
X335935Y414518D01*
X333000Y417453D02*
Y417700D01*
X319700Y445500D02*
X322255Y442945D01*
X336335D01*
X339890Y446500D01*
Y450138D01*
X341200Y385000D02*
Y388500D01*
X338500Y391200D02*
X341200Y388500D01*
X324800Y391200D02*
X338500D01*
X323500Y392500D02*
X324800Y391200D01*
X323500Y392500D02*
Y393828D01*
X370500Y358000D02*
X376240Y363740D01*
Y404360D01*
X373400Y407200D02*
X376240Y404360D01*
X355100Y407200D02*
X373400D01*
X351827Y438327D02*
X355638D01*
X370500Y368000D02*
X374740Y372240D01*
Y397960D01*
X368000Y404700D02*
X374740Y397960D01*
X354821Y404700D02*
X368000D01*
X347764Y446300D02*
Y450138D01*
X328248Y434390D02*
X328858Y435000D01*
X310362Y434390D02*
X328248D01*
X320205Y404862D02*
Y413100D01*
X314900Y421300D02*
Y421747D01*
X319953Y426800D01*
X345795Y404862D02*
Y408205D01*
X330204Y393828D02*
X335000D01*
X327533Y396500D02*
X330204Y393828D01*
X320600Y396500D02*
X327533D01*
X320600Y389600D02*
Y396500D01*
X322173Y401200D02*
Y404862D01*
X315281Y394316D02*
Y398325D01*
X314000Y393035D02*
X315281Y394316D01*
X311535Y392565D02*
X314000Y393035D01*
X318157Y401200D02*
X322173D01*
X317484Y400527D02*
X318157Y401200D01*
X315512Y402500D02*
X317484Y400527D01*
X315512Y402500D02*
Y417088D01*
X313958Y418642D02*
X315512Y417088D01*
X310362Y418642D02*
X313958D01*
X335935Y407035D02*
X335953D01*
X335935Y409465D02*
Y414518D01*
X327000Y349800D02*
Y352528D01*
Y340400D02*
Y348598D01*
Y349800D01*
X308800Y377800D02*
X320600Y389600D01*
X353465Y445765D02*
Y461500D01*
Y464500D01*
X367600Y466500D02*
X374100Y460000D01*
X360000Y474100D02*
X367600Y466500D01*
X367000Y318836D02*
X368500D01*
X366864D02*
X367000D01*
X365200Y320500D02*
Y320636D01*
Y342700D01*
X366800Y344300D01*
X365200Y320636D02*
X367000Y318836D01*
X361672Y324164D02*
X365200Y320636D01*
X325372Y328172D02*
Y330600D01*
X315281Y398325D02*
X317484Y400527D01*
X318236Y450200D02*
Y463600D01*
X319953Y426800D02*
X334665D01*
X333813Y430453D02*
X344284Y419982D01*
X342784Y411216D02*
Y418682D01*
Y411216D02*
X345795Y408205D01*
X341284Y409092D02*
X341858Y408517D01*
X344284Y413116D02*
Y419982D01*
X339300Y418100D02*
X341284Y416116D01*
Y409092D02*
Y416116D01*
X334665Y426800D02*
X342784Y418682D01*
X341858Y404862D02*
Y408517D01*
X310362Y430453D02*
X333813D01*
X346000Y413521D02*
Y444536D01*
X343335Y424800D02*
Y424865D01*
X349000Y417800D02*
X351100Y415700D01*
X347500Y434000D02*
X351827Y438327D01*
X346000Y413521D02*
X354821Y404700D01*
X349586Y432421D02*
X355638D01*
X346000Y444536D02*
X347764Y446300D01*
X347500Y414800D02*
Y434000D01*
Y414800D02*
X355100Y407200D01*
X349000Y431835D02*
X349586Y432421D01*
X349000Y417800D02*
Y431835D01*
X335900Y432300D02*
X343335Y424865D01*
X355638Y426516D02*
X355728Y426425D01*
X358850D01*
X360062Y425213D02*
X362270D01*
X355638Y428484D02*
X360085D01*
X362270Y425213D02*
X363963Y426905D01*
X360085Y428484D02*
X360691Y427878D01*
X358850Y426425D02*
X360062Y425213D01*
X363963Y426905D02*
Y427693D01*
X360691Y427878D02*
X361166D01*
X363963Y427693D02*
X365690Y429420D01*
X355638Y430453D02*
X360478D01*
X361185Y431160D01*
X365690Y430956D02*
X369000Y434267D01*
Y435000D01*
X365690Y429420D02*
Y430956D01*
X361185Y431160D02*
Y431710D01*
X362591Y433115D02*
X362885D01*
X361185Y431710D02*
X362591Y433115D01*
X347764Y401200D02*
X348998Y399965D01*
X330740Y342300D02*
X332800D01*
X361600Y464500D02*
Y468200D01*
X300000Y399300D02*
X304800D01*
X295900Y397600D02*
X300000D01*
X317035Y448165D02*
X318236D01*
X296500Y450200D02*
X318236D01*
X376428Y454759D02*
X376500Y454831D01*
Y463500D01*
X228031Y471307D02*
X228122Y471217D01*
X249776Y455469D02*
X256000D01*
X256203Y455672D01*
X262500D01*
X143634Y305000D02*
X152600D01*
X154436Y306836D01*
X163500D01*
X132339Y404284D02*
X147316D01*
X230091Y471217D02*
Y475900D01*
X231336Y477145D01*
Y482000D01*
X215358Y388500D02*
Y393800D01*
X215169Y393989D02*
X215358Y393800D01*
X215169Y393989D02*
Y399350D01*
X223831Y405650D02*
Y409700D01*
X223142Y410389D02*
X223831Y409700D01*
X223142Y410389D02*
Y414500D01*
X199872Y385000D02*
Y391100D01*
X200664Y391892D01*
Y398000D01*
X132339Y356217D02*
X149661D01*
X188164Y398000D02*
Y400900D01*
X186300Y398000D02*
X188164D01*
X186300D02*
Y399500D01*
X166000Y401800D02*
Y404598D01*
X222035Y350465D02*
X231500Y341000D01*
X222035Y350465D02*
Y363000D01*
X185336Y345500D02*
Y352464D01*
X135100Y370784D02*
Y378500D01*
X136100Y379500D01*
X137836D01*
X159100Y404598D02*
X166000D01*
X149600Y395098D02*
X159100Y404598D01*
X246000Y463343D02*
X249776D01*
X241902Y467441D02*
X246000Y463343D01*
X181000Y330740D02*
X190664Y340404D01*
Y345500D01*
X233200Y317800D02*
X237500Y313500D01*
X201000Y317800D02*
X233200D01*
X192700Y309500D02*
X201000Y317800D01*
X136366Y309500D02*
X192700D01*
X135366Y308500D02*
X136366Y309500D01*
X135366Y305000D02*
Y308500D01*
X223142Y414500D02*
Y414900D01*
X217942Y420100D02*
X223142Y414900D01*
X212800Y420100D02*
X217942D01*
X210487Y422413D02*
X212800Y420100D01*
X177300Y324500D02*
X178540Y323260D01*
X177300Y324500D02*
Y329500D01*
X178540Y330740D01*
X181000D01*
X239500Y412535D02*
X241902D01*
X231500Y341000D02*
X238200Y334300D01*
X262300D01*
X263900Y335900D01*
Y358600D01*
X260000Y362500D02*
X263900Y358600D01*
X232059Y419200D02*
Y425941D01*
X171035Y345500D02*
Y360635D01*
X180900Y370500D01*
X186465D01*
X234500Y378164D02*
X236200D01*
Y376686D02*
X237386Y375500D01*
Y370300D02*
Y375500D01*
X237000Y369914D02*
X237386Y370300D01*
X237000Y337800D02*
Y369914D01*
Y337800D02*
X238700Y336100D01*
X261000D01*
X262400Y337500D01*
Y353860D01*
X258000Y358260D02*
X262400Y353860D01*
X255760Y358260D02*
X258000D01*
X255760D02*
Y366740D01*
X258000D01*
X260000Y368740D01*
Y372500D01*
X248170Y382500D02*
X260000D01*
X242000Y376330D02*
X248170Y382500D01*
X242000Y365500D02*
Y376330D01*
X260000Y362500D02*
X265740Y368240D01*
X262500Y418440D02*
X265740Y415200D01*
X262500Y418440D02*
Y433965D01*
X180200Y370500D02*
Y400900D01*
X200664Y398000D02*
Y400900D01*
X218280Y471217D02*
Y475820D01*
X216000Y478100D02*
X218280Y475820D01*
X204600Y478100D02*
X216000D01*
X202800Y479900D02*
X204600Y478100D01*
X195300Y479900D02*
X202800D01*
X195300Y472900D02*
Y479900D01*
Y472900D02*
X202700Y465500D01*
X207200D01*
X208200Y464500D01*
Y459406D02*
Y464500D01*
X222217Y467500D02*
Y471217D01*
X203858Y467500D02*
X222217D01*
X199000Y472358D02*
X203858Y467500D01*
X199000Y472358D02*
Y476366D01*
Y484634D02*
X204800D01*
X209834Y479600D01*
X218000D01*
X219164Y480764D01*
Y482500D01*
X207800Y473800D02*
X209800Y475800D01*
X213043D01*
X214343Y474500D01*
Y471217D02*
Y474500D01*
X231336Y482000D02*
X233000D01*
X234000Y483000D01*
Y484600D01*
X235000Y485600D01*
X246600D01*
X268400Y463800D01*
Y321600D02*
Y463800D01*
X255800Y309000D02*
X268400Y321600D01*
X212000Y309000D02*
X255800D01*
X207500Y313500D02*
X212000Y309000D01*
X150365Y322598D02*
X164500D01*
X147900Y325063D02*
X150365Y322598D01*
X131642Y325063D02*
X147900D01*
X190055Y330740D02*
X193300D01*
Y348500D01*
X188900D02*
X193300D01*
X188000Y347600D02*
X188900Y348500D01*
X188000Y342600D02*
Y347600D01*
X171035Y342600D02*
X188000D01*
X171035D02*
Y345500D01*
X262000Y406800D02*
X265740Y403060D01*
X255300Y406800D02*
X262000D01*
X242035Y393535D02*
X255300Y406800D01*
X239500Y393535D02*
X242035D01*
X217478Y375161D02*
X222035Y370604D01*
X214965Y375161D02*
Y377500D01*
X249776Y433815D02*
X250300D01*
X211500Y341000D02*
X217134Y346634D01*
Y366662D01*
X214996Y368800D02*
X217134Y366662D01*
X214188Y368800D02*
X214996D01*
X204488Y378500D02*
X214188Y368800D01*
X186836Y378500D02*
X204488D01*
X182836Y382500D02*
X186836Y378500D01*
X182836Y382500D02*
Y398000D01*
X212000Y399350D02*
X215169D01*
X208900Y402450D02*
X212000Y399350D01*
X200457Y437752D02*
X204500D01*
X197000Y434295D02*
X200457Y437752D01*
X197000Y432295D02*
Y434295D01*
Y432295D02*
X201628Y427667D01*
Y414000D02*
Y427667D01*
X186500Y406500D02*
Y414000D01*
Y406500D02*
X192100Y400900D01*
X188398Y466559D02*
X194368D01*
X196500Y454528D02*
X197528Y453500D01*
X204500D01*
X200729Y455469D02*
X204500D01*
X198300Y457898D02*
X200729Y455469D01*
X188398Y457898D02*
X198300D01*
X188398Y449236D02*
X192400D01*
X193536Y448100D01*
X198300D01*
X200700Y450500D01*
Y451532D01*
X204500D01*
X202000Y398000D02*
X206300Y402300D01*
X200664Y398000D02*
X202000D01*
X252760Y375260D02*
X260000Y382500D01*
X252760Y344000D02*
Y375260D01*
Y344000D02*
X256924Y339836D01*
X259500D01*
X190055Y323260D02*
X220300D01*
X222540Y325500D01*
X259500D01*
X147316Y404284D02*
X149661D01*
X145000Y415000D02*
X147316Y412684D01*
X143328Y415000D02*
X145000D01*
X249776Y441689D02*
X252611D01*
X254400Y439900D01*
Y438300D02*
Y439900D01*
X191800Y398000D02*
X195336D01*
X197821Y442700D02*
X200800Y439721D01*
X204500D01*
X218634Y343866D02*
X221500Y341000D01*
X218634Y343866D02*
Y368162D01*
X213135Y373661D02*
X218634Y368162D01*
X211539Y373661D02*
X213135D01*
X203100Y382100D02*
X211539Y373661D01*
X196736Y382100D02*
X203100D01*
X195336Y383500D02*
X196736Y382100D01*
X195336Y383500D02*
Y398000D01*
X259500Y345164D02*
Y351520D01*
X254260Y356760D02*
X259500Y351520D01*
X254260Y356760D02*
Y374500D01*
X256520Y376760D01*
X260500D01*
X264240Y380500D01*
Y385860D01*
X263200Y386900D02*
X264240Y385860D01*
X246400Y386900D02*
X263200D01*
X244400Y388900D02*
X246400Y386900D01*
X237200Y388900D02*
X244400D01*
X229300Y396800D02*
X237200Y388900D01*
X229300Y396800D02*
Y421509D01*
X230091Y422300D01*
Y425941D01*
X237965Y420463D02*
Y425941D01*
X233200Y415698D02*
X237965Y420463D01*
X233200Y404400D02*
Y415698D01*
X164500Y322598D02*
X173062Y323260D01*
X222035Y363000D02*
Y365500D01*
X230100D02*
X234500Y369900D01*
Y372836D01*
X196960Y330740D02*
X198700Y329000D01*
X188398Y453567D02*
X192900D01*
X196300Y451500D01*
X197000Y450800D01*
X262500Y433965D02*
X264400D01*
X266900Y436465D01*
Y462000D01*
X264221Y464679D02*
X266900Y462000D01*
X253557Y464679D02*
X264221D01*
X252221Y463343D02*
X253557Y464679D01*
X249776Y463343D02*
X252221D01*
X149661Y356217D02*
X153000Y359555D01*
Y386378D01*
X149661Y389717D02*
X153000Y386378D01*
X236664Y479902D02*
Y482000D01*
Y479902D02*
X241902Y474664D01*
Y471217D02*
Y474664D01*
X236200Y376686D02*
Y378164D01*
X185336Y352464D02*
X200836Y367964D01*
Y367200D02*
Y367964D01*
Y372000D01*
X147316Y404284D02*
Y412684D01*
X132339Y370784D02*
X135100D01*
X149661D01*
X250300Y413200D02*
Y433815D01*
X173062Y323260D02*
X178540D01*
X181000D01*
X180200Y370500D02*
X180900D01*
X193300Y330740D02*
X196960D01*
X132339Y389717D02*
X149600D01*
X149661D01*
X149600D02*
Y395098D01*
X184000Y401800D02*
X184900Y400900D01*
X186300Y399500D01*
X166000Y401800D02*
X184000D01*
X180200Y400900D02*
X184900D01*
X188164D01*
X192100D02*
X200664D01*
X188164D02*
X192100D01*
X222035Y365500D02*
X230100D01*
X214965Y375161D02*
X217478D01*
X206300Y402300D02*
Y433815D01*
X222035Y365500D02*
Y370604D01*
X265740Y368240D02*
Y403060D01*
Y415200D01*
X204500Y459406D02*
X208200D01*
X204500Y433815D02*
X206300D01*
X241902Y412535D02*
Y425941D01*
Y467441D01*
Y471217D01*
X210487Y428827D02*
X212475Y430815D01*
X216157D01*
X215535Y432315D02*
X232059Y448839D01*
X208900Y429362D02*
X211853Y432315D01*
X206300Y433815D02*
X214914D01*
X211853Y432315D02*
X215535D01*
X215500Y434401D02*
Y458820D01*
X234028Y448686D02*
Y471217D01*
X208200Y459406D02*
X214914D01*
Y433815D02*
X215500Y434401D01*
X214914Y459406D02*
X215500Y458820D01*
X216157Y430815D02*
X234028Y448686D01*
X210487Y422413D02*
Y428827D01*
X232059Y448839D02*
Y471217D01*
X208900Y402450D02*
Y429362D01*
D13*
X311500Y354402D02*
D03*
Y347598D02*
D03*
X357500Y355500D02*
D03*
Y348696D02*
D03*
X164500Y329402D02*
D03*
Y322598D02*
D03*
X166000Y411402D02*
D03*
Y404598D02*
D03*
D14*
X310362Y442264D02*
D03*
Y440295D02*
D03*
Y438327D02*
D03*
Y436358D02*
D03*
Y434390D02*
D03*
Y432421D02*
D03*
Y430453D02*
D03*
Y428484D02*
D03*
Y426516D02*
D03*
Y424547D02*
D03*
Y422579D02*
D03*
Y420610D02*
D03*
Y418642D02*
D03*
Y416673D02*
D03*
Y414705D02*
D03*
Y412736D02*
D03*
X355638D02*
D03*
Y414705D02*
D03*
Y416673D02*
D03*
Y418642D02*
D03*
Y420610D02*
D03*
Y422579D02*
D03*
Y424547D02*
D03*
Y426516D02*
D03*
Y428484D02*
D03*
Y430453D02*
D03*
Y432421D02*
D03*
Y434390D02*
D03*
Y436358D02*
D03*
Y438327D02*
D03*
Y440295D02*
D03*
Y442264D02*
D03*
D15*
X318236Y404862D02*
D03*
X320205D02*
D03*
X322173D02*
D03*
X324142D02*
D03*
X326110D02*
D03*
X328079D02*
D03*
X330047D02*
D03*
X332016D02*
D03*
X333984D02*
D03*
X335953D02*
D03*
X337921D02*
D03*
X339890D02*
D03*
X341858D02*
D03*
X343827D02*
D03*
X345795D02*
D03*
X347764D02*
D03*
Y450138D02*
D03*
X345795D02*
D03*
X343827D02*
D03*
X341858D02*
D03*
X339890D02*
D03*
X337921D02*
D03*
X335953D02*
D03*
X333984D02*
D03*
X332016D02*
D03*
X330047D02*
D03*
X328079D02*
D03*
X326110D02*
D03*
X324142D02*
D03*
X322173D02*
D03*
X320205D02*
D03*
X318236D02*
D03*
D16*
X357000Y394128D02*
D03*
Y389872D02*
D03*
D17*
X343500Y354453D02*
D03*
Y348547D02*
D03*
X259500Y325500D02*
D03*
Y331406D02*
D03*
D18*
X330740Y343472D02*
D03*
X323260D02*
D03*
Y352528D02*
D03*
X327000D02*
D03*
X330740D02*
D03*
D19*
X368500Y318836D02*
D03*
Y324164D02*
D03*
X360000D02*
D03*
Y318836D02*
D03*
X346000Y394164D02*
D03*
Y388836D02*
D03*
X335000Y393828D02*
D03*
Y388500D02*
D03*
X323500Y393828D02*
D03*
Y388500D02*
D03*
X262500Y455672D02*
D03*
Y461000D02*
D03*
X163500Y306836D02*
D03*
Y312164D02*
D03*
X234500Y372836D02*
D03*
Y378164D02*
D03*
X242000Y360172D02*
D03*
Y365500D02*
D03*
X259500Y345164D02*
D03*
Y339836D02*
D03*
D20*
X299500Y473035D02*
D03*
Y464965D02*
D03*
X239500Y385465D02*
D03*
Y393535D02*
D03*
Y412535D02*
D03*
Y404465D02*
D03*
X262500Y442035D02*
D03*
Y433965D02*
D03*
D21*
X329628Y333500D02*
D03*
X325372D02*
D03*
X201628Y414000D02*
D03*
X197372D02*
D03*
X186500D02*
D03*
X182244D02*
D03*
X199872Y385000D02*
D03*
X204128D02*
D03*
D22*
X353465Y464500D02*
D03*
X361535D02*
D03*
X303465Y390500D02*
D03*
X311535D02*
D03*
X214965Y377500D02*
D03*
X223035D02*
D03*
X171035Y345500D02*
D03*
X162965D02*
D03*
X213965Y363000D02*
D03*
X222035D02*
D03*
D23*
X223142Y414500D02*
D03*
X215858D02*
D03*
X215358Y388500D02*
D03*
X222642D02*
D03*
D24*
X131642Y325063D02*
D03*
Y332937D02*
D03*
D25*
X140500Y342386D02*
D03*
Y315614D02*
D03*
D26*
X188398Y440575D02*
D03*
Y444906D02*
D03*
Y449236D02*
D03*
Y453567D02*
D03*
Y457898D02*
D03*
Y462228D02*
D03*
Y466559D02*
D03*
Y470890D02*
D03*
Y474630D02*
D03*
D27*
X147059Y478370D02*
D03*
D28*
X188398Y434472D02*
D03*
X171469Y478370D02*
D03*
D29*
X130720D02*
D03*
D30*
X129988Y425165D02*
D03*
D31*
X249776Y463343D02*
D03*
Y461374D02*
D03*
Y459406D02*
D03*
Y457437D02*
D03*
Y455469D02*
D03*
Y453500D02*
D03*
Y451532D02*
D03*
Y449563D02*
D03*
Y447595D02*
D03*
Y445626D02*
D03*
Y443658D02*
D03*
Y441689D02*
D03*
Y439721D02*
D03*
Y437752D02*
D03*
Y435784D02*
D03*
Y433815D02*
D03*
X204500D02*
D03*
Y435784D02*
D03*
Y437752D02*
D03*
Y439721D02*
D03*
Y441689D02*
D03*
Y443658D02*
D03*
Y445626D02*
D03*
Y447595D02*
D03*
Y449563D02*
D03*
Y451532D02*
D03*
Y453500D02*
D03*
Y455469D02*
D03*
Y457437D02*
D03*
Y459406D02*
D03*
Y461374D02*
D03*
Y463343D02*
D03*
D32*
X241902Y425941D02*
D03*
X239933D02*
D03*
X237965D02*
D03*
X235996D02*
D03*
X234028D02*
D03*
X232059D02*
D03*
X230091D02*
D03*
X228122D02*
D03*
X226154D02*
D03*
X224185D02*
D03*
X222217D02*
D03*
X220248D02*
D03*
X218280D02*
D03*
X216311D02*
D03*
X214343D02*
D03*
X212374D02*
D03*
Y471217D02*
D03*
X214343D02*
D03*
X216311D02*
D03*
X218280D02*
D03*
X220248D02*
D03*
X222217D02*
D03*
X224185D02*
D03*
X226154D02*
D03*
X228122D02*
D03*
X230091D02*
D03*
X232059D02*
D03*
X234028D02*
D03*
X235996D02*
D03*
X237965D02*
D03*
X239933D02*
D03*
X241902D02*
D03*
D33*
X223831Y399350D02*
D03*
X215169D02*
D03*
Y405650D02*
D03*
X223831D02*
D03*
D34*
X149661Y370784D02*
D03*
Y356217D02*
D03*
X132339Y370784D02*
D03*
Y356217D02*
D03*
Y389717D02*
D03*
Y404284D02*
D03*
X149661Y389717D02*
D03*
Y404284D02*
D03*
D35*
X141000Y373441D02*
D03*
Y353559D02*
D03*
Y387059D02*
D03*
Y406941D02*
D03*
D36*
X231336Y482000D02*
D03*
X236664D02*
D03*
X137836Y379500D02*
D03*
X143164D02*
D03*
X143328Y415000D02*
D03*
X138000D02*
D03*
X200836Y372000D02*
D03*
X206164D02*
D03*
X190664Y345500D02*
D03*
X185336D02*
D03*
X219164Y482500D02*
D03*
X213836D02*
D03*
X195336Y398000D02*
D03*
X200664D02*
D03*
X182836D02*
D03*
X188164D02*
D03*
D37*
X143634Y305000D02*
D03*
X135366D02*
D03*
D38*
X181000Y330740D02*
D03*
Y327000D02*
D03*
Y323260D02*
D03*
X190055D02*
D03*
Y330740D02*
D03*
D39*
X199000Y484634D02*
D03*
Y476366D02*
D03*
D40*
X169535Y370500D02*
D03*
X186465D02*
D03*
D55*
X382771Y418323D02*
X388769Y418355D01*
X385754Y421338D01*
X385775Y417339D01*
X388785Y415356D02*
X388806Y411357D01*
X387806Y411352D01*
X383786Y415329D01*
X382786Y415324D01*
X382818Y409326D02*
X383818Y409331D01*
X383823Y408331D01*
X382824Y408326D01*
X382818Y409326D01*
X387843Y404354D02*
X388848Y403360D01*
X388859Y401360D01*
X387864Y400355D01*
X386865Y400350D01*
X385860Y401344D01*
X384865Y400340D01*
X383866Y400334D01*
X382861Y401329D01*
X382850Y403328D01*
X383844Y404333D01*
X384844Y404338D01*
X385849Y403344D01*
X386843Y404349D01*
X387843Y404354D01*
X385849Y403344D02*
X385860Y401344D01*
X387875Y398356D02*
X388880Y397362D01*
X388891Y395362D01*
X387896Y394357D01*
X386896Y394352D01*
X385892Y395346D01*
X384897Y394341D01*
X383897Y394336D01*
X382892Y395331D01*
X382882Y397330D01*
X383876Y398335D01*
X384876Y398340D01*
X385881Y397346D01*
X386875Y398351D01*
X387875Y398356D01*
X385881Y397346D02*
X385892Y395346D01*
X382951Y384334D02*
X384940Y386344D01*
X386939Y386355D01*
X388949Y384366D01*
X382967Y381335D02*
X386965Y381357D01*
X386971Y380357D01*
X385976Y379352D01*
X382977Y379336D01*
X385976Y379352D01*
X386981Y378358D01*
X385987Y377353D01*
X382988Y377337D01*
X382999Y375337D02*
X386997Y375359D01*
X387003Y374359D01*
X386008Y373354D01*
X383009Y373338D01*
X386008Y373354D01*
X387013Y372359D01*
X386019Y371355D01*
X383020Y371339D01*
X383030Y369339D02*
X385040Y367351D01*
X387040Y367361D01*
X389028Y369371D01*
X364205Y506891D02*
X365597Y506645D01*
X366744Y505008D01*
X366498Y503615D01*
X365679Y503042D01*
X364287Y503288D01*
X363713Y504107D01*
X364287Y503288D01*
X364041Y501895D01*
X363222Y501322D01*
X361830Y501568D01*
X360683Y503206D01*
X360929Y504598D01*
X363550Y499111D02*
X364369Y499684D01*
X364942Y498865D01*
X364123Y498292D01*
X363550Y499111D01*
X366416Y495016D02*
X367563Y493378D01*
X366989Y494197D01*
X371903Y497637D01*
X370511Y497883D01*
X373869Y484370D02*
X374360Y487154D01*
X375998Y488301D01*
X378782Y487809D01*
X375588Y481913D02*
X378864Y484206D01*
X379438Y483387D01*
X379192Y481994D01*
X376735Y480275D01*
X379192Y481994D01*
X380584Y481749D01*
X380339Y480357D01*
X377882Y478637D01*
X379028Y476999D02*
X382304Y479292D01*
X382877Y478473D01*
X382632Y477081D01*
X380175Y475361D01*
X382632Y477081D01*
X384024Y476835D01*
X383778Y475443D01*
X381321Y473723D01*
X382468Y472085D02*
X385252Y471594D01*
X386890Y472740D01*
X387382Y475525D01*
X226907Y502399D02*
X224908Y501399D01*
X222909Y499400D01*
Y497401D01*
X223908Y496401D01*
X225908D01*
X226907Y497401D01*
Y498400D01*
X225908Y499400D01*
X222909D01*
X232906Y502399D02*
X230906Y501399D01*
X228907Y499400D01*
Y497401D01*
X229907Y496401D01*
X231906D01*
X232906Y497401D01*
Y498400D01*
X231906Y499400D01*
X228907D01*
X234905Y496401D02*
Y497401D01*
X235905D01*
Y496401D01*
X234905D01*
X239903Y501399D02*
X240903Y502399D01*
X242902D01*
X243902Y501399D01*
Y497401D01*
X242902Y496401D01*
X240903D01*
X239903Y497401D01*
Y501399D01*
X248900Y496401D02*
Y502399D01*
X245901Y499400D01*
X249900D01*
X259897Y496401D02*
X257897Y498400D01*
Y500400D01*
X259897Y502399D01*
X262896Y496401D02*
Y500400D01*
X263896D01*
X264895Y499400D01*
Y496401D01*
Y499400D01*
X265895Y500400D01*
X266895Y499400D01*
Y496401D01*
X268894D02*
Y500400D01*
X269894D01*
X270893Y499400D01*
Y496401D01*
Y499400D01*
X271893Y500400D01*
X272893Y499400D01*
Y496401D01*
X274892D02*
X276891Y498400D01*
Y500400D01*
X274892Y502399D01*
D56*
X296500Y346000D02*
D03*
X370500Y378000D02*
D03*
X260000Y362500D02*
D03*
D57*
X296500Y356000D02*
D03*
X314000Y321500D02*
D03*
X324000D02*
D03*
X334000D02*
D03*
X370500Y338000D02*
D03*
Y348000D02*
D03*
Y358000D02*
D03*
Y368000D02*
D03*
X304500Y373500D02*
D03*
X314500D02*
D03*
X324500D02*
D03*
X334500D02*
D03*
X344500D02*
D03*
X369500Y478500D02*
D03*
X359500D02*
D03*
X349500D02*
D03*
X339500D02*
D03*
X329500D02*
D03*
X217500Y313500D02*
D03*
X227500D02*
D03*
X237500D02*
D03*
X247500D02*
D03*
X241500Y341000D02*
D03*
X231500D02*
D03*
X221500D02*
D03*
X260000Y412500D02*
D03*
Y402500D02*
D03*
Y392500D02*
D03*
Y382500D02*
D03*
Y372500D02*
D03*
D58*
X344000Y321500D02*
D03*
X354500Y373500D02*
D03*
X319500Y478500D02*
D03*
X207500Y313500D02*
D03*
X211500Y341000D02*
D03*
D59*
X369000Y415000D02*
D03*
Y425000D02*
D03*
X299000Y445000D02*
D03*
Y435000D02*
D03*
X369000Y445000D02*
D03*
X299000Y425000D02*
D03*
X369000Y435000D02*
D03*
X299000Y415000D02*
D03*
D60*
X369000D02*
D03*
Y445000D02*
D03*
Y435000D02*
D03*
Y425000D02*
D03*
X299000Y445000D02*
D03*
Y435000D02*
D03*
Y425000D02*
D03*
Y415000D02*
D03*
D61*
X298500Y311500D02*
D03*
D62*
X333000Y309000D02*
D03*
X370000Y308500D02*
D03*
D63*
X270000Y311500D02*
D03*
X268500Y477000D02*
D03*
D64*
X312600Y395700D02*
D03*
X314900Y421300D02*
D03*
X300000Y399300D02*
D03*
Y397600D02*
D03*
X291300Y398400D02*
D03*
X320205Y413100D02*
D03*
X321300Y424100D02*
D03*
X323400Y445700D02*
D03*
X350600Y448800D02*
D03*
X331600Y400300D02*
D03*
X298900Y388872D02*
D03*
X360900Y381400D02*
D03*
X351100Y415700D02*
D03*
X335700Y463300D02*
D03*
X339300Y418100D02*
D03*
X360100Y374060D02*
D03*
X330300Y462000D02*
D03*
X338600Y409700D02*
D03*
X338100Y398000D02*
D03*
X296300Y393879D02*
D03*
X333000Y417700D02*
D03*
X319700Y445500D02*
D03*
X341200Y385000D02*
D03*
X328858Y435000D02*
D03*
X343335Y424800D02*
D03*
X361166Y427878D02*
D03*
X362885Y433115D02*
D03*
X232059Y419200D02*
D03*
X200836Y367200D02*
D03*
X207800Y473800D02*
D03*
X250300Y413200D02*
D03*
X194368Y466559D02*
D03*
X196500Y454528D02*
D03*
X254400Y438300D02*
D03*
X191800Y398000D02*
D03*
X197821Y442700D02*
D03*
X233200Y404400D02*
D03*
X198700Y329000D02*
D03*
X197000Y450800D02*
D03*
X163000Y430500D02*
D03*
X129000Y425500D02*
D03*
X212500Y450000D02*
D03*
Y445000D02*
D03*
Y440500D02*
D03*
X182000Y356500D02*
D03*
X222000Y330000D02*
D03*
X274500Y401000D02*
D03*
X237000Y445000D02*
D03*
X160000Y382000D02*
D03*
X155000Y315000D02*
D03*
X181500Y304500D02*
D03*
D03*
M02*
