G04*
G04 #@! TF.GenerationSoftware,Altium Limited,Altium Designer,22.4.2 (48)*
G04*
G04 Layer_Color=128*
%FSLAX25Y25*%
%MOIN*%
G70*
G04*
G04 #@! TF.SameCoordinates,BE1E711C-C8E7-489F-BFDC-0012772F392D*
G04*
G04*
G04 #@! TF.FilePolarity,Positive*
G04*
G01*
G75*
%ADD16R,0.03197X0.03666*%
%ADD19R,0.03197X0.02593*%
%ADD20R,0.04749X0.03765*%
%ADD22R,0.03765X0.04749*%
%ADD23R,0.02977X0.04355*%
%ADD33R,0.05512X0.04528*%
%ADD36R,0.02593X0.03197*%
%ADD39R,0.04724X0.04331*%
%ADD65R,0.06299X0.11024*%
D16*
X303500Y388872D02*
D03*
Y393128D02*
D03*
D19*
X346000Y349336D02*
D03*
Y354664D02*
D03*
X329000Y388000D02*
D03*
Y393328D02*
D03*
X317500Y388000D02*
D03*
Y393328D02*
D03*
X323500Y354664D02*
D03*
Y349336D02*
D03*
X340000Y388500D02*
D03*
Y393828D02*
D03*
X351500Y389000D02*
D03*
Y394328D02*
D03*
D20*
X357500Y348429D02*
D03*
Y356500D02*
D03*
X348000Y431035D02*
D03*
Y422965D02*
D03*
D22*
X352965Y455500D02*
D03*
X361035D02*
D03*
D23*
X336142Y440000D02*
D03*
X328858D02*
D03*
X329358Y414000D02*
D03*
X336642D02*
D03*
D33*
X327669Y430150D02*
D03*
X336331D02*
D03*
Y423850D02*
D03*
X327669D02*
D03*
D36*
X325664Y462000D02*
D03*
X320336D02*
D03*
X363836Y392500D02*
D03*
X369164D02*
D03*
X316164Y427000D02*
D03*
X310836D02*
D03*
X341164Y457500D02*
D03*
X335836D02*
D03*
D39*
X334500Y349366D02*
D03*
Y357634D02*
D03*
X313000Y347732D02*
D03*
Y356000D02*
D03*
D65*
X298000Y461071D02*
D03*
Y478000D02*
D03*
M02*
