M48
;Layer_Color=9474304
;FILE_FORMAT=2:4
INCH,TZ
;TYPE=PLATED
T1F00S00C0.0157
T2F00S00C0.0354
T3F00S00C0.0500
T4F00S00C0.0827
T5F00S00C0.1220
%
T01
X18150Y30450
X15500Y31500
X12900Y42550
X16300Y43050
X19782Y44270
X19700Y45080
X19650Y45453
X19437Y46656
X21250Y45000
Y44500
Y44050
X23700Y44500
X25440Y43830
X25030Y41320
X23206Y41920
X23320Y40440
X27450Y40100
X29130Y39840
X30000Y39760
Y39930
X29630Y39388
X29890Y38887
X19180Y39800
X20084Y36720
X18200Y35650
X19870Y32900
X22200Y33000
X16000Y38200
X31260Y39570
X33160Y40030
X33810Y39800
X33860Y40970
X33930Y41810
X33300Y41770
X32020Y41310
X32130Y42410
X31490Y42130
X32886Y43500
X32340Y44570
X31970Y44550
X33030Y46200
X33570Y46330
X35060Y44880
X36288Y43312
X36117Y42788
X34333Y42480
X35110Y41570
X34120Y38500
X36090Y38140
X36010Y37406
X20780Y47380
T02
X20750Y31350
X21750
X22750
X23750
X24750
X24150Y34100
X23150
X22150
X21150
X26000Y36250
Y37250
Y38250
Y39250
Y40250
Y41250
X30450Y37350
X29650Y35600
Y34600
X31400Y32150
X32400
X33400
X34400
X37050Y33800
Y34800
Y35800
Y36800
Y37800
X35450Y37350
X34450
X33450
X32450
X31450
X31950Y47850
X32950
X33950
X34950
X35950
X36950
T03
X29900Y41500
Y42500
Y43500
Y44500
X36900
Y43500
Y42500
Y41500
T04
X33300Y30900
X37000Y30850
T05
X27000Y31150
X29850
X26850Y47700
M30
