G04*
G04 #@! TF.GenerationSoftware,Altium Limited,Altium Designer,22.4.2 (48)*
G04*
G04 Layer_Color=65535*
%FSLAX25Y25*%
%MOIN*%
G70*
G04*
G04 #@! TF.SameCoordinates,BE1E711C-C8E7-489F-BFDC-0012772F392D*
G04*
G04*
G04 #@! TF.FilePolarity,Positive*
G04*
G01*
G75*
%ADD10C,0.00984*%
%ADD11C,0.00787*%
%ADD12C,0.01000*%
D10*
X306327Y442264D02*
X305589Y442690D01*
Y441838D01*
X306327Y442264D01*
X331232Y357154D02*
X330494Y357580D01*
Y356727D01*
X331232Y357154D01*
X128394Y337465D02*
X127655Y337891D01*
Y337038D01*
X128394Y337465D01*
X193811Y440575D02*
X193073Y441001D01*
Y440149D01*
X193811Y440575D01*
X242394Y475744D02*
X241655Y476170D01*
Y475318D01*
X242394Y475744D01*
X229244Y405650D02*
X228506Y406076D01*
Y405223D01*
X229244Y405650D01*
X133323Y350705D02*
X132585Y351131D01*
Y350278D01*
X133323Y350705D01*
Y384205D02*
X132585Y384631D01*
Y383779D01*
X133323Y384205D01*
X176866Y330740D02*
X176128Y331166D01*
Y330314D01*
X176866Y330740D01*
X162350Y370500D02*
X161612Y370926D01*
Y370074D01*
X162350Y370500D01*
D11*
X306862Y344492D02*
Y357508D01*
X316138Y344492D02*
Y357508D01*
X352862Y345590D02*
Y358606D01*
X362138Y345590D02*
Y358606D01*
X291500Y361000D02*
X301500D01*
Y341000D02*
Y361000D01*
X291500Y341000D02*
X301500D01*
X291500D02*
Y361000D01*
X312921Y447579D02*
X316169D01*
X349831D02*
X353079D01*
Y407421D02*
Y410669D01*
Y444331D02*
Y447579D01*
X312921Y407421D02*
X316169D01*
X349831D02*
X353079D01*
X312921D02*
Y410669D01*
Y444331D02*
Y447579D01*
X353654Y388039D02*
Y395961D01*
X360346Y388039D02*
Y395961D01*
X349000Y316500D02*
Y326500D01*
X309000Y316500D02*
X349000D01*
X309000Y326500D02*
X349000D01*
X309000Y316500D02*
Y326500D01*
X346846Y348154D02*
Y354846D01*
X340154Y348154D02*
Y354846D01*
X321193Y347311D02*
Y348689D01*
X325917Y344850D02*
X328083D01*
X332807Y347311D02*
Y348689D01*
X371846Y317539D02*
Y325461D01*
X365154Y317539D02*
Y325461D01*
X356654Y317539D02*
Y325461D01*
X363346Y317539D02*
Y325461D01*
X297126Y468028D02*
Y469972D01*
X301874Y468028D02*
Y469972D01*
X323539Y336846D02*
X331461D01*
X323539Y330154D02*
X331461D01*
X356528Y462126D02*
X358472D01*
X356528Y466874D02*
X358472D01*
X306528Y388126D02*
X308472D01*
X306528Y392874D02*
X308472D01*
X365500Y383000D02*
X375500D01*
Y333000D02*
Y383000D01*
X365500Y333000D02*
Y383000D01*
Y333000D02*
X375500D01*
X299500Y378500D02*
X359500D01*
X299500Y368500D02*
X359500D01*
Y378500D01*
X299500Y368500D02*
Y378500D01*
X342654Y387539D02*
Y395461D01*
X349346Y387539D02*
Y395461D01*
X331654Y387203D02*
Y395125D01*
X338346Y387203D02*
Y395125D01*
X320154Y387203D02*
Y395125D01*
X326846Y387203D02*
Y395125D01*
X314500Y473500D02*
X374500D01*
X314500Y483500D02*
X374500D01*
X314500Y473500D02*
Y483500D01*
X374500Y473500D02*
Y483500D01*
X159862Y319492D02*
Y332508D01*
X169138Y319492D02*
Y332508D01*
X161362Y401492D02*
Y414508D01*
X170638Y401492D02*
Y414508D01*
X218528Y416678D02*
X220472D01*
X218528Y412322D02*
X220472D01*
X218028Y386322D02*
X219972D01*
X218028Y390678D02*
X219972D01*
X147587Y345339D02*
X150736D01*
X130264D02*
X133413D01*
X130264Y312661D02*
X133413D01*
X147587D02*
X150736D01*
Y345339D01*
X130264Y312661D02*
Y321913D01*
Y336087D02*
Y345339D01*
X189185Y478075D02*
Y479157D01*
Y423843D02*
Y431028D01*
X134165Y423843D02*
X189185D01*
X124815Y431421D02*
Y474925D01*
X137709Y479157D02*
X144008D01*
X150110D02*
X167630D01*
X175307D02*
X189185D01*
X252500Y308500D02*
Y318500D01*
X202500Y308500D02*
X252500D01*
X202500Y318500D02*
X252500D01*
X202500Y308500D02*
Y318500D01*
X243969Y468658D02*
X247217D01*
X207059D02*
X210307D01*
X207059Y428500D02*
Y431748D01*
Y465410D02*
Y468658D01*
X243969Y428500D02*
X247217D01*
X207059D02*
X210307D01*
X247217D02*
Y431748D01*
Y465410D02*
Y468658D01*
X195539Y417346D02*
X203461D01*
X195539Y410654D02*
X203461D01*
X241874Y388528D02*
Y390472D01*
X237126Y388528D02*
Y390472D01*
X130961Y353461D02*
X137555D01*
X144445D02*
X151039D01*
Y373441D02*
Y373539D01*
Y358874D02*
Y368126D01*
Y353461D02*
Y353559D01*
X130961Y373539D02*
X137555D01*
X144445D02*
X151039D01*
X130961Y373441D02*
Y373539D01*
Y358874D02*
Y368126D01*
Y353461D02*
Y353559D01*
Y386961D02*
Y387059D01*
Y392374D02*
Y401626D01*
Y406941D02*
Y407039D01*
X144445D02*
X151039D01*
X130961D02*
X137555D01*
X151039Y386961D02*
Y387059D01*
Y392374D02*
Y401626D01*
Y406941D02*
Y407039D01*
X144445Y386961D02*
X151039D01*
X130961D02*
X137555D01*
X206500Y336000D02*
Y346000D01*
X246500D01*
X206500Y336000D02*
X246500D01*
Y346000D01*
X265846Y454375D02*
Y462297D01*
X259154Y454375D02*
Y462297D01*
X230039Y478654D02*
X237961D01*
X230039Y485346D02*
X237961D01*
X136539Y376154D02*
X144461D01*
X136539Y382846D02*
X144461D01*
X136703Y418346D02*
X144625D01*
X136703Y411654D02*
X144625D01*
X166846Y305539D02*
Y313461D01*
X160154Y305539D02*
Y313461D01*
X256154Y325106D02*
Y331799D01*
X262846Y325106D02*
Y331799D01*
X138909Y303032D02*
X140091D01*
X138909Y306969D02*
X140091D01*
Y303032D02*
Y306969D01*
X184839Y332807D02*
X186217D01*
X188677Y325917D02*
Y328083D01*
X184839Y321193D02*
X186217D01*
X199539Y368654D02*
X207461D01*
X199539Y375346D02*
X207461D01*
X184039Y348846D02*
X191961D01*
X184039Y342154D02*
X191961D01*
X200969Y479909D02*
Y481091D01*
X197031Y479909D02*
Y481091D01*
X200969D01*
X212539Y485846D02*
X220461D01*
X212539Y479154D02*
X220461D01*
X194039Y394654D02*
X201961D01*
X194039Y401346D02*
X201961D01*
X181539Y394654D02*
X189461D01*
X181539Y401346D02*
X189461D01*
X180411Y417346D02*
X188333D01*
X180411Y410654D02*
X188333D01*
X198039Y381654D02*
X205961D01*
X198039Y388346D02*
X205961D01*
X218028Y375126D02*
X219972D01*
X218028Y379874D02*
X219972D01*
X237126Y407528D02*
Y409472D01*
X241874Y407528D02*
Y409472D01*
X260126Y437028D02*
Y438972D01*
X264874Y437028D02*
Y438972D01*
X166028Y347874D02*
X167972D01*
X166028Y343126D02*
X167972D01*
X265000Y357500D02*
Y417500D01*
X255000Y357500D02*
Y417500D01*
Y357500D02*
X265000D01*
X255000Y417500D02*
X265000D01*
X237846Y371539D02*
Y379461D01*
X231154Y371539D02*
Y379461D01*
X245346Y358875D02*
Y366797D01*
X238654Y358875D02*
Y366797D01*
X256154Y338539D02*
Y346461D01*
X262846Y338539D02*
Y346461D01*
X217028Y360626D02*
X218972D01*
X217028Y365374D02*
X218972D01*
X167173Y359673D02*
Y365874D01*
Y375126D02*
Y381327D01*
X184890D01*
X167173Y359673D02*
X184890D01*
X188827Y375126D02*
Y377390D01*
Y363610D02*
Y365874D01*
X184890Y381327D02*
X188827Y377390D01*
X184890Y359673D02*
X188827Y363610D01*
X311051Y337800D02*
X312100D01*
X311051Y338849D01*
Y339112D01*
X311313Y339374D01*
X311838D01*
X312100Y339112D01*
X309476Y337800D02*
X310526D01*
X309476Y338849D01*
Y339112D01*
X309739Y339374D01*
X310263D01*
X310526Y339112D01*
X308951Y338849D02*
Y338062D01*
X308689Y337800D01*
X307902D01*
Y338849D01*
X307115Y337800D02*
Y339112D01*
Y338587D01*
X307377D01*
X306852D01*
X307115D01*
Y339112D01*
X306852Y339374D01*
X315694Y364512D02*
X315956Y364774D01*
X316481D01*
X316743Y364512D01*
Y363462D01*
X316481Y363200D01*
X315956D01*
X315694Y363462D01*
X315169Y362938D02*
X314119D01*
X313595Y363200D02*
Y364774D01*
X312807D01*
X312545Y364512D01*
Y363987D01*
X312807Y363725D01*
X313595D01*
X313070D02*
X312545Y363200D01*
X311233D02*
X311758D01*
X312020Y363462D01*
Y363987D01*
X311758Y364249D01*
X311233D01*
X310971Y363987D01*
Y363725D01*
X312020D01*
X309921Y362675D02*
X309659D01*
X309396Y362938D01*
Y364249D01*
X310184D01*
X310446Y363987D01*
Y363462D01*
X310184Y363200D01*
X309396D01*
X308872D02*
X308347D01*
X308609D01*
Y364774D01*
X308872Y364512D01*
X307560Y362938D02*
X306510D01*
X305985Y363200D02*
X305461D01*
X305723D01*
Y364774D01*
X305985Y364512D01*
X357050Y338900D02*
X358100D01*
X357050Y339949D01*
Y340212D01*
X357313Y340474D01*
X357838D01*
X358100Y340212D01*
X355476Y338900D02*
X356526D01*
X355476Y339949D01*
Y340212D01*
X355739Y340474D01*
X356263D01*
X356526Y340212D01*
X354951Y339949D02*
Y339162D01*
X354689Y338900D01*
X353902D01*
Y339949D01*
X353115Y338900D02*
Y340212D01*
Y339687D01*
X353377D01*
X352852D01*
X353115D01*
Y340212D01*
X352852Y340474D01*
X362062Y365612D02*
X362325Y365874D01*
X362849D01*
X363112Y365612D01*
Y364562D01*
X362849Y364300D01*
X362325D01*
X362062Y364562D01*
X361538Y364038D02*
X360488D01*
X359963Y364300D02*
Y365874D01*
X359176D01*
X358914Y365612D01*
Y365087D01*
X359176Y364825D01*
X359963D01*
X359439D02*
X358914Y364300D01*
X357602D02*
X358127D01*
X358389Y364562D01*
Y365087D01*
X358127Y365350D01*
X357602D01*
X357340Y365087D01*
Y364825D01*
X358389D01*
X356290Y363775D02*
X356028D01*
X355765Y364038D01*
Y365350D01*
X356552D01*
X356815Y365087D01*
Y364562D01*
X356552Y364300D01*
X355765D01*
X354191D02*
X355241D01*
X354191Y365350D01*
Y365612D01*
X354453Y365874D01*
X354978D01*
X355241Y365612D01*
X353666Y364038D02*
X352617D01*
X352092Y364300D02*
X351567D01*
X351830D01*
Y365874D01*
X352092Y365612D01*
X291900Y337774D02*
Y336200D01*
Y336987D01*
X292950D01*
Y337774D01*
Y336200D01*
X294261D02*
X293737D01*
X293474Y336462D01*
Y336987D01*
X293737Y337249D01*
X294261D01*
X294524Y336987D01*
Y336725D01*
X293474D01*
X295311Y337249D02*
X295836D01*
X296098Y336987D01*
Y336200D01*
X295311D01*
X295049Y336462D01*
X295311Y336725D01*
X296098D01*
X297672Y337774D02*
Y336200D01*
X296885D01*
X296623Y336462D01*
Y336987D01*
X296885Y337249D01*
X297672D01*
X298984Y336200D02*
X298460D01*
X298197Y336462D01*
Y336987D01*
X298460Y337249D01*
X298984D01*
X299247Y336987D01*
Y336725D01*
X298197D01*
X299771Y337249D02*
Y336200D01*
Y336725D01*
X300034Y336987D01*
X300296Y337249D01*
X300559D01*
X303970Y336200D02*
X302920D01*
X303970Y337249D01*
Y337512D01*
X303707Y337774D01*
X303182D01*
X302920Y337512D01*
X290588Y365905D02*
Y364856D01*
X291113Y364331D01*
X291638Y364856D01*
Y365905D01*
X292162Y364331D02*
X292687D01*
X292425D01*
Y365381D01*
X292162D01*
X293474Y364331D02*
Y365381D01*
X294261D01*
X294524Y365118D01*
Y364331D01*
X295049Y364069D02*
X296098D01*
X296623Y364331D02*
X297148D01*
X296885D01*
Y365905D01*
X296623Y365643D01*
X306649Y398712D02*
X306387Y398974D01*
X305862D01*
X305600Y398712D01*
Y398449D01*
X305862Y398187D01*
X306387D01*
X306649Y397925D01*
Y397662D01*
X306387Y397400D01*
X305862D01*
X305600Y397662D01*
X307174Y398974D02*
X308224D01*
X307699D01*
Y397400D01*
X308749D02*
Y398974D01*
X309273Y398449D01*
X309798Y398974D01*
Y397400D01*
X310323Y398712D02*
X310585Y398974D01*
X311110D01*
X311372Y398712D01*
Y398449D01*
X311110Y398187D01*
X310848D01*
X311110D01*
X311372Y397925D01*
Y397662D01*
X311110Y397400D01*
X310585D01*
X310323Y397662D01*
X312947Y397400D02*
X311897D01*
X312947Y398449D01*
Y398712D01*
X312684Y398974D01*
X312159D01*
X311897Y398712D01*
X314521Y398974D02*
X313472D01*
Y398187D01*
X313996D01*
X313472D01*
Y397400D01*
X315833D02*
Y398974D01*
X315046Y398187D01*
X316095D01*
X317407Y397400D02*
Y398974D01*
X316620Y398187D01*
X317670D01*
X319244Y398974D02*
X318719Y398712D01*
X318194Y398187D01*
Y397662D01*
X318457Y397400D01*
X318982D01*
X319244Y397662D01*
Y397925D01*
X318982Y398187D01*
X318194D01*
X319769Y397400D02*
Y398974D01*
X320556D01*
X320818Y398712D01*
Y398187D01*
X320556Y397925D01*
X319769D01*
X320293D02*
X320818Y397400D01*
X322392Y398974D02*
X321343D01*
Y397400D01*
X322392D01*
X321343Y398187D02*
X321868D01*
X322917Y398974D02*
X323967D01*
X323442D01*
Y397400D01*
X325541Y398974D02*
X325016Y398712D01*
X324492Y398187D01*
Y397662D01*
X324754Y397400D01*
X325279D01*
X325541Y397662D01*
Y397925D01*
X325279Y398187D01*
X324492D01*
X304288Y456231D02*
Y457805D01*
X304813Y457281D01*
X305338Y457805D01*
Y456231D01*
X306912Y457543D02*
X306649Y457805D01*
X306125D01*
X305862Y457543D01*
Y456494D01*
X306125Y456231D01*
X306649D01*
X306912Y456494D01*
X307437Y457805D02*
Y456494D01*
X307699Y456231D01*
X308224D01*
X308486Y456494D01*
Y457805D01*
X309011Y455969D02*
X310061D01*
X310585Y456231D02*
X311110D01*
X310848D01*
Y457805D01*
X310585Y457543D01*
X369239Y380462D02*
Y382036D01*
X370026Y381249D01*
X368976D01*
X368451Y380462D02*
Y380724D01*
X368189D01*
Y380462D01*
X368451D01*
X367140Y382036D02*
X366090D01*
Y381774D01*
X367140Y380724D01*
Y380462D01*
X365565Y381511D02*
Y380724D01*
X365303Y380462D01*
X364516D01*
Y381511D01*
X363729Y380462D02*
Y381774D01*
Y381249D01*
X363991D01*
X363466D01*
X363729D01*
Y381774D01*
X363466Y382036D01*
X352714Y403883D02*
X352976Y404146D01*
X353501D01*
X353764Y403883D01*
Y402834D01*
X353501Y402571D01*
X352976D01*
X352714Y402834D01*
X352189Y402309D02*
X351140D01*
X350615Y404146D02*
Y403096D01*
X350090Y402571D01*
X349566Y403096D01*
Y404146D01*
X349041Y402571D02*
X348516D01*
X348778D01*
Y404146D01*
X349041Y403883D01*
X347729Y402309D02*
X346679D01*
X346155Y402571D02*
X345630D01*
X345892D01*
Y404146D01*
X346155Y403883D01*
X309400Y313274D02*
Y311700D01*
Y312487D01*
X310450D01*
Y313274D01*
Y311700D01*
X311761D02*
X311237D01*
X310974Y311962D01*
Y312487D01*
X311237Y312750D01*
X311761D01*
X312024Y312487D01*
Y312225D01*
X310974D01*
X312811Y312750D02*
X313336D01*
X313598Y312487D01*
Y311700D01*
X312811D01*
X312549Y311962D01*
X312811Y312225D01*
X313598D01*
X315172Y313274D02*
Y311700D01*
X314385D01*
X314123Y311962D01*
Y312487D01*
X314385Y312750D01*
X315172D01*
X316484Y311700D02*
X315960D01*
X315697Y311962D01*
Y312487D01*
X315960Y312750D01*
X316484D01*
X316747Y312487D01*
Y312225D01*
X315697D01*
X317271Y312750D02*
Y311700D01*
Y312225D01*
X317534Y312487D01*
X317796Y312750D01*
X318059D01*
X321207Y311700D02*
Y313274D01*
X320420Y312487D01*
X321470D01*
X308088Y331405D02*
Y329831D01*
X309138D01*
X310712Y331143D02*
X310450Y331405D01*
X309925D01*
X309662Y331143D01*
Y330094D01*
X309925Y329831D01*
X310450D01*
X310712Y330094D01*
X311237Y331405D02*
Y329831D01*
X312024D01*
X312286Y330094D01*
Y331143D01*
X312024Y331405D01*
X311237D01*
X312811Y329569D02*
X313861D01*
X314385Y329831D02*
X314910D01*
X314648D01*
Y331405D01*
X314385Y331143D01*
X354954Y338009D02*
X354430D01*
X354692D01*
Y339583D01*
X354954Y339321D01*
X353643D02*
X353380Y339583D01*
X352855D01*
X352593Y339321D01*
Y338271D01*
X352855Y338009D01*
X353380D01*
X353643Y338271D01*
Y339321D01*
X352068Y338009D02*
Y339059D01*
X351281D01*
X351019Y338796D01*
Y338009D01*
X349444Y339583D02*
X350494D01*
Y338796D01*
X349969D01*
X350494D01*
Y338009D01*
X342773Y363902D02*
X343035Y364165D01*
X343560D01*
X343822Y363902D01*
Y362853D01*
X343560Y362590D01*
X343035D01*
X342773Y362853D01*
X342248Y364165D02*
Y362590D01*
X341461D01*
X341198Y362853D01*
Y363115D01*
X341461Y363377D01*
X342248D01*
X341461D01*
X341198Y363640D01*
Y363902D01*
X341461Y364165D01*
X342248D01*
X340674Y362328D02*
X339624D01*
X339099Y362590D02*
X338575D01*
X338837D01*
Y364165D01*
X339099Y363902D01*
X336400Y337574D02*
Y336000D01*
X335350D01*
X334826Y337574D02*
Y336000D01*
X334039D01*
X333776Y336262D01*
Y337312D01*
X334039Y337574D01*
X334826D01*
X333251Y337312D02*
X332989Y337574D01*
X332464D01*
X332202Y337312D01*
Y337050D01*
X332464Y336787D01*
X332727D01*
X332464D01*
X332202Y336525D01*
Y336262D01*
X332464Y336000D01*
X332989D01*
X333251Y336262D01*
X331677D02*
X331415Y336000D01*
X330890D01*
X330628Y336262D01*
Y337312D01*
X330890Y337574D01*
X331415D01*
X331677Y337312D01*
Y337050D01*
X331415Y336787D01*
X330628D01*
X330103Y337312D02*
X329840Y337574D01*
X329316D01*
X329053Y337312D01*
Y337050D01*
X329316Y336787D01*
X329053Y336525D01*
Y336262D01*
X329316Y336000D01*
X329840D01*
X330103Y336262D01*
Y336525D01*
X329840Y336787D01*
X330103Y337050D01*
Y337312D01*
X329840Y336787D02*
X329316D01*
X327479Y337574D02*
X328528D01*
Y336787D01*
X328004Y337050D01*
X327741D01*
X327479Y336787D01*
Y336262D01*
X327741Y336000D01*
X328266D01*
X328528Y336262D01*
X326954Y336000D02*
Y337574D01*
X326430Y337050D01*
X325905Y337574D01*
Y336000D01*
X325380Y337312D02*
X325118Y337574D01*
X324593D01*
X324330Y337312D01*
Y337050D01*
X324593Y336787D01*
X324855D01*
X324593D01*
X324330Y336525D01*
Y336262D01*
X324593Y336000D01*
X325118D01*
X325380Y336262D01*
X323806Y337312D02*
X323543Y337574D01*
X323019D01*
X322756Y337312D01*
Y337050D01*
X323019Y336787D01*
X323281D01*
X323019D01*
X322756Y336525D01*
Y336262D01*
X323019Y336000D01*
X323543D01*
X323806Y336262D01*
X322231Y336000D02*
Y337574D01*
X321444D01*
X321182Y337312D01*
Y336787D01*
X321444Y336525D01*
X322231D01*
X321707D02*
X321182Y336000D01*
X326712Y361400D02*
Y362974D01*
X325925D01*
X325662Y362712D01*
Y362187D01*
X325925Y361925D01*
X326712D01*
X326187D02*
X325662Y361400D01*
X324351D02*
X324875D01*
X325138Y361662D01*
Y362187D01*
X324875Y362450D01*
X324351D01*
X324088Y362187D01*
Y361925D01*
X325138D01*
X323039Y360875D02*
X322776D01*
X322514Y361138D01*
Y362450D01*
X323301D01*
X323563Y362187D01*
Y361662D01*
X323301Y361400D01*
X322514D01*
X321989Y361138D02*
X320939D01*
X320415Y361400D02*
X319890D01*
X320152D01*
Y362974D01*
X320415Y362712D01*
X361785Y333038D02*
X362309D01*
X362047D01*
Y331464D01*
X361785Y331726D01*
X363096D02*
X363359Y331464D01*
X363884D01*
X364146Y331726D01*
Y332776D01*
X363884Y333038D01*
X363359D01*
X363096Y332776D01*
Y331726D01*
X364671Y331464D02*
Y333038D01*
Y332513D01*
X365720Y331464D01*
X364933Y332251D01*
X365720Y333038D01*
X371441Y310109D02*
X371179Y309847D01*
X370654D01*
X370392Y310109D01*
Y310372D01*
X370654Y310634D01*
X371179D01*
X371441Y310896D01*
Y311159D01*
X371179Y311421D01*
X370654D01*
X370392Y311159D01*
X373015Y310109D02*
X372753Y309847D01*
X372228D01*
X371966Y310109D01*
Y311159D01*
X372228Y311421D01*
X372753D01*
X373015Y311159D01*
X374590Y311421D02*
X373540D01*
X374590Y310372D01*
Y310109D01*
X374327Y309847D01*
X373803D01*
X373540Y310109D01*
X375114Y311684D02*
X376164D01*
X376689Y311421D02*
X377214D01*
X376951D01*
Y309847D01*
X376689Y310109D01*
X361387Y315290D02*
X360862D01*
X361125D01*
Y316865D01*
X361387Y316602D01*
X360075D02*
X359813Y316865D01*
X359288D01*
X359026Y316602D01*
Y315553D01*
X359288Y315290D01*
X359813D01*
X360075Y315553D01*
Y316602D01*
X358501Y316865D02*
Y315290D01*
Y315815D01*
X357451Y316865D01*
X358239Y316077D01*
X357451Y315290D01*
X356861Y329156D02*
X357124Y329418D01*
X357649D01*
X357911Y329156D01*
Y328894D01*
X357649Y328631D01*
X357124D01*
X356861Y328369D01*
Y328106D01*
X357124Y327844D01*
X357649D01*
X357911Y328106D01*
X356337Y329418D02*
Y327844D01*
X355550D01*
X355287Y328106D01*
Y329156D01*
X355550Y329418D01*
X356337D01*
X353713Y327844D02*
X354762D01*
X353713Y328894D01*
Y329156D01*
X353975Y329418D01*
X354500D01*
X354762Y329156D01*
X353188Y327582D02*
X352139D01*
X351614Y327844D02*
X351089D01*
X351351D01*
Y329418D01*
X351614Y329156D01*
X302600Y456400D02*
X302075D01*
X302338D01*
Y457974D01*
X302600Y457712D01*
X301288D02*
X301026Y457974D01*
X300501D01*
X300239Y457712D01*
Y456662D01*
X300501Y456400D01*
X301026D01*
X301288Y456662D01*
Y457712D01*
X299714D02*
X299451Y457974D01*
X298927D01*
X298664Y457712D01*
Y456662D01*
X298927Y456400D01*
X299451D01*
X299714Y456662D01*
Y457712D01*
X298140Y456400D02*
Y457449D01*
X297352D01*
X297090Y457187D01*
Y456400D01*
X295516Y457974D02*
X296565D01*
Y457187D01*
X296041D01*
X296565D01*
Y456400D01*
X297951Y481412D02*
X298213Y481674D01*
X298738D01*
X299000Y481412D01*
Y480362D01*
X298738Y480100D01*
X298213D01*
X297951Y480362D01*
X297426Y481674D02*
X296901D01*
X297163D01*
Y480100D01*
X297426D01*
X296901D01*
X296114D02*
X295589D01*
X295851D01*
Y481674D01*
X296114Y481412D01*
D12*
X374000Y390000D02*
Y470000D01*
X294000D02*
X374000D01*
X294000Y390000D02*
Y470000D01*
Y390000D02*
X374000D01*
X322301Y345698D02*
X321301Y346698D01*
X319302D01*
X318302Y345698D01*
Y341700D01*
X319302Y340700D01*
X321301D01*
X322301Y341700D01*
X324300Y346698D02*
Y340700D01*
X327299D01*
X328298Y341700D01*
Y345698D01*
X327299Y346698D01*
X324300D01*
X330298Y340700D02*
X332297D01*
X331298D01*
Y346698D01*
X330298Y345698D01*
X335296Y339700D02*
X339295D01*
X341294Y340700D02*
X343294D01*
X342294D01*
Y346698D01*
X341294Y345698D01*
X349200Y477698D02*
X348201Y478698D01*
X346201D01*
X345202Y477698D01*
Y473700D01*
X346201Y472700D01*
X348201D01*
X349200Y473700D01*
X351200Y478698D02*
Y472700D01*
X354199D01*
X355198Y473700D01*
Y477698D01*
X354199Y478698D01*
X351200D01*
X357198Y477698D02*
X358197Y478698D01*
X360197D01*
X361196Y477698D01*
Y476698D01*
X360197Y475699D01*
X359197D01*
X360197D01*
X361196Y474699D01*
Y473700D01*
X360197Y472700D01*
X358197D01*
X357198Y473700D01*
X363196Y471700D02*
X367195D01*
X369194Y472700D02*
X371193D01*
X370194D01*
Y478698D01*
X369194Y477698D01*
X299200Y403698D02*
X298201Y404698D01*
X296201D01*
X295202Y403698D01*
Y399699D01*
X296201Y398700D01*
X298201D01*
X299200Y399699D01*
X301200Y404698D02*
Y398700D01*
X304199D01*
X305198Y399699D01*
Y403698D01*
X304199Y404698D01*
X301200D01*
X307198D02*
X311196D01*
Y403698D01*
X307198Y399699D01*
Y398700D01*
X313196Y397700D02*
X317195D01*
X319194Y398700D02*
X321193D01*
X320194D01*
Y404698D01*
X319194Y403698D01*
X361102Y386900D02*
Y392898D01*
X364101D01*
X365100Y391898D01*
Y389899D01*
X364101Y388899D01*
X361102D01*
X367100Y386900D02*
Y392898D01*
X370099D01*
X371098Y391898D01*
Y389899D01*
X370099Y388899D01*
X367100D01*
X369099D02*
X371098Y386900D01*
X376097Y392898D02*
X374097D01*
X373098Y391898D01*
Y387899D01*
X374097Y386900D01*
X376097D01*
X377097Y387899D01*
Y391898D01*
X376097Y392898D01*
X383095Y391898D02*
X382095Y392898D01*
X380096D01*
X379096Y391898D01*
Y387899D01*
X380096Y386900D01*
X382095D01*
X383095Y387899D01*
Y389899D01*
X381095D01*
X385094Y385900D02*
X389093D01*
X391092Y386900D02*
X393091D01*
X392092D01*
Y392898D01*
X391092Y391898D01*
X295102Y388398D02*
Y382400D01*
X299100D01*
X302099D02*
X304099D01*
X305098Y383400D01*
Y385399D01*
X304099Y386399D01*
X302099D01*
X301100Y385399D01*
Y383400D01*
X302099Y382400D01*
X307098D02*
Y388398D01*
X310097D01*
X311097Y387398D01*
Y385399D01*
X310097Y384399D01*
X307098D01*
X309097D02*
X311097Y382400D01*
X314095Y386399D02*
X316095D01*
X317094Y385399D01*
Y382400D01*
X314095D01*
X313096Y383400D01*
X314095Y384399D01*
X317094D01*
X319094Y381400D02*
X323093D01*
X325092Y382400D02*
X327091D01*
X326092D01*
Y388398D01*
X325092Y387398D01*
X337802Y405698D02*
Y399700D01*
X341800D01*
X343800D02*
Y405698D01*
X346799D01*
X347798Y404698D01*
Y402699D01*
X346799Y401699D01*
X343800D01*
X345799D02*
X347798Y399700D01*
X349798D02*
X351797D01*
X350798D01*
Y405698D01*
X349798Y404698D01*
X354796Y398700D02*
X358795D01*
X360794Y399700D02*
X362794D01*
X361794D01*
Y405698D01*
X360794Y404698D01*
X327302Y405398D02*
Y399400D01*
X331300D01*
X333300D02*
Y405398D01*
X336299D01*
X337298Y404398D01*
Y402399D01*
X336299Y401399D01*
X333300D01*
X335299D02*
X337298Y399400D01*
X343297D02*
X339298D01*
X343297Y403399D01*
Y404398D01*
X342297Y405398D01*
X340297D01*
X339298Y404398D01*
X345296Y398400D02*
X349294D01*
X351294Y399400D02*
X353293D01*
X352293D01*
Y405398D01*
X351294Y404398D01*
X315802Y405398D02*
Y399400D01*
X319800D01*
X321800D02*
Y405398D01*
X324799D01*
X325798Y404398D01*
Y402399D01*
X324799Y401399D01*
X321800D01*
X323799D02*
X325798Y399400D01*
X327798Y404398D02*
X328797Y405398D01*
X330797D01*
X331797Y404398D01*
Y403399D01*
X330797Y402399D01*
X329797D01*
X330797D01*
X331797Y401399D01*
Y400399D01*
X330797Y399400D01*
X328797D01*
X327798Y400399D01*
X333796Y398400D02*
X337794D01*
X339794Y399400D02*
X341793D01*
X340793D01*
Y405398D01*
X339794Y404398D01*
X315100Y486900D02*
Y492898D01*
X317099Y490899D01*
X319099Y492898D01*
Y486900D01*
X321098D02*
Y492898D01*
X324097D01*
X325097Y491898D01*
Y489899D01*
X324097Y488899D01*
X321098D01*
X327096Y492898D02*
Y487900D01*
X328096Y486900D01*
X330095D01*
X331095Y487900D01*
Y492898D01*
X294500Y479498D02*
Y473500D01*
Y476499D01*
X298499D01*
Y479498D01*
Y473500D01*
X304497Y478498D02*
X303497Y479498D01*
X301498D01*
X300498Y478498D01*
Y474500D01*
X301498Y473500D01*
X303497D01*
X304497Y474500D01*
Y476499D01*
X302497D01*
X164251Y312600D02*
X165300D01*
X164251Y313650D01*
Y313912D01*
X164513Y314174D01*
X165038D01*
X165300Y313912D01*
X162676Y312600D02*
X163726D01*
X162676Y313650D01*
Y313912D01*
X162939Y314174D01*
X163463D01*
X163726Y313912D01*
X162151Y313650D02*
Y312862D01*
X161889Y312600D01*
X161102D01*
Y313650D01*
X160315Y312600D02*
Y313912D01*
Y313387D01*
X160577D01*
X160052D01*
X160315D01*
Y313912D01*
X160052Y314174D01*
X167450Y339712D02*
X167713Y339974D01*
X168238D01*
X168500Y339712D01*
Y338662D01*
X168238Y338400D01*
X167713D01*
X167450Y338662D01*
X166926Y338138D02*
X165876D01*
X165351Y338400D02*
Y339974D01*
X164564D01*
X164302Y339712D01*
Y339187D01*
X164564Y338925D01*
X165351D01*
X164827D02*
X164302Y338400D01*
X162990D02*
X163515D01*
X163777Y338662D01*
Y339187D01*
X163515Y339450D01*
X162990D01*
X162728Y339187D01*
Y338925D01*
X163777D01*
X161678Y337875D02*
X161416D01*
X161153Y338138D01*
Y339450D01*
X161941D01*
X162203Y339187D01*
Y338662D01*
X161941Y338400D01*
X161153D01*
X160628D02*
X160104D01*
X160366D01*
Y339974D01*
X160628Y339712D01*
X165751Y394600D02*
X166800D01*
X165751Y395650D01*
Y395912D01*
X166013Y396174D01*
X166538D01*
X166800Y395912D01*
X164176Y394600D02*
X165226D01*
X164176Y395650D01*
Y395912D01*
X164439Y396174D01*
X164963D01*
X165226Y395912D01*
X163651Y395650D02*
Y394862D01*
X163389Y394600D01*
X162602D01*
Y395650D01*
X161815Y394600D02*
Y395912D01*
Y395387D01*
X162077D01*
X161552D01*
X161815D01*
Y395912D01*
X161552Y396174D01*
X169450Y421712D02*
X169713Y421974D01*
X170238D01*
X170500Y421712D01*
Y420662D01*
X170238Y420400D01*
X169713D01*
X169450Y420662D01*
X168926Y420138D02*
X167876D01*
X167351Y420400D02*
Y421974D01*
X166564D01*
X166302Y421712D01*
Y421187D01*
X166564Y420925D01*
X167351D01*
X166827D02*
X166302Y420400D01*
X164990D02*
X165515D01*
X165777Y420662D01*
Y421187D01*
X165515Y421450D01*
X164990D01*
X164728Y421187D01*
Y420925D01*
X165777D01*
X163678Y419875D02*
X163416D01*
X163153Y420138D01*
Y421450D01*
X163941D01*
X164203Y421187D01*
Y420662D01*
X163941Y420400D01*
X163153D01*
X161579D02*
X162628D01*
X161579Y421450D01*
Y421712D01*
X161841Y421974D01*
X162366D01*
X162628Y421712D01*
X229913Y421484D02*
X230175Y421222D01*
Y420697D01*
X229913Y420435D01*
X228864D01*
X228601Y420697D01*
Y421222D01*
X228864Y421484D01*
X229126D01*
X229388Y421222D01*
Y420435D01*
X230700Y419910D02*
X229126D01*
Y419123D01*
X229388Y418861D01*
X229913D01*
X230175Y419123D01*
Y419910D01*
Y418073D02*
X228864D01*
X229388D01*
Y418336D01*
Y417811D01*
Y418073D01*
X228864D01*
X228601Y417811D01*
X206476Y410885D02*
X206214Y411147D01*
Y411672D01*
X206476Y411934D01*
X207526D01*
X207788Y411672D01*
Y411147D01*
X207526Y410885D01*
X206214Y410360D02*
X207788Y409311D01*
X206214D02*
X207788Y410360D01*
Y408786D02*
Y408261D01*
Y408524D01*
X206214D01*
X206476Y408786D01*
X205237Y391061D02*
X204975Y391323D01*
Y391848D01*
X205237Y392111D01*
X206287D01*
X206549Y391848D01*
Y391323D01*
X206287Y391061D01*
X206024D01*
X205762Y391323D01*
Y392111D01*
X204450Y392635D02*
X206024D01*
Y393423D01*
X205762Y393685D01*
X205237D01*
X204975Y393423D01*
Y392635D01*
Y394472D02*
X206287D01*
X205762D01*
Y394210D01*
Y394734D01*
Y394472D01*
X206287D01*
X206549Y394734D01*
X232024Y392848D02*
X232286Y392585D01*
Y392061D01*
X232024Y391798D01*
X230974D01*
X230712Y392061D01*
Y392585D01*
X230974Y392848D01*
X232286Y393373D02*
X230712Y394422D01*
X232286D02*
X230712Y393373D01*
Y395996D02*
Y394947D01*
X231761Y395996D01*
X232024D01*
X232286Y395734D01*
Y395209D01*
X232024Y394947D01*
X121950Y308574D02*
X121425Y308312D01*
X120900Y307787D01*
Y307262D01*
X121162Y307000D01*
X121687D01*
X121950Y307262D01*
Y307525D01*
X121687Y307787D01*
X120900D01*
X123524Y307000D02*
X122474D01*
X123524Y308050D01*
Y308312D01*
X123261Y308574D01*
X122737D01*
X122474Y308312D01*
X124049D02*
X124311Y308574D01*
X124836D01*
X125098Y308312D01*
Y307262D01*
X124836Y307000D01*
X124311D01*
X124049Y307262D01*
Y308312D01*
X125623D02*
X125885Y308574D01*
X126410D01*
X126672Y308312D01*
Y308050D01*
X126410Y307787D01*
X126148D01*
X126410D01*
X126672Y307525D01*
Y307262D01*
X126410Y307000D01*
X125885D01*
X125623Y307262D01*
X127197Y308312D02*
X127460Y308574D01*
X127984D01*
X128247Y308312D01*
Y307262D01*
X127984Y307000D01*
X127460D01*
X127197Y307262D01*
Y308312D01*
X129821Y307000D02*
X128771D01*
X129821Y308050D01*
Y308312D01*
X129559Y308574D01*
X129034D01*
X128771Y308312D01*
X130346Y307000D02*
X130870D01*
X130608D01*
Y308574D01*
X130346Y308312D01*
X132707Y307000D02*
X131658D01*
X132707Y308050D01*
Y308312D01*
X132445Y308574D01*
X131920D01*
X131658Y308312D01*
X134019Y307000D02*
Y308574D01*
X133232Y307787D01*
X134282D01*
X134806Y308312D02*
X135069Y308574D01*
X135593D01*
X135856Y308312D01*
Y307262D01*
X135593Y307000D01*
X135069D01*
X134806Y307262D01*
Y308312D01*
X137430Y307000D02*
X136381D01*
X137430Y308050D01*
Y308312D01*
X137168Y308574D01*
X136643D01*
X136381Y308312D01*
X139004Y307000D02*
X137955D01*
X139004Y308050D01*
Y308312D01*
X138742Y308574D01*
X138217D01*
X137955Y308312D01*
X120900Y350974D02*
Y349925D01*
X121425Y349400D01*
X121950Y349925D01*
Y350974D01*
X122474Y349400D02*
X122999D01*
X122737D01*
Y350449D01*
X122474D01*
X123786Y349400D02*
Y350449D01*
X124573D01*
X124836Y350187D01*
Y349400D01*
X125000Y418874D02*
Y417300D01*
X125787D01*
X126049Y417562D01*
Y418612D01*
X125787Y418874D01*
X125000D01*
X126574Y417300D02*
Y418874D01*
X127099Y418350D01*
X127624Y418874D01*
Y417300D01*
X128149Y418612D02*
X128411Y418874D01*
X128936D01*
X129198Y418612D01*
Y418350D01*
X128936Y418087D01*
X128673D01*
X128936D01*
X129198Y417825D01*
Y417562D01*
X128936Y417300D01*
X128411D01*
X128149Y417562D01*
X129723Y417300D02*
Y418350D01*
X130248Y418874D01*
X130772Y418350D01*
Y417300D01*
Y418087D01*
X129723D01*
X131297Y418874D02*
X132347D01*
X131822D01*
Y417300D01*
X132871Y418087D02*
X133921D01*
X135495Y418612D02*
X135233Y418874D01*
X134708D01*
X134446Y418612D01*
Y418350D01*
X134708Y418087D01*
X135233D01*
X135495Y417825D01*
Y417562D01*
X135233Y417300D01*
X134708D01*
X134446Y417562D01*
X137070Y418874D02*
X136020D01*
Y418087D01*
X136545D01*
X136020D01*
Y417300D01*
X137594Y418087D02*
X138644D01*
X139169Y417300D02*
Y418874D01*
X139956D01*
X140218Y418612D01*
Y418087D01*
X139956Y417825D01*
X139169D01*
X141792Y418874D02*
X140743D01*
Y417300D01*
X141792D01*
X140743Y418087D02*
X141268D01*
X143367Y418874D02*
X142842D01*
X143104D01*
Y417562D01*
X142842Y417300D01*
X142580D01*
X142317Y417562D01*
X143892Y417300D02*
Y418874D01*
X144416Y418350D01*
X144941Y418874D01*
Y417300D01*
X146515Y418874D02*
X145466D01*
Y418087D01*
X145991Y418350D01*
X146253D01*
X146515Y418087D01*
Y417562D01*
X146253Y417300D01*
X145728D01*
X145466Y417562D01*
X147565Y417300D02*
X147040Y417825D01*
Y418350D01*
X147565Y418874D01*
X149139Y417300D02*
Y418874D01*
X148352Y418087D01*
X149401D01*
X149926Y418612D02*
X150189Y418874D01*
X150713D01*
X150976Y418612D01*
Y417562D01*
X150713Y417300D01*
X150189D01*
X149926Y417562D01*
Y418612D01*
X151500Y417300D02*
X152025Y417825D01*
Y418350D01*
X151500Y418874D01*
X126049Y485412D02*
X125787Y485674D01*
X125262D01*
X125000Y485412D01*
Y485149D01*
X125262Y484887D01*
X125787D01*
X126049Y484625D01*
Y484362D01*
X125787Y484100D01*
X125262D01*
X125000Y484362D01*
X126574Y485674D02*
Y484100D01*
X127361D01*
X127624Y484362D01*
Y485412D01*
X127361Y485674D01*
X126574D01*
X203100Y303500D02*
Y305074D01*
X203887D01*
X204150Y304812D01*
Y304287D01*
X203887Y304025D01*
X203100D01*
X204674Y304550D02*
Y303500D01*
Y304025D01*
X204937Y304287D01*
X205199Y304550D01*
X205461D01*
X206511Y303500D02*
X207036D01*
X207298Y303762D01*
Y304287D01*
X207036Y304550D01*
X206511D01*
X206249Y304287D01*
Y303762D01*
X206511Y303500D01*
X208348Y302975D02*
X208610D01*
X208872Y303238D01*
Y304550D01*
X208085D01*
X207823Y304287D01*
Y303762D01*
X208085Y303500D01*
X208872D01*
X209397Y304550D02*
Y303500D01*
Y304025D01*
X209660Y304287D01*
X209922Y304550D01*
X210184D01*
X211234D02*
X211759D01*
X212021Y304287D01*
Y303500D01*
X211234D01*
X210971Y303762D01*
X211234Y304025D01*
X212021D01*
X212546Y303500D02*
Y304550D01*
X212808D01*
X213071Y304287D01*
Y303500D01*
Y304287D01*
X213333Y304550D01*
X213595Y304287D01*
Y303500D01*
X214120D02*
Y304550D01*
X214382D01*
X214645Y304287D01*
Y303500D01*
Y304287D01*
X214907Y304550D01*
X215170Y304287D01*
Y303500D01*
X216481D02*
X215957D01*
X215694Y303762D01*
Y304287D01*
X215957Y304550D01*
X216481D01*
X216744Y304287D01*
Y304025D01*
X215694D01*
X217269Y304550D02*
Y303500D01*
Y304025D01*
X217531Y304287D01*
X217793Y304550D01*
X218056D01*
X203100Y321900D02*
Y323474D01*
X203887D01*
X204150Y323212D01*
Y322687D01*
X203887Y322425D01*
X203100D01*
X204674Y321900D02*
Y323474D01*
X205461D01*
X205724Y323212D01*
Y322687D01*
X205461Y322425D01*
X204674D01*
X205199D02*
X205724Y321900D01*
X207036Y323474D02*
X206511D01*
X206249Y323212D01*
Y322162D01*
X206511Y321900D01*
X207036D01*
X207298Y322162D01*
Y323212D01*
X207036Y323474D01*
X208872Y323212D02*
X208610Y323474D01*
X208085D01*
X207823Y323212D01*
Y322162D01*
X208085Y321900D01*
X208610D01*
X208872Y322162D01*
Y322687D01*
X208348D01*
X203450Y419512D02*
X203187Y419774D01*
X202662D01*
X202400Y419512D01*
Y419249D01*
X202662Y418987D01*
X203187D01*
X203450Y418725D01*
Y418462D01*
X203187Y418200D01*
X202662D01*
X202400Y418462D01*
X203974Y419774D02*
X205024D01*
X204499D01*
Y418200D01*
X205549D02*
Y419774D01*
X206073Y419249D01*
X206598Y419774D01*
Y418200D01*
X207123Y419512D02*
X207385Y419774D01*
X207910D01*
X208172Y419512D01*
Y419249D01*
X207910Y418987D01*
X207648D01*
X207910D01*
X208172Y418725D01*
Y418462D01*
X207910Y418200D01*
X207385D01*
X207123Y418462D01*
X209747Y418200D02*
X208697D01*
X209747Y419249D01*
Y419512D01*
X209484Y419774D01*
X208960D01*
X208697Y419512D01*
X211321Y419774D02*
X210272D01*
Y418987D01*
X210796D01*
X210272D01*
Y418200D01*
X212633D02*
Y419774D01*
X211846Y418987D01*
X212895D01*
X214207Y418200D02*
Y419774D01*
X213420Y418987D01*
X214470D01*
X216044Y419774D02*
X215519Y419512D01*
X214994Y418987D01*
Y418462D01*
X215257Y418200D01*
X215781D01*
X216044Y418462D01*
Y418725D01*
X215781Y418987D01*
X214994D01*
X216569Y418200D02*
Y419774D01*
X217356D01*
X217618Y419512D01*
Y418987D01*
X217356Y418725D01*
X216569D01*
X217093D02*
X217618Y418200D01*
X219192Y419774D02*
X218143D01*
Y418200D01*
X219192D01*
X218143Y418987D02*
X218668D01*
X219717Y419774D02*
X220767D01*
X220242D01*
Y418200D01*
X222341Y419774D02*
X221816Y419512D01*
X221291Y418987D01*
Y418462D01*
X221554Y418200D01*
X222079D01*
X222341Y418462D01*
Y418725D01*
X222079Y418987D01*
X221291D01*
X202400Y479700D02*
Y481274D01*
X202925Y480750D01*
X203450Y481274D01*
Y479700D01*
X205024Y481012D02*
X204761Y481274D01*
X204237D01*
X203974Y481012D01*
Y479962D01*
X204237Y479700D01*
X204761D01*
X205024Y479962D01*
X205549Y481274D02*
Y479962D01*
X205811Y479700D01*
X206336D01*
X206598Y479962D01*
Y481274D01*
X211038Y426239D02*
X209464D01*
X210251Y427026D01*
Y425976D01*
X211038Y425451D02*
X210776D01*
Y425189D01*
X211038D01*
Y425451D01*
X209464Y424139D02*
Y423090D01*
X209726D01*
X210776Y424139D01*
X211038D01*
X209989Y422565D02*
X210776D01*
X211038Y422303D01*
Y421516D01*
X209989D01*
X211038Y420729D02*
X209726D01*
X210251D01*
Y420991D01*
Y420466D01*
Y420729D01*
X209726D01*
X209464Y420466D01*
X187617Y408271D02*
X187354Y408533D01*
Y409058D01*
X187617Y409321D01*
X188666D01*
X188929Y409058D01*
Y408533D01*
X188666Y408271D01*
X189191Y407746D02*
Y406697D01*
X187354Y406172D02*
X188404D01*
X188929Y405647D01*
X188404Y405123D01*
X187354D01*
X188929Y404598D02*
Y404073D01*
Y404335D01*
X187354D01*
X187617Y404598D01*
X226212Y401038D02*
X226737D01*
X226474D01*
Y399464D01*
X226212Y399726D01*
X227524D02*
X227786Y399464D01*
X228311D01*
X228573Y399726D01*
Y400776D01*
X228311Y401038D01*
X227786D01*
X227524Y400776D01*
Y399726D01*
X229098D02*
X229361Y399464D01*
X229885D01*
X230148Y399726D01*
Y400776D01*
X229885Y401038D01*
X229361D01*
X229098Y400776D01*
Y399726D01*
X230672Y401038D02*
Y399989D01*
X231459D01*
X231722Y400251D01*
Y401038D01*
X233296Y399464D02*
X232247D01*
Y400251D01*
X232771D01*
X232247D01*
Y401038D01*
X238451Y376475D02*
X238188Y376213D01*
X237663D01*
X237401Y376475D01*
Y377525D01*
X237663Y377787D01*
X238188D01*
X238451Y377525D01*
X238975Y376213D02*
Y377787D01*
X239762D01*
X240025Y377525D01*
Y376475D01*
X239762Y376213D01*
X238975D01*
X241599D02*
X241074Y376475D01*
X240549Y377000D01*
Y377525D01*
X240812Y377787D01*
X241337D01*
X241599Y377525D01*
Y377262D01*
X241337Y377000D01*
X240549D01*
X204036Y333620D02*
Y334669D01*
Y334144D01*
X202462D01*
X203774Y336243D02*
X204036Y335981D01*
Y335456D01*
X203774Y335194D01*
X203511D01*
X203249Y335456D01*
Y335981D01*
X202987Y336243D01*
X202724D01*
X202462Y335981D01*
Y335456D01*
X202724Y335194D01*
X204036Y336768D02*
X202462Y337818D01*
X204036D02*
X202462Y336768D01*
X203249Y338342D02*
Y339392D01*
X203774Y339917D02*
X204036Y340179D01*
Y340704D01*
X203774Y340966D01*
X203511D01*
X203249Y340704D01*
Y340441D01*
Y340704D01*
X202987Y340966D01*
X202724D01*
X202462Y340704D01*
Y340179D01*
X202724Y339917D01*
X202462Y342541D02*
Y341491D01*
X203511Y342541D01*
X203774D01*
X204036Y342278D01*
Y341753D01*
X203774Y341491D01*
X202462Y344115D02*
Y343065D01*
X203511Y344115D01*
X203774D01*
X204036Y343852D01*
Y343328D01*
X203774Y343065D01*
X204036Y345689D02*
Y344640D01*
X203249D01*
X203511Y345164D01*
Y345427D01*
X203249Y345689D01*
X202724D01*
X202462Y345427D01*
Y344902D01*
X202724Y344640D01*
X202462Y348838D02*
Y347788D01*
X203511Y348838D01*
X203774D01*
X204036Y348575D01*
Y348051D01*
X203774Y347788D01*
X202462Y350150D02*
X204036D01*
X203249Y349362D01*
Y350412D01*
X202462Y350937D02*
X204036D01*
X203511Y351462D01*
X204036Y351986D01*
X202462D01*
X204036Y353561D02*
Y352511D01*
X203249D01*
Y353036D01*
Y352511D01*
X202462D01*
Y354085D02*
Y354610D01*
Y354348D01*
X204036D01*
X203774Y354085D01*
X204036Y356447D02*
Y355397D01*
X203249D01*
X203511Y355922D01*
Y356184D01*
X203249Y356447D01*
X202724D01*
X202462Y356184D01*
Y355660D01*
X202724Y355397D01*
X204036Y356972D02*
X202462Y358021D01*
X204036D02*
X202462Y356972D01*
X203249Y358546D02*
Y359595D01*
X202462Y360120D02*
X203511D01*
X204036Y360645D01*
X203511Y361170D01*
X202462D01*
X203249D01*
Y360120D01*
X203774Y362744D02*
X204036Y362482D01*
Y361957D01*
X203774Y361694D01*
X202724D01*
X202462Y361957D01*
Y362482D01*
X202724Y362744D01*
X203774Y363269D02*
X204036Y363531D01*
Y364056D01*
X203774Y364318D01*
X203511D01*
X203249Y364056D01*
Y363793D01*
Y364056D01*
X202987Y364318D01*
X202724D01*
X202462Y364056D01*
Y363531D01*
X202724Y363269D01*
X226555Y391025D02*
X224981Y392075D01*
X226555D02*
X224981Y391025D01*
X131649Y346674D02*
X130600D01*
Y345100D01*
X131649D01*
X130600Y345887D02*
X131125D01*
X132174Y346674D02*
Y345625D01*
X132699Y345100D01*
X133224Y345625D01*
Y346674D01*
X134798Y345362D02*
Y346412D01*
X134536Y346674D01*
X134011D01*
X133749Y346412D01*
Y345362D01*
X134011Y345100D01*
X134536D01*
X134273Y345625D02*
X134798Y345100D01*
X134536D02*
X134798Y345362D01*
X135323Y345887D02*
X136372D01*
X136897Y345100D02*
Y346674D01*
X137684D01*
X137947Y346412D01*
Y345887D01*
X137684Y345625D01*
X136897D01*
X138471Y346674D02*
Y345100D01*
X139521D01*
X140046D02*
Y346674D01*
X140570Y346149D01*
X141095Y346674D01*
Y345100D01*
X141620D02*
Y346149D01*
X142145Y346674D01*
X142670Y346149D01*
Y345100D01*
Y345887D01*
X141620D01*
X143194Y345100D02*
X143719D01*
X143457D01*
Y346674D01*
X143194Y346412D01*
X145556Y346674D02*
X144506D01*
Y345887D01*
X145031Y346149D01*
X145293D01*
X145556Y345887D01*
Y345362D01*
X145293Y345100D01*
X144769D01*
X144506Y345362D01*
X131649Y379412D02*
X131387Y379674D01*
X130862D01*
X130600Y379412D01*
Y379150D01*
X130862Y378887D01*
X131387D01*
X131649Y378625D01*
Y378362D01*
X131387Y378100D01*
X130862D01*
X130600Y378362D01*
X132174Y379674D02*
Y378100D01*
X132699Y378625D01*
X133224Y378100D01*
Y379674D01*
X133749Y378100D02*
X134273D01*
X134011D01*
Y379674D01*
X133749Y379412D01*
X131649Y380174D02*
X130600D01*
Y378600D01*
X131649D01*
X130600Y379387D02*
X131125D01*
X132174Y380174D02*
Y379125D01*
X132699Y378600D01*
X133224Y379125D01*
Y380174D01*
X134798Y378862D02*
Y379912D01*
X134536Y380174D01*
X134011D01*
X133749Y379912D01*
Y378862D01*
X134011Y378600D01*
X134536D01*
X134273Y379125D02*
X134798Y378600D01*
X134536D02*
X134798Y378862D01*
X135323Y379387D02*
X136372D01*
X136897Y378600D02*
Y380174D01*
X137684D01*
X137947Y379912D01*
Y379387D01*
X137684Y379125D01*
X136897D01*
X138471Y380174D02*
Y378600D01*
X139521D01*
X140046D02*
Y380174D01*
X140570Y379649D01*
X141095Y380174D01*
Y378600D01*
X141620D02*
Y379649D01*
X142145Y380174D01*
X142670Y379649D01*
Y378600D01*
Y379387D01*
X141620D01*
X143194Y378600D02*
X143719D01*
X143457D01*
Y380174D01*
X143194Y379912D01*
X145556Y380174D02*
X144506D01*
Y379387D01*
X145031Y379649D01*
X145293D01*
X145556Y379387D01*
Y378862D01*
X145293Y378600D01*
X144769D01*
X144506Y378862D01*
X131649Y412912D02*
X131387Y413174D01*
X130862D01*
X130600Y412912D01*
Y412649D01*
X130862Y412387D01*
X131387D01*
X131649Y412125D01*
Y411862D01*
X131387Y411600D01*
X130862D01*
X130600Y411862D01*
X132174Y413174D02*
Y411600D01*
X132699Y412125D01*
X133224Y411600D01*
Y413174D01*
X134798Y411600D02*
X133749D01*
X134798Y412649D01*
Y412912D01*
X134536Y413174D01*
X134011D01*
X133749Y412912D01*
X207100Y332574D02*
Y331000D01*
Y331787D01*
X208150D01*
Y332574D01*
Y331000D01*
X209461D02*
X208937D01*
X208674Y331262D01*
Y331787D01*
X208937Y332049D01*
X209461D01*
X209724Y331787D01*
Y331525D01*
X208674D01*
X210511Y332049D02*
X211036D01*
X211298Y331787D01*
Y331000D01*
X210511D01*
X210249Y331262D01*
X210511Y331525D01*
X211298D01*
X212872Y332574D02*
Y331000D01*
X212085D01*
X211823Y331262D01*
Y331787D01*
X212085Y332049D01*
X212872D01*
X214184Y331000D02*
X213660D01*
X213397Y331262D01*
Y331787D01*
X213660Y332049D01*
X214184D01*
X214447Y331787D01*
Y331525D01*
X213397D01*
X214971Y332049D02*
Y331000D01*
Y331525D01*
X215234Y331787D01*
X215496Y332049D01*
X215759D01*
X218907Y331000D02*
Y332574D01*
X218120Y331787D01*
X219170D01*
X207100Y350974D02*
Y349400D01*
X208150D01*
X209724Y350712D02*
X209461Y350974D01*
X208937D01*
X208674Y350712D01*
Y349662D01*
X208937Y349400D01*
X209461D01*
X209724Y349662D01*
X210249Y350974D02*
Y349400D01*
X211036D01*
X211298Y349662D01*
Y350712D01*
X211036Y350974D01*
X210249D01*
X269215Y446798D02*
X268691D01*
X268953D01*
Y448372D01*
X269215Y448110D01*
X267903D02*
X267641Y448372D01*
X267116D01*
X266854Y448110D01*
Y447060D01*
X267116Y446798D01*
X267641D01*
X267903Y447060D01*
Y448110D01*
X266329Y448372D02*
Y446798D01*
Y447323D01*
X265280Y448372D01*
X266067Y447585D01*
X265280Y446798D01*
X254869Y468248D02*
Y469822D01*
X254082D01*
X253819Y469560D01*
Y469035D01*
X254082Y468773D01*
X254869D01*
X254344D02*
X253819Y468248D01*
X253294Y469822D02*
Y468248D01*
X252507D01*
X252245Y468510D01*
Y468773D01*
X252507Y469035D01*
X253294D01*
X252507D01*
X252245Y469297D01*
Y469560D01*
X252507Y469822D01*
X253294D01*
X250933D02*
X251458D01*
X251720Y469560D01*
Y468510D01*
X251458Y468248D01*
X250933D01*
X250671Y468510D01*
Y469560D01*
X250933Y469822D01*
X249359D02*
X249884D01*
X250146Y469560D01*
Y468510D01*
X249884Y468248D01*
X249359D01*
X249096Y468510D01*
Y469560D01*
X249359Y469822D01*
X248572D02*
X247522D01*
X248047D01*
Y468248D01*
X222476Y484830D02*
Y485355D01*
Y485092D01*
X224050D01*
X223788Y484830D01*
Y486142D02*
X224050Y486404D01*
Y486929D01*
X223788Y487191D01*
X222739D01*
X222476Y486929D01*
Y486404D01*
X222739Y486142D01*
X223788D01*
X224050Y487716D02*
X222476D01*
X223001D01*
X224050Y488765D01*
X223263Y487978D01*
X222476Y488765D01*
X242213Y481114D02*
X243787D01*
Y481901D01*
X243525Y482163D01*
X243000D01*
X242738Y481901D01*
Y481114D01*
Y481639D02*
X242213Y482163D01*
X243262Y482688D02*
X242213D01*
X242738D01*
X243000Y482950D01*
X243262Y483213D01*
Y483475D01*
X242213Y485049D02*
Y484525D01*
X242475Y484262D01*
X243000D01*
X243262Y484525D01*
Y485049D01*
X243000Y485312D01*
X242738D01*
Y484262D01*
X242213Y485837D02*
Y486624D01*
X242475Y486886D01*
X242738Y486624D01*
Y486099D01*
X243000Y485837D01*
X243262Y486099D01*
Y486886D01*
X140700Y371200D02*
X140175D01*
X140438D01*
Y372774D01*
X140700Y372512D01*
X139388D02*
X139126Y372774D01*
X138601D01*
X138339Y372512D01*
Y371462D01*
X138601Y371200D01*
X139126D01*
X139388Y371462D01*
Y372512D01*
X137814Y372774D02*
Y371200D01*
Y371725D01*
X136764Y372774D01*
X137551Y371987D01*
X136764Y371200D01*
X140400Y386200D02*
Y387774D01*
X139613D01*
X139350Y387512D01*
Y386987D01*
X139613Y386725D01*
X140400D01*
X139875D02*
X139350Y386200D01*
X137776Y387512D02*
X138039Y387774D01*
X138563D01*
X138826Y387512D01*
Y387249D01*
X138563Y386987D01*
X138039D01*
X137776Y386725D01*
Y386462D01*
X138039Y386200D01*
X138563D01*
X138826Y386462D01*
X137251Y386200D02*
X136727D01*
X136989D01*
Y387774D01*
X137251Y387512D01*
X140900Y406700D02*
X140375D01*
X140638D01*
Y408274D01*
X140900Y408012D01*
X139588D02*
X139326Y408274D01*
X138801D01*
X138539Y408012D01*
Y406962D01*
X138801Y406700D01*
X139326D01*
X139588Y406962D01*
Y408012D01*
X138014Y408274D02*
Y406700D01*
Y407225D01*
X136964Y408274D01*
X137751Y407487D01*
X136964Y406700D01*
X141100Y421700D02*
Y423274D01*
X140313D01*
X140050Y423012D01*
Y422487D01*
X140313Y422225D01*
X141100D01*
X140575D02*
X140050Y421700D01*
X138476Y423012D02*
X138739Y423274D01*
X139263D01*
X139526Y423012D01*
Y422750D01*
X139263Y422487D01*
X138739D01*
X138476Y422225D01*
Y421962D01*
X138739Y421700D01*
X139263D01*
X139526Y421962D01*
X136902Y421700D02*
X137951D01*
X136902Y422750D01*
Y423012D01*
X137164Y423274D01*
X137689D01*
X137951Y423012D01*
X166330Y321024D02*
X166855D01*
X166592D01*
Y319450D01*
X166330Y319712D01*
X167642D02*
X167904Y319450D01*
X168429D01*
X168691Y319712D01*
Y320761D01*
X168429Y321024D01*
X167904D01*
X167642Y320761D01*
Y319712D01*
X169216Y319450D02*
Y321024D01*
Y320499D01*
X170265Y319450D01*
X169478Y320237D01*
X170265Y321024D01*
X164188Y302787D02*
Y301213D01*
X164975D01*
X165238Y301475D01*
Y302000D01*
X164975Y302262D01*
X164188D01*
X164713D02*
X165238Y302787D01*
X165762Y301213D02*
Y302262D01*
X166287Y302787D01*
X166812Y302262D01*
Y301213D01*
X270954Y314962D02*
X270430D01*
X270692D01*
Y316536D01*
X270954Y316274D01*
X269642D02*
X269380Y316536D01*
X268855D01*
X268593Y316274D01*
Y315224D01*
X268855Y314962D01*
X269380D01*
X269642Y315224D01*
Y316274D01*
X268068Y314962D02*
Y316012D01*
X267281D01*
X267019Y315749D01*
Y314962D01*
X265444Y316536D02*
X266494D01*
Y315749D01*
X265969D01*
X266494D01*
Y314962D01*
X257461Y340724D02*
X257723Y340986D01*
X258248D01*
X258510Y340724D01*
Y339674D01*
X258248Y339412D01*
X257723D01*
X257461Y339674D01*
X256936Y340986D02*
Y339412D01*
X256149D01*
X255887Y339674D01*
Y339937D01*
X256149Y340199D01*
X256936D01*
X256149D01*
X255887Y340461D01*
Y340724D01*
X256149Y340986D01*
X256936D01*
X151839Y300713D02*
X151315D01*
X151577D01*
Y302287D01*
X151839Y302025D01*
X149478Y302287D02*
X150527D01*
Y301500D01*
X150003Y301762D01*
X149740D01*
X149478Y301500D01*
Y300975D01*
X149740Y300713D01*
X150265D01*
X150527Y300975D01*
X148953Y302025D02*
X148691Y302287D01*
X148166D01*
X147904Y302025D01*
Y300975D01*
X148166Y300713D01*
X148691D01*
X148953Y300975D01*
Y302025D01*
X147379D02*
X147116Y302287D01*
X146592D01*
X146329Y302025D01*
Y300975D01*
X146592Y300713D01*
X147116D01*
X147379Y300975D01*
Y302025D01*
X145805D02*
X145542Y302287D01*
X145017D01*
X144755Y302025D01*
Y301762D01*
X145017Y301500D01*
X144755Y301238D01*
Y300975D01*
X145017Y300713D01*
X145542D01*
X145805Y300975D01*
Y301238D01*
X145542Y301500D01*
X145805Y301762D01*
Y302025D01*
X145542Y301500D02*
X145017D01*
X144230Y302025D02*
X143968Y302287D01*
X143443D01*
X143181Y302025D01*
Y300975D01*
X143443Y300713D01*
X143968D01*
X144230Y300975D01*
Y302025D01*
X142656Y302287D02*
Y300713D01*
X141869D01*
X141606Y300975D01*
Y301238D01*
X141869Y301500D01*
X142656D01*
X141869D01*
X141606Y301762D01*
Y302025D01*
X141869Y302287D01*
X142656D01*
X140032Y302025D02*
X140295Y302287D01*
X140819D01*
X141082Y302025D01*
Y301762D01*
X140819Y301500D01*
X140295D01*
X140032Y301238D01*
Y300975D01*
X140295Y300713D01*
X140819D01*
X141082Y300975D01*
X139507Y302287D02*
X138458D01*
Y302025D01*
X139507Y300975D01*
Y300713D01*
X136883Y302287D02*
X137933D01*
Y301500D01*
X137408Y301762D01*
X137146D01*
X136883Y301500D01*
Y300975D01*
X137146Y300713D01*
X137671D01*
X137933Y300975D01*
X136359Y302025D02*
X136096Y302287D01*
X135572D01*
X135309Y302025D01*
Y300975D01*
X135572Y300713D01*
X136096D01*
X136359Y300975D01*
Y302025D01*
X134784D02*
X134522Y302287D01*
X133997D01*
X133735Y302025D01*
Y300975D01*
X133997Y300713D01*
X134522D01*
X134784Y300975D01*
Y302025D01*
X133210D02*
X132948Y302287D01*
X132423D01*
X132161Y302025D01*
Y300975D01*
X132423Y300713D01*
X132948D01*
X133210Y300975D01*
Y302025D01*
X136100Y313074D02*
Y311500D01*
X135313D01*
X135050Y311762D01*
Y312812D01*
X135313Y313074D01*
X136100D01*
X134526D02*
Y312025D01*
X134001Y311500D01*
X133476Y312025D01*
Y313074D01*
X191600Y317374D02*
Y315800D01*
X190550D01*
X190026Y317374D02*
Y315800D01*
X189239D01*
X188976Y316062D01*
Y317112D01*
X189239Y317374D01*
X190026D01*
X188451Y317112D02*
X188189Y317374D01*
X187664D01*
X187402Y317112D01*
Y316849D01*
X187664Y316587D01*
X187927D01*
X187664D01*
X187402Y316325D01*
Y316062D01*
X187664Y315800D01*
X188189D01*
X188451Y316062D01*
X186877D02*
X186615Y315800D01*
X186090D01*
X185828Y316062D01*
Y317112D01*
X186090Y317374D01*
X186615D01*
X186877Y317112D01*
Y316849D01*
X186615Y316587D01*
X185828D01*
X185303Y317112D02*
X185040Y317374D01*
X184516D01*
X184253Y317112D01*
Y316849D01*
X184516Y316587D01*
X184253Y316325D01*
Y316062D01*
X184516Y315800D01*
X185040D01*
X185303Y316062D01*
Y316325D01*
X185040Y316587D01*
X185303Y316849D01*
Y317112D01*
X185040Y316587D02*
X184516D01*
X182679Y317374D02*
X183729D01*
Y316587D01*
X183204Y316849D01*
X182941D01*
X182679Y316587D01*
Y316062D01*
X182941Y315800D01*
X183466D01*
X183729Y316062D01*
X182154Y315800D02*
Y317374D01*
X181630Y316849D01*
X181105Y317374D01*
Y315800D01*
X180580Y317112D02*
X180318Y317374D01*
X179793D01*
X179530Y317112D01*
Y316849D01*
X179793Y316587D01*
X180055D01*
X179793D01*
X179530Y316325D01*
Y316062D01*
X179793Y315800D01*
X180318D01*
X180580Y316062D01*
X179006Y317112D02*
X178743Y317374D01*
X178218D01*
X177956Y317112D01*
Y316849D01*
X178218Y316587D01*
X178481D01*
X178218D01*
X177956Y316325D01*
Y316062D01*
X178218Y315800D01*
X178743D01*
X179006Y316062D01*
X177431Y315800D02*
Y317374D01*
X176644D01*
X176382Y317112D01*
Y316587D01*
X176644Y316325D01*
X177431D01*
X176907D02*
X176382Y315800D01*
X180600Y337100D02*
Y338674D01*
X179813D01*
X179551Y338412D01*
Y337887D01*
X179813Y337625D01*
X180600D01*
X180075D02*
X179551Y337100D01*
X178239D02*
X178763D01*
X179026Y337362D01*
Y337887D01*
X178763Y338149D01*
X178239D01*
X177976Y337887D01*
Y337625D01*
X179026D01*
X176927Y336575D02*
X176664D01*
X176402Y336838D01*
Y338149D01*
X177189D01*
X177451Y337887D01*
Y337362D01*
X177189Y337100D01*
X176402D01*
X203700Y363700D02*
X203175D01*
X203438D01*
Y365274D01*
X203700Y365012D01*
X202388D02*
X202126Y365274D01*
X201601D01*
X201339Y365012D01*
Y363962D01*
X201601Y363700D01*
X202126D01*
X202388Y363962D01*
Y365012D01*
X200814Y365274D02*
Y363700D01*
Y364225D01*
X199764Y365274D01*
X200551Y364487D01*
X199764Y363700D01*
X203400Y378700D02*
Y380274D01*
X202613D01*
X202350Y380012D01*
Y379487D01*
X202613Y379225D01*
X203400D01*
X202875D02*
X202350Y378700D01*
X201826Y380274D02*
Y378700D01*
X201039D01*
X200776Y378962D01*
Y379225D01*
X201039Y379487D01*
X201826D01*
X201039D01*
X200776Y379749D01*
Y380012D01*
X201039Y380274D01*
X201826D01*
X200251Y378700D02*
X199727D01*
X199989D01*
Y380274D01*
X200251Y380012D01*
X199538Y352215D02*
Y351691D01*
Y351953D01*
X197964D01*
X198226Y352215D01*
Y350904D02*
X197964Y350641D01*
Y350116D01*
X198226Y349854D01*
X199276D01*
X199538Y350116D01*
Y350641D01*
X199276Y350904D01*
X198226D01*
X197964Y349329D02*
X199538D01*
X199013D01*
X197964Y348280D01*
X198751Y349067D01*
X199538Y348280D01*
X178088Y342297D02*
X176514D01*
Y341509D01*
X176776Y341247D01*
X177301D01*
X177563Y341509D01*
Y342297D01*
Y341772D02*
X178088Y341247D01*
X176514Y340722D02*
X178088D01*
Y339935D01*
X177826Y339673D01*
X177563D01*
X177301Y339935D01*
Y340722D01*
Y339935D01*
X177039Y339673D01*
X176776D01*
X176514Y339935D01*
Y340722D01*
X178088Y338098D02*
Y339148D01*
X177039Y338098D01*
X176776D01*
X176514Y338361D01*
Y338885D01*
X176776Y339148D01*
X216100Y468900D02*
X215575D01*
X215838D01*
Y470474D01*
X216100Y470212D01*
X213739Y470474D02*
X214788D01*
Y469687D01*
X214263Y469949D01*
X214001D01*
X213739Y469687D01*
Y469162D01*
X214001Y468900D01*
X214526D01*
X214788Y469162D01*
X213214Y470212D02*
X212951Y470474D01*
X212427D01*
X212164Y470212D01*
Y469162D01*
X212427Y468900D01*
X212951D01*
X213214Y469162D01*
Y470212D01*
X211639D02*
X211377Y470474D01*
X210852D01*
X210590Y470212D01*
Y469162D01*
X210852Y468900D01*
X211377D01*
X211639Y469162D01*
Y470212D01*
X210065D02*
X209803Y470474D01*
X209278D01*
X209016Y470212D01*
Y469949D01*
X209278Y469687D01*
X209016Y469425D01*
Y469162D01*
X209278Y468900D01*
X209803D01*
X210065Y469162D01*
Y469425D01*
X209803Y469687D01*
X210065Y469949D01*
Y470212D01*
X209803Y469687D02*
X209278D01*
X208491Y470212D02*
X208228Y470474D01*
X207704D01*
X207441Y470212D01*
Y469162D01*
X207704Y468900D01*
X208228D01*
X208491Y469162D01*
Y470212D01*
X206917Y470474D02*
Y468900D01*
X206130D01*
X205867Y469162D01*
Y469425D01*
X206130Y469687D01*
X206917D01*
X206130D01*
X205867Y469949D01*
Y470212D01*
X206130Y470474D01*
X206917D01*
X204293Y470212D02*
X204555Y470474D01*
X205080D01*
X205342Y470212D01*
Y469949D01*
X205080Y469687D01*
X204555D01*
X204293Y469425D01*
Y469162D01*
X204555Y468900D01*
X205080D01*
X205342Y469162D01*
X203768Y470474D02*
X202718D01*
Y470212D01*
X203768Y469162D01*
Y468900D01*
X201144Y470474D02*
X202194D01*
Y469687D01*
X201669Y469949D01*
X201407D01*
X201144Y469687D01*
Y469162D01*
X201407Y468900D01*
X201931D01*
X202194Y469162D01*
X200620Y470212D02*
X200357Y470474D01*
X199832D01*
X199570Y470212D01*
Y469162D01*
X199832Y468900D01*
X200357D01*
X200620Y469162D01*
Y470212D01*
X199045D02*
X198783Y470474D01*
X198258D01*
X197996Y470212D01*
Y469162D01*
X198258Y468900D01*
X198783D01*
X199045Y469162D01*
Y470212D01*
X197471D02*
X197208Y470474D01*
X196684D01*
X196421Y470212D01*
Y469162D01*
X196684Y468900D01*
X197208D01*
X197471Y469162D01*
Y470212D01*
X199312Y489787D02*
Y488213D01*
X198525D01*
X198262Y488475D01*
Y489525D01*
X198525Y489787D01*
X199312D01*
X196688D02*
X197738D01*
Y488213D01*
X196688D01*
X197738Y489000D02*
X197213D01*
X216700Y474200D02*
X216175D01*
X216438D01*
Y475774D01*
X216700Y475512D01*
X215388D02*
X215126Y475774D01*
X214601D01*
X214339Y475512D01*
Y474462D01*
X214601Y474200D01*
X215126D01*
X215388Y474462D01*
Y475512D01*
X213814Y475774D02*
Y474200D01*
Y474725D01*
X212764Y475774D01*
X213551Y474987D01*
X212764Y474200D01*
X215400Y489200D02*
Y490774D01*
X214613D01*
X214351Y490512D01*
Y489987D01*
X214613Y489725D01*
X215400D01*
X214875D02*
X214351Y489200D01*
X212776Y490774D02*
X213826D01*
Y489200D01*
X212776D01*
X213826Y489987D02*
X213301D01*
X186462Y391285D02*
Y391809D01*
Y391547D01*
X188036D01*
X187774Y391285D01*
Y392597D02*
X188036Y392859D01*
Y393384D01*
X187774Y393646D01*
X186724D01*
X186462Y393384D01*
Y392859D01*
X186724Y392597D01*
X187774D01*
X188036Y394171D02*
X186462D01*
X186987D01*
X188036Y395220D01*
X187249Y394433D01*
X186462Y395220D01*
X209260Y402253D02*
X209522Y401991D01*
Y401466D01*
X209260Y401203D01*
X208997D01*
X208735Y401466D01*
Y401991D01*
X208472Y402253D01*
X208210D01*
X207948Y401991D01*
Y401466D01*
X208210Y401203D01*
X209260Y403827D02*
X209522Y403565D01*
Y403040D01*
X209260Y402778D01*
X208210D01*
X207948Y403040D01*
Y403565D01*
X208210Y403827D01*
X207948Y405402D02*
Y404352D01*
X208997Y405402D01*
X209260D01*
X209522Y405139D01*
Y404614D01*
X209260Y404352D01*
X179290Y396613D02*
Y397138D01*
Y396875D01*
X180865D01*
X180602Y396613D01*
Y397925D02*
X180865Y398187D01*
Y398712D01*
X180602Y398974D01*
X179553D01*
X179290Y398712D01*
Y398187D01*
X179553Y397925D01*
X180602D01*
X180865Y399499D02*
X179290D01*
X179815D01*
X180865Y400549D01*
X180077Y399762D01*
X179290Y400549D01*
X196788Y402253D02*
X197050Y401991D01*
Y401466D01*
X196788Y401203D01*
X196526D01*
X196263Y401466D01*
Y401991D01*
X196001Y402253D01*
X195738D01*
X195476Y401991D01*
Y401466D01*
X195738Y401203D01*
X197050Y402778D02*
X195476D01*
Y403565D01*
X195738Y403827D01*
X196788D01*
X197050Y403565D01*
Y402778D01*
X195476Y405402D02*
Y404352D01*
X196526Y405402D01*
X196788D01*
X197050Y405139D01*
Y404614D01*
X196788Y404352D01*
X184599Y425698D02*
X183599Y426698D01*
X181600D01*
X180600Y425698D01*
Y421700D01*
X181600Y420700D01*
X183599D01*
X184599Y421700D01*
X186598Y426698D02*
Y420700D01*
X189597D01*
X190597Y421700D01*
Y425698D01*
X189597Y426698D01*
X186598D01*
X192596Y420700D02*
X194596D01*
X193596D01*
Y426698D01*
X192596Y425698D01*
X202299Y396698D02*
X201299Y397698D01*
X199300D01*
X198300Y396698D01*
Y392700D01*
X199300Y391700D01*
X201299D01*
X202299Y392700D01*
X204298Y397698D02*
Y391700D01*
X207297D01*
X208297Y392700D01*
Y396698D01*
X207297Y397698D01*
X204298D01*
X214295Y391700D02*
X210296D01*
X214295Y395699D01*
Y396698D01*
X213295Y397698D01*
X211296D01*
X210296Y396698D01*
X215699Y390198D02*
X214699Y391198D01*
X212700D01*
X211700Y390198D01*
Y386200D01*
X212700Y385200D01*
X214699D01*
X215699Y386200D01*
X217698Y391198D02*
Y385200D01*
X220697D01*
X221697Y386200D01*
Y390198D01*
X220697Y391198D01*
X217698D01*
X223696Y390198D02*
X224696Y391198D01*
X226695D01*
X227695Y390198D01*
Y389199D01*
X226695Y388199D01*
X225695D01*
X226695D01*
X227695Y387199D01*
Y386200D01*
X226695Y385200D01*
X224696D01*
X223696Y386200D01*
X239799Y424798D02*
X238799Y425798D01*
X236800D01*
X235800Y424798D01*
Y420800D01*
X236800Y419800D01*
X238799D01*
X239799Y420800D01*
X241798Y425798D02*
Y419800D01*
X244797D01*
X245797Y420800D01*
Y424798D01*
X244797Y425798D01*
X241798D01*
X250795Y419800D02*
Y425798D01*
X247796Y422799D01*
X251795D01*
X254199Y454298D02*
X253199Y455298D01*
X251200D01*
X250200Y454298D01*
Y450300D01*
X251200Y449300D01*
X253199D01*
X254199Y450300D01*
X256198Y455298D02*
Y449300D01*
X259197D01*
X260197Y450300D01*
Y454298D01*
X259197Y455298D01*
X256198D01*
X266195D02*
X262196D01*
Y452299D01*
X264195Y453299D01*
X265195D01*
X266195Y452299D01*
Y450300D01*
X265195Y449300D01*
X263196D01*
X262196Y450300D01*
X163699Y358198D02*
X162699Y359198D01*
X160700D01*
X159700Y358198D01*
Y354200D01*
X160700Y353200D01*
X162699D01*
X163699Y354200D01*
X165698Y359198D02*
Y353200D01*
X168697D01*
X169697Y354200D01*
Y358198D01*
X168697Y359198D01*
X165698D01*
X171696D02*
X175695D01*
Y358198D01*
X171696Y354200D01*
Y353200D01*
X255600Y426898D02*
Y420900D01*
X259599D01*
X262598D02*
X264597D01*
X265597Y421900D01*
Y423899D01*
X264597Y424899D01*
X262598D01*
X261598Y423899D01*
Y421900D01*
X262598Y420900D01*
X267596D02*
Y426898D01*
X270595D01*
X271595Y425898D01*
Y423899D01*
X270595Y422899D01*
X267596D01*
X269596D02*
X271595Y420900D01*
X274594Y424899D02*
X276593D01*
X277593Y423899D01*
Y420900D01*
X274594D01*
X273594Y421900D01*
X274594Y422899D01*
X277593D01*
X231800Y389198D02*
Y383200D01*
X235799D01*
X237798D02*
Y389198D01*
X240797D01*
X241797Y388198D01*
Y386199D01*
X240797Y385199D01*
X237798D01*
X239797D02*
X241797Y383200D01*
X243796D02*
X245795D01*
X244796D01*
Y389198D01*
X243796Y388198D01*
X239003Y374335D02*
Y368337D01*
X243001D01*
X245001D02*
Y374335D01*
X248000D01*
X248999Y373335D01*
Y371336D01*
X248000Y370336D01*
X245001D01*
X247000D02*
X248999Y368337D01*
X254997D02*
X250999D01*
X254997Y372336D01*
Y373335D01*
X253998Y374335D01*
X251998D01*
X250999Y373335D01*
X256800Y356198D02*
Y350200D01*
X260799D01*
X262798D02*
Y356198D01*
X265797D01*
X266797Y355198D01*
Y353199D01*
X265797Y352199D01*
X262798D01*
X264797D02*
X266797Y350200D01*
X268796Y355198D02*
X269796Y356198D01*
X271795D01*
X272795Y355198D01*
Y354199D01*
X271795Y353199D01*
X270795D01*
X271795D01*
X272795Y352199D01*
Y351200D01*
X271795Y350200D01*
X269796D01*
X268796Y351200D01*
X214699Y375698D02*
X213699Y376698D01*
X211700D01*
X210700Y375698D01*
Y371700D01*
X211700Y370700D01*
X213699D01*
X214699Y371700D01*
X216698Y376698D02*
X218697D01*
X217698D01*
Y370700D01*
X216698D01*
X218697D01*
X221696Y375698D02*
X222696Y376698D01*
X224695D01*
X225695Y375698D01*
Y374699D01*
X223696Y372699D01*
Y371700D02*
Y370700D01*
X165899Y390698D02*
X164899Y391698D01*
X162900D01*
X161900Y390698D01*
Y386700D01*
X162900Y385700D01*
X164899D01*
X165899Y386700D01*
X167898Y391698D02*
X169897D01*
X168898D01*
Y385700D01*
X167898D01*
X169897D01*
X172896Y390698D02*
X173896Y391698D01*
X175896D01*
X176895Y390698D01*
Y389699D01*
X174896Y387699D01*
Y386700D02*
Y385700D01*
M02*
