M48
;Layer_Color=9474304
;FILE_FORMAT=2:4
INCH,TZ
;TYPE=PLATED
T1F00S00C0.0157
T2F00S00C0.0354
T3F00S00C0.1220
%
T01
X40250Y31034
X42100Y31050
X42883Y31178
X43683Y30850
X31113Y34087
X30313Y34667
X29600Y34900
X29800Y35700
X29700Y36500
X29750Y36900
X29800Y37500
X30850
X30650Y36600
X28200Y36500
X28400Y37250
X26800Y37200
X26300Y38400
X23700Y39200
X22600Y39300
X21900Y32800
X25600Y32700
X26650Y33050
X27465Y33923
X26900Y34900
X28250Y35350
X29500Y32800
X29799Y39599
X31550Y37450
X32150Y36200
X32600Y36400
X32950Y36700
Y35900
X32500Y35850
X31550Y34100
Y32950
X32100
X32925Y32925
X33950Y32867
X34000Y33527
X35150Y33538
X34850Y32850
X34717Y34394
X34100Y34700
X35250Y35450
X35300Y36000
X35200Y36800
X35589Y36788
X36650Y36733
X38700Y36250
X39000Y35350
X39700Y36733
X42100Y36500
X42500Y35350
X41950Y34950
X41250Y34350
X41600Y32950
X42300Y33000
X42650Y32400
X42891Y31968
X43350Y32050
X44300Y31300
X40850Y32200
X40950Y32650
X39450Y31750
X36950Y34350
X35733Y34300
X36100Y33605
X35250Y38350
X33200Y38550
X44250
X45250Y38300
T02
X26950Y31800
X27950
X28950
X29950
X32300
X33300
X34300
X35300
X43500Y32850
Y33850
Y34850
Y35850
Y36850
X45350Y37350
Y36350
Y35350
Y34350
Y33350
Y32350
Y31350
T03
X22850Y31500
X38250
M30
