G04*
G04 #@! TF.GenerationSoftware,Altium Limited,Altium Designer,22.4.2 (48)*
G04*
G04 Layer_Color=8421504*
%FSLAX25Y25*%
%MOIN*%
G70*
G04*
G04 #@! TF.SameCoordinates,35B363B0-4A87-487E-8715-F30847FC6155*
G04*
G04*
G04 #@! TF.FilePolarity,Positive*
G04*
G01*
G75*
%ADD10C,0.04507*%
%ADD11R,0.11024X0.03937*%
%ADD12R,0.04724X0.03937*%
%ADD13R,0.03150X0.03937*%
%ADD14R,0.04724X0.02756*%
%ADD15R,0.03197X0.03666*%
%ADD16R,0.03765X0.04749*%
%ADD17R,0.04749X0.03765*%
%ADD18R,0.03937X0.01772*%
%ADD19R,0.03937X0.02362*%
%ADD20R,0.06299X0.11811*%
%ADD21R,0.03937X0.21654*%
%ADD22R,0.01378X0.01772*%
%ADD23R,0.01772X0.01378*%
%ADD24R,0.03197X0.02593*%
%ADD25R,0.03150X0.03543*%
%ADD26R,0.06127X0.06213*%
%ADD27R,0.06213X0.06127*%
%ADD28R,0.02593X0.03197*%
%ADD29R,0.05512X0.04528*%
%ADD30R,0.02362X0.04724*%
%ADD31R,0.04331X0.04724*%
%ADD32R,0.04724X0.04331*%
%ADD33R,0.04355X0.02977*%
%ADD34R,0.04724X0.01181*%
%ADD35R,0.01181X0.04724*%
%ADD36R,0.06299X0.11024*%
G36*
X212587Y337870D02*
X213177Y337280D01*
X218689D01*
Y332161D01*
X211209D01*
Y339445D01*
X212587D01*
Y337870D01*
D02*
G37*
D10*
X215988Y334665D02*
D03*
D11*
X216720Y387870D02*
D03*
D12*
X257469D02*
D03*
X274398Y343972D02*
D03*
D13*
X233059Y387870D02*
D03*
D14*
X274398Y384130D02*
D03*
Y380390D02*
D03*
Y376059D02*
D03*
Y371728D02*
D03*
Y367398D02*
D03*
Y363067D02*
D03*
Y358736D02*
D03*
Y354406D02*
D03*
Y350075D02*
D03*
D15*
X276000Y334628D02*
D03*
Y330372D02*
D03*
X334500Y327372D02*
D03*
Y331628D02*
D03*
X283000Y342872D02*
D03*
Y347128D02*
D03*
D16*
X394429Y310500D02*
D03*
X402500D02*
D03*
X428965Y308500D02*
D03*
X437035D02*
D03*
D17*
X416000Y365035D02*
D03*
Y356965D02*
D03*
X351500Y395500D02*
D03*
Y387429D02*
D03*
X340500Y395535D02*
D03*
Y387465D02*
D03*
D18*
X383500Y330000D02*
D03*
Y349882D02*
D03*
X354500Y349941D02*
D03*
Y330059D02*
D03*
D19*
X374839Y332657D02*
D03*
Y347224D02*
D03*
X392161Y332657D02*
D03*
Y347224D02*
D03*
X363161Y347284D02*
D03*
Y332717D02*
D03*
X345839Y347284D02*
D03*
Y332717D02*
D03*
D20*
X414386Y389000D02*
D03*
X387614D02*
D03*
D21*
X397063Y380142D02*
D03*
X404937D02*
D03*
D22*
X418646Y314209D02*
D03*
X416677D02*
D03*
X414709D02*
D03*
Y323854D02*
D03*
X416677D02*
D03*
X418646D02*
D03*
D23*
X411854Y315094D02*
D03*
Y317063D02*
D03*
Y319032D02*
D03*
Y321000D02*
D03*
Y322969D02*
D03*
X421500D02*
D03*
Y321000D02*
D03*
Y319032D02*
D03*
Y317063D02*
D03*
Y315094D02*
D03*
D24*
X400500Y317336D02*
D03*
Y322664D02*
D03*
X346000Y359000D02*
D03*
Y353672D02*
D03*
X382500Y361664D02*
D03*
Y356336D02*
D03*
X370500D02*
D03*
Y361664D02*
D03*
X358000Y356336D02*
D03*
Y361664D02*
D03*
X294000Y395328D02*
D03*
Y390000D02*
D03*
X346000Y376664D02*
D03*
Y371336D02*
D03*
X365000Y318164D02*
D03*
Y312836D02*
D03*
X355500Y376664D02*
D03*
Y371336D02*
D03*
X452500Y387836D02*
D03*
Y393164D02*
D03*
D25*
X406406Y343000D02*
D03*
X400500D02*
D03*
D26*
X252000Y314098D02*
D03*
Y320902D02*
D03*
D27*
X430000Y385500D02*
D03*
X436804D02*
D03*
D28*
X286664Y307500D02*
D03*
X281336D02*
D03*
X274164D02*
D03*
X268836D02*
D03*
X348500Y365000D02*
D03*
X343172D02*
D03*
D29*
X320831Y395650D02*
D03*
X312169D02*
D03*
Y389350D02*
D03*
X320831D02*
D03*
D30*
X406740Y353445D02*
D03*
X399260D02*
D03*
Y362500D02*
D03*
X403000D02*
D03*
X406740D02*
D03*
D31*
X432866Y395500D02*
D03*
X441134D02*
D03*
D32*
X285000Y387366D02*
D03*
Y395634D02*
D03*
D33*
X331500Y388858D02*
D03*
Y396142D02*
D03*
X303000Y396642D02*
D03*
Y389358D02*
D03*
D34*
X335776Y372843D02*
D03*
Y370874D02*
D03*
Y368906D02*
D03*
Y366937D02*
D03*
Y364969D02*
D03*
Y363000D02*
D03*
Y361032D02*
D03*
Y359063D02*
D03*
Y357095D02*
D03*
Y355126D02*
D03*
Y353158D02*
D03*
Y351189D02*
D03*
Y349221D02*
D03*
Y347252D02*
D03*
Y345284D02*
D03*
Y343315D02*
D03*
X290500D02*
D03*
Y345284D02*
D03*
Y347252D02*
D03*
Y349221D02*
D03*
Y351189D02*
D03*
Y353158D02*
D03*
Y355126D02*
D03*
Y357095D02*
D03*
Y359063D02*
D03*
Y361032D02*
D03*
Y363000D02*
D03*
Y364969D02*
D03*
Y366937D02*
D03*
Y368906D02*
D03*
Y370874D02*
D03*
Y372843D02*
D03*
D35*
X327902Y335441D02*
D03*
X325933D02*
D03*
X323965D02*
D03*
X321996D02*
D03*
X320028D02*
D03*
X318059D02*
D03*
X316091D02*
D03*
X314122D02*
D03*
X312154D02*
D03*
X310185D02*
D03*
X308217D02*
D03*
X306248D02*
D03*
X304280D02*
D03*
X302311D02*
D03*
X300343D02*
D03*
X298374D02*
D03*
Y380717D02*
D03*
X300343D02*
D03*
X302311D02*
D03*
X304280D02*
D03*
X306248D02*
D03*
X308217D02*
D03*
X310185D02*
D03*
X312154D02*
D03*
X314122D02*
D03*
X316091D02*
D03*
X318059D02*
D03*
X320028D02*
D03*
X321996D02*
D03*
X323965D02*
D03*
X325933D02*
D03*
X327902D02*
D03*
D36*
X372000Y376035D02*
D03*
Y392965D02*
D03*
M02*
