G04*
G04 #@! TF.GenerationSoftware,Altium Limited,Altium Designer,22.4.2 (48)*
G04*
G04 Layer_Physical_Order=2*
G04 Layer_Color=16711680*
%FSLAX25Y25*%
%MOIN*%
G70*
G04*
G04 #@! TF.SameCoordinates,35B363B0-4A87-487E-8715-F30847FC6155*
G04*
G04*
G04 #@! TF.FilePolarity,Positive*
G04*
G01*
G75*
%ADD16R,0.03765X0.04749*%
%ADD24R,0.03197X0.02593*%
%ADD28R,0.02593X0.03197*%
%ADD47C,0.01000*%
%ADD48R,0.05906X0.05906*%
%ADD49C,0.05906*%
%ADD50O,0.12205X0.06000*%
%ADD51R,0.05906X0.05906*%
%ADD52C,0.02756*%
G36*
X459607Y382849D02*
X459360Y382253D01*
Y303893D01*
X208893D01*
Y398606D01*
X296793D01*
X296893Y398107D01*
X296165Y397805D01*
X295618Y396485D01*
X300352D01*
X299805Y397805D01*
X299077Y398107D01*
X299177Y398606D01*
X459607D01*
Y382849D01*
D02*
G37*
%LPC*%
G36*
X300352Y395485D02*
X298485D01*
Y393618D01*
X299805Y394165D01*
X300352Y395485D01*
D02*
G37*
G36*
X297485D02*
X295618D01*
X296165Y394165D01*
X297485Y393618D01*
Y395485D01*
D02*
G37*
G36*
X226500Y395367D02*
Y393500D01*
X228367D01*
X227820Y394820D01*
X226500Y395367D01*
D02*
G37*
G36*
X225500D02*
X224180Y394820D01*
X223633Y393500D01*
X225500D01*
Y395367D01*
D02*
G37*
G36*
X237500Y394367D02*
Y392500D01*
X239367D01*
X238820Y393820D01*
X237500Y394367D01*
D02*
G37*
G36*
X236500D02*
X235180Y393820D01*
X234633Y392500D01*
X236500D01*
Y394367D01*
D02*
G37*
G36*
X228367Y392500D02*
X226500D01*
Y390633D01*
X227820Y391180D01*
X228367Y392500D01*
D02*
G37*
G36*
X225500D02*
X223633D01*
X224180Y391180D01*
X225500Y390633D01*
Y392500D01*
D02*
G37*
G36*
X239367Y391500D02*
X237500D01*
Y389633D01*
X238820Y390180D01*
X239367Y391500D01*
D02*
G37*
G36*
X236500D02*
X234633D01*
X235180Y390180D01*
X236500Y389633D01*
Y391500D01*
D02*
G37*
G36*
X443000Y387867D02*
Y386000D01*
X444867D01*
X444320Y387320D01*
X443000Y387867D01*
D02*
G37*
G36*
X442000D02*
X440680Y387320D01*
X440133Y386000D01*
X442000D01*
Y387867D01*
D02*
G37*
G36*
X332500D02*
Y386000D01*
X334367D01*
X333820Y387320D01*
X332500Y387867D01*
D02*
G37*
G36*
X331500D02*
X330180Y387320D01*
X329633Y386000D01*
X331500D01*
Y387867D01*
D02*
G37*
G36*
X272626Y390297D02*
X259831D01*
X259228Y390048D01*
X258978Y389445D01*
Y386492D01*
X259228Y385889D01*
X259831Y385640D01*
X260655D01*
X260933Y385224D01*
X260633Y384500D01*
X265367D01*
X265067Y385224D01*
X265345Y385640D01*
X272626D01*
X273229Y385889D01*
X273478Y386492D01*
Y389445D01*
X273229Y390048D01*
X272626Y390297D01*
D02*
G37*
G36*
X353000Y385867D02*
Y384000D01*
X354867D01*
X354320Y385320D01*
X353000Y385867D01*
D02*
G37*
G36*
X352000D02*
X350680Y385320D01*
X350133Y384000D01*
X352000D01*
Y385867D01*
D02*
G37*
G36*
X453000Y385367D02*
Y383500D01*
X454867D01*
X454320Y384820D01*
X453000Y385367D01*
D02*
G37*
G36*
X452000D02*
X450680Y384820D01*
X450133Y383500D01*
X452000D01*
Y385367D01*
D02*
G37*
G36*
X444867Y385000D02*
X443000D01*
Y383133D01*
X444320Y383680D01*
X444867Y385000D01*
D02*
G37*
G36*
X442000D02*
X440133D01*
X440680Y383680D01*
X442000Y383133D01*
Y385000D01*
D02*
G37*
G36*
X334367D02*
X332500D01*
Y383133D01*
X333820Y383680D01*
X334367Y385000D01*
D02*
G37*
G36*
X331500D02*
X329633D01*
X330180Y383680D01*
X331500Y383133D01*
Y385000D01*
D02*
G37*
G36*
X265367Y383500D02*
X263500D01*
Y381633D01*
X264820Y382180D01*
X265367Y383500D01*
D02*
G37*
G36*
X262500D02*
X260633D01*
X261180Y382180D01*
X262500Y381633D01*
Y383500D01*
D02*
G37*
G36*
X354867Y383000D02*
X353000D01*
Y381133D01*
X354320Y381680D01*
X354867Y383000D01*
D02*
G37*
G36*
X352000D02*
X350133D01*
X350680Y381680D01*
X352000Y381133D01*
Y383000D01*
D02*
G37*
G36*
X454867Y382500D02*
X453000D01*
Y380633D01*
X454320Y381180D01*
X454867Y382500D01*
D02*
G37*
G36*
X452000D02*
X450133D01*
X450680Y381180D01*
X452000Y380633D01*
Y382500D01*
D02*
G37*
G36*
X285847Y382874D02*
X283465D01*
Y380000D01*
X285847D01*
Y382874D01*
D02*
G37*
G36*
X282465D02*
X280082D01*
Y380000D01*
X282465D01*
Y382874D01*
D02*
G37*
G36*
X309000Y377367D02*
Y375500D01*
X310867D01*
X310320Y376820D01*
X309000Y377367D01*
D02*
G37*
G36*
X308000D02*
X306680Y376820D01*
X306133Y375500D01*
X308000D01*
Y377367D01*
D02*
G37*
G36*
X285847Y379000D02*
X282965D01*
X280082D01*
Y376126D01*
X282607D01*
Y374497D01*
X282180Y374320D01*
X281633Y373000D01*
X286367D01*
X285820Y374320D01*
X285394Y374497D01*
Y376126D01*
X285847D01*
Y379000D01*
D02*
G37*
G36*
X440056Y379893D02*
X327500D01*
X326515Y379485D01*
X322923Y375893D01*
X321500D01*
X320515Y375485D01*
X317716Y372686D01*
X317159Y372837D01*
X317157Y372843D01*
X317844Y374500D01*
X317157Y376157D01*
X315500Y376844D01*
X313843Y376157D01*
X313156Y374500D01*
X313843Y372843D01*
X314106Y372733D01*
Y371808D01*
X309067Y366768D01*
X308531Y366755D01*
X308157Y367657D01*
X306717Y368254D01*
X300235Y374736D01*
X300344Y375000D01*
X299657Y376657D01*
X298000Y377344D01*
X296343Y376657D01*
X295656Y375000D01*
X296343Y373343D01*
X298000Y372656D01*
X298264Y372765D01*
X304412Y366617D01*
X304156Y366000D01*
X304843Y364343D01*
X306500Y363656D01*
X308106Y364322D01*
X308607Y364139D01*
Y361500D01*
X309015Y360515D01*
X315606Y353923D01*
Y351077D01*
X314504Y349974D01*
X314013Y350072D01*
X313779Y350636D01*
X306430Y357985D01*
X305445Y358394D01*
X299767D01*
X299657Y358657D01*
X298000Y359344D01*
X296343Y358657D01*
X295656Y357000D01*
X296343Y355343D01*
X298000Y354656D01*
X299657Y355343D01*
X299767Y355607D01*
X304867D01*
X306869Y353605D01*
X306677Y353143D01*
X285302D01*
X284772Y353674D01*
X284157Y355157D01*
X282500Y355844D01*
X280843Y355157D01*
X280156Y353500D01*
X280843Y351843D01*
X282500Y351156D01*
X283100Y351405D01*
X283740Y350764D01*
X284725Y350356D01*
X293768D01*
X294046Y349941D01*
X293656Y349000D01*
X294343Y347343D01*
X296000Y346656D01*
X297657Y347343D01*
X297767Y347606D01*
X299853D01*
X300792Y346668D01*
X300791Y346665D01*
X301477Y345008D01*
X303135Y344322D01*
X303399Y343925D01*
X300515Y341041D01*
X300107Y340055D01*
Y328000D01*
X300515Y327015D01*
X306089Y321440D01*
X307075Y321032D01*
X319436D01*
X319770Y320532D01*
X318929Y318500D01*
X323000D01*
X327071D01*
X326230Y320532D01*
X326564Y321032D01*
X329666D01*
X330000Y320532D01*
X328952Y318000D01*
X330137Y315137D01*
X333000Y313952D01*
X335863Y315137D01*
X337048Y318000D01*
X336000Y320532D01*
X336334Y321032D01*
X339666D01*
X340000Y320532D01*
X338952Y318000D01*
X340137Y315137D01*
X343000Y313952D01*
X345863Y315137D01*
X347048Y318000D01*
X346000Y320532D01*
X346334Y321032D01*
X349260D01*
Y314260D01*
X356740D01*
Y321032D01*
X378265D01*
X378410Y320553D01*
X377533Y319967D01*
X376010Y317688D01*
X375639Y315822D01*
X375298Y315000D01*
X375639Y314178D01*
X376010Y312312D01*
X377533Y310033D01*
X379812Y308510D01*
X382500Y307975D01*
X385188Y308510D01*
X387467Y310033D01*
X388990Y312312D01*
X389361Y314178D01*
X389702Y315000D01*
X389361Y315822D01*
X388990Y317688D01*
X387467Y319967D01*
X387227Y320128D01*
X387372Y320606D01*
X404483D01*
X404759Y320107D01*
X404493Y319464D01*
X402778Y317748D01*
X400114D01*
Y313580D01*
X404886D01*
Y315915D01*
X406817Y317847D01*
X407171Y318700D01*
X408236Y319765D01*
X408500Y319656D01*
X410157Y320343D01*
X410844Y322000D01*
X410157Y323657D01*
X410354Y324114D01*
X410380Y324125D01*
X410740Y323764D01*
X411489Y323454D01*
X412107Y322837D01*
Y319741D01*
X410113Y317748D01*
X407614D01*
Y313580D01*
X412386D01*
Y316080D01*
X414485Y318179D01*
X414893Y319164D01*
Y323414D01*
X414485Y324399D01*
X413150Y325735D01*
X412400Y326046D01*
X411772Y326674D01*
X411157Y328157D01*
X409500Y328844D01*
X407900Y328181D01*
X360238D01*
X359253Y327773D01*
X357086Y325606D01*
X348611D01*
X348404Y326106D01*
X348468Y326170D01*
X348500Y326156D01*
X350157Y326843D01*
X350844Y328500D01*
X350157Y330157D01*
X348500Y330844D01*
X346843Y330157D01*
X346156Y328500D01*
X346245Y328286D01*
X345353Y327394D01*
X341767D01*
X341489Y327809D01*
X341844Y328665D01*
X341157Y330323D01*
X340894Y330432D01*
Y333300D01*
X341657Y333616D01*
X342344Y335274D01*
X341989Y336130D01*
X342267Y336546D01*
X349188D01*
X349466Y336130D01*
X349156Y335382D01*
X349843Y333725D01*
X351485Y333045D01*
X352515Y332015D01*
X353500Y331607D01*
X413813D01*
X414092Y331106D01*
X413633Y330000D01*
X418367D01*
X417908Y331106D01*
X418187Y331607D01*
X419423D01*
X420765Y330264D01*
X420656Y330000D01*
X420966Y329253D01*
X420705Y328624D01*
Y318748D01*
X418614D01*
Y314580D01*
X423386D01*
Y317205D01*
X423492Y317461D01*
Y323253D01*
X423512Y323745D01*
X423512D01*
Y323745D01*
X423992Y323841D01*
X424050Y323701D01*
X424680Y322180D01*
X426000Y321633D01*
Y324000D01*
X427000D01*
Y321368D01*
X427184Y321168D01*
X426569Y319682D01*
X427255Y318025D01*
X428912Y317338D01*
X429617Y317630D01*
X430106Y317291D01*
Y314274D01*
X429691Y313996D01*
X429335Y314143D01*
Y311777D01*
Y309048D01*
X429416Y308994D01*
Y306114D01*
X433584D01*
Y310886D01*
X432894D01*
Y317866D01*
X433384Y318204D01*
X433500Y318156D01*
X433764Y318266D01*
X439980Y312050D01*
X440965Y311642D01*
X441219D01*
X441343Y311343D01*
X443000Y310656D01*
X444657Y311343D01*
X445344Y313000D01*
X444657Y314657D01*
X443000Y315344D01*
X441343Y314657D01*
X441318Y314652D01*
X435735Y320236D01*
X435844Y320500D01*
X435157Y322157D01*
X433500Y322844D01*
X431893Y322178D01*
X431393Y322361D01*
Y324760D01*
X438740D01*
Y332240D01*
X431260D01*
Y329918D01*
X430760Y329711D01*
X424364Y336106D01*
X424443Y336396D01*
X424550Y336627D01*
X425485Y337015D01*
X433531Y345060D01*
X435000Y344452D01*
X437863Y345637D01*
X439048Y348500D01*
X437863Y351363D01*
X435000Y352548D01*
X434509Y352345D01*
X434231Y352761D01*
X434485Y353015D01*
X434894Y354000D01*
Y354380D01*
X435000Y354452D01*
X437863Y355637D01*
X439048Y358500D01*
X437863Y361363D01*
X435000Y362548D01*
X432137Y361363D01*
X430952Y358500D01*
X432115Y355692D01*
X432106Y355673D01*
Y354577D01*
X419430Y341901D01*
X414861D01*
X414584Y342316D01*
X414867Y343000D01*
X410133D01*
X410416Y342316D01*
X410139Y341901D01*
X371631D01*
X371354Y342316D01*
X371844Y343500D01*
X371157Y345157D01*
X369674Y345772D01*
X368770Y346675D01*
X368735Y346760D01*
X367510Y347985D01*
X366525Y348394D01*
X342767D01*
X342657Y348657D01*
X341000Y349344D01*
X339343Y348657D01*
X338656Y347000D01*
X339141Y345831D01*
X338807Y345331D01*
X314455D01*
X314263Y345793D01*
X317985Y349515D01*
X318393Y350500D01*
Y353929D01*
X318894Y354136D01*
X319015Y354015D01*
X320000Y353607D01*
X326000D01*
X326985Y354015D01*
X328347Y355376D01*
X328700Y356230D01*
X329236Y356766D01*
X329500Y356656D01*
X331157Y357343D01*
X331844Y359000D01*
X331157Y360657D01*
X330073Y361106D01*
X330172Y361607D01*
X350423D01*
X351058Y360971D01*
X350656Y360000D01*
X351343Y358343D01*
X353000Y357656D01*
X354657Y358343D01*
X355344Y360000D01*
X354657Y361657D01*
X353773Y362024D01*
X353649Y362321D01*
X351985Y363985D01*
X351000Y364393D01*
X330728D01*
X330628Y364894D01*
X331320Y365180D01*
X331867Y366500D01*
X329500D01*
Y367500D01*
X331867D01*
X331340Y368772D01*
X331521Y369272D01*
X349733D01*
X350011Y368856D01*
X349656Y368000D01*
X350343Y366343D01*
X352000Y365656D01*
X352264Y365766D01*
X369826Y348203D01*
X370811Y347795D01*
X417957D01*
X419500Y347156D01*
X421157Y347843D01*
X421844Y349500D01*
X421157Y351157D01*
X419500Y351844D01*
X417843Y351157D01*
X417605Y350582D01*
X390477D01*
X390377Y351082D01*
X391820Y351680D01*
X392367Y353000D01*
X387633D01*
X388180Y351680D01*
X389623Y351082D01*
X389523Y350582D01*
X371388D01*
X365826Y356145D01*
X366017Y356607D01*
X410423D01*
X412015Y355015D01*
X413000Y354607D01*
X421923D01*
X422765Y353764D01*
X422656Y353500D01*
X423343Y351843D01*
X425000Y351156D01*
X426657Y351843D01*
X427344Y353500D01*
X426657Y355157D01*
X425000Y355844D01*
X424736Y355734D01*
X423485Y356985D01*
X422500Y357394D01*
X413577D01*
X411985Y358985D01*
X411000Y359394D01*
X365577D01*
X359286Y365684D01*
Y365814D01*
X358878Y366799D01*
X358105Y367572D01*
X358233Y367880D01*
X357829Y368856D01*
X358106Y369272D01*
X364187D01*
X364522Y368772D01*
X364133Y367835D01*
X368867D01*
X368478Y368772D01*
X368813Y369272D01*
X394687D01*
X395022Y368772D01*
X394633Y367835D01*
X397000D01*
Y367335D01*
X397500D01*
Y364968D01*
X398820Y365515D01*
X399549Y367274D01*
X399849Y367429D01*
X400036Y367506D01*
X401000Y367107D01*
X418813D01*
X419092Y366606D01*
X418633Y365500D01*
X423367D01*
X422908Y366606D01*
X423187Y367107D01*
X431529D01*
X432137Y365637D01*
X435000Y364452D01*
X436469Y365060D01*
X448076Y353453D01*
X449061Y353045D01*
X449640D01*
X450637Y350637D01*
X453500Y349452D01*
X456363Y350637D01*
X457548Y353500D01*
X456363Y356363D01*
X453500Y357548D01*
X450637Y356363D01*
X450418Y355832D01*
X449639D01*
X438440Y367031D01*
X439048Y368500D01*
X437863Y371363D01*
X435000Y372548D01*
X432137Y371363D01*
X431529Y369894D01*
X401577D01*
X399820Y371651D01*
X398835Y372059D01*
X328165D01*
X327180Y371651D01*
X320851Y365321D01*
X320443Y364336D01*
Y363906D01*
X319843Y363657D01*
X319156Y362000D01*
X319637Y360840D01*
X319335Y360261D01*
X319232Y360238D01*
X317894Y361577D01*
Y363923D01*
X329077Y375107D01*
X436923D01*
X448866Y363163D01*
X449741Y362801D01*
X450637Y360637D01*
X453500Y359452D01*
X456363Y360637D01*
X457548Y363500D01*
X456363Y366363D01*
X453500Y367548D01*
X450637Y366363D01*
X450508Y366051D01*
X450018Y365953D01*
X443946Y372025D01*
X444229Y372449D01*
X445056Y372107D01*
X450029D01*
X450637Y370637D01*
X453500Y369452D01*
X456363Y370637D01*
X457548Y373500D01*
X456363Y376363D01*
X453500Y377548D01*
X450637Y376363D01*
X450029Y374893D01*
X445633D01*
X441041Y379485D01*
X440056Y379893D01*
D02*
G37*
G36*
X310867Y374500D02*
X309000D01*
Y372633D01*
X310320Y373180D01*
X310867Y374500D01*
D02*
G37*
G36*
X308000D02*
X306133D01*
X306680Y373180D01*
X308000Y372633D01*
Y374500D01*
D02*
G37*
G36*
X268500Y374367D02*
Y372500D01*
X270367D01*
X269820Y373820D01*
X268500Y374367D01*
D02*
G37*
G36*
X267500D02*
X266180Y373820D01*
X265633Y372500D01*
X267500D01*
Y374367D01*
D02*
G37*
G36*
X286367Y372000D02*
X284500D01*
Y370133D01*
X285820Y370680D01*
X286367Y372000D01*
D02*
G37*
G36*
X283500D02*
X281633D01*
X282180Y370680D01*
X283500Y370133D01*
Y372000D01*
D02*
G37*
G36*
X270367Y371500D02*
X268500D01*
Y369633D01*
X269820Y370180D01*
X270367Y371500D01*
D02*
G37*
G36*
X267500D02*
X265633D01*
X266180Y370180D01*
X267500Y369633D01*
Y371500D01*
D02*
G37*
G36*
X293705Y382662D02*
X288366D01*
Y376338D01*
X289642D01*
Y375465D01*
X290050Y374479D01*
X295266Y369264D01*
X295156Y369000D01*
X295820Y367396D01*
X295843Y367211D01*
Y366864D01*
X295343Y366657D01*
X295233Y366393D01*
X283767D01*
X283657Y366657D01*
X282000Y367344D01*
X280343Y366657D01*
X279656Y365000D01*
X280343Y363343D01*
X282000Y362656D01*
X283657Y363343D01*
X283767Y363607D01*
X295233D01*
X295343Y363343D01*
X297000Y362656D01*
X298657Y363343D01*
X299344Y365000D01*
X298679Y366604D01*
X298657Y366789D01*
Y367136D01*
X299157Y367343D01*
X299844Y369000D01*
X299157Y370657D01*
X297500Y371344D01*
X297236Y371234D01*
X292633Y375838D01*
X292840Y376338D01*
X293705D01*
Y382662D01*
D02*
G37*
G36*
X396500Y366835D02*
X394633D01*
X395180Y365515D01*
X396500Y364968D01*
Y366835D01*
D02*
G37*
G36*
X368867D02*
X367000D01*
Y364968D01*
X368320Y365515D01*
X368867Y366835D01*
D02*
G37*
G36*
X366000D02*
X364133D01*
X364680Y365515D01*
X366000Y364968D01*
Y366835D01*
D02*
G37*
G36*
X387500Y364867D02*
Y363000D01*
X389367D01*
X388820Y364320D01*
X387500Y364867D01*
D02*
G37*
G36*
X386500D02*
X385180Y364320D01*
X384633Y363000D01*
X386500D01*
Y364867D01*
D02*
G37*
G36*
X423367Y364500D02*
X421500D01*
Y362633D01*
X422820Y363180D01*
X423367Y364500D01*
D02*
G37*
G36*
X420500D02*
X418633D01*
X419180Y363180D01*
X420500Y362633D01*
Y364500D01*
D02*
G37*
G36*
X389367Y362000D02*
X387500D01*
Y360133D01*
X388820Y360680D01*
X389367Y362000D01*
D02*
G37*
G36*
X386500D02*
X384633D01*
X385180Y360680D01*
X386500Y360133D01*
Y362000D01*
D02*
G37*
G36*
X353000Y356867D02*
Y355000D01*
X354867D01*
X354320Y356320D01*
X353000Y356867D01*
D02*
G37*
G36*
X352000D02*
X350680Y356320D01*
X350133Y355000D01*
X352000D01*
Y356867D01*
D02*
G37*
G36*
X390500Y355867D02*
Y354000D01*
X392367D01*
X391820Y355320D01*
X390500Y355867D01*
D02*
G37*
G36*
X389500D02*
X388180Y355320D01*
X387633Y354000D01*
X389500D01*
Y355867D01*
D02*
G37*
G36*
X354867Y354000D02*
X353000D01*
Y352133D01*
X354320Y352680D01*
X354867Y354000D01*
D02*
G37*
G36*
X352000D02*
X350133D01*
X350680Y352680D01*
X352000Y352133D01*
Y354000D01*
D02*
G37*
G36*
X269500Y351367D02*
Y349500D01*
X271367D01*
X270820Y350820D01*
X269500Y351367D01*
D02*
G37*
G36*
X268500D02*
X267180Y350820D01*
X266633Y349500D01*
X268500D01*
Y351367D01*
D02*
G37*
G36*
X255106Y390297D02*
X240933D01*
X240331Y390048D01*
X240081Y389445D01*
Y386492D01*
X240126Y386382D01*
X239849Y385966D01*
X219673D01*
X219071Y385717D01*
X218821Y385114D01*
Y382358D01*
X219071Y381756D01*
X219673Y381506D01*
X247561D01*
Y348106D01*
X247811Y347504D01*
X248413Y347254D01*
X254713D01*
X255315Y347504D01*
X255565Y348106D01*
Y382358D01*
X255315Y382961D01*
X254713Y383211D01*
X250447D01*
Y385114D01*
X250401Y385224D01*
X250679Y385640D01*
X255106D01*
X255709Y385890D01*
X255959Y386492D01*
Y389445D01*
X255709Y390048D01*
X255106Y390297D01*
D02*
G37*
G36*
X271367Y348500D02*
X269500D01*
Y346633D01*
X270820Y347180D01*
X271367Y348500D01*
D02*
G37*
G36*
X268500D02*
X266633D01*
X267180Y347180D01*
X268500Y346633D01*
Y348500D01*
D02*
G37*
G36*
X413000Y345867D02*
Y344000D01*
X414867D01*
X414320Y345320D01*
X413000Y345867D01*
D02*
G37*
G36*
X412000D02*
X410680Y345320D01*
X410133Y344000D01*
X412000D01*
Y345867D01*
D02*
G37*
G36*
X275149Y341599D02*
Y339732D01*
X277016D01*
X276469Y341052D01*
X275149Y341599D01*
D02*
G37*
G36*
X274149D02*
X272830Y341052D01*
X272283Y339732D01*
X274149D01*
Y341599D01*
D02*
G37*
G36*
X453500Y347548D02*
X450637Y346363D01*
X449452Y343500D01*
X450637Y340637D01*
X453500Y339452D01*
X456363Y340637D01*
X457548Y343500D01*
X456363Y346363D01*
X453500Y347548D01*
D02*
G37*
G36*
X435500Y342571D02*
Y339000D01*
X439071D01*
X438025Y341525D01*
X435500Y342571D01*
D02*
G37*
G36*
X434500D02*
X431975Y341525D01*
X430929Y339000D01*
X434500D01*
Y342571D01*
D02*
G37*
G36*
X216524Y350337D02*
X211209D01*
X210606Y350087D01*
X210356Y349484D01*
Y339445D01*
X210606Y338842D01*
X211209Y338593D01*
X216524D01*
X217126Y338842D01*
X217376Y339445D01*
Y349484D01*
X217126Y350087D01*
X216524Y350337D01*
D02*
G37*
G36*
X277016Y338732D02*
X275149D01*
Y336866D01*
X276469Y337412D01*
X277016Y338732D01*
D02*
G37*
G36*
X274149D02*
X272283D01*
X272830Y337412D01*
X274149Y336866D01*
Y338732D01*
D02*
G37*
G36*
X439071Y338000D02*
X435500D01*
Y334429D01*
X438025Y335475D01*
X439071Y338000D01*
D02*
G37*
G36*
X434500D02*
X430929D01*
X431975Y335475D01*
X434500Y334429D01*
Y338000D01*
D02*
G37*
G36*
X453500Y337548D02*
X450637Y336363D01*
X449452Y333500D01*
X450637Y330637D01*
X453500Y329452D01*
X456363Y330637D01*
X457548Y333500D01*
X456363Y336363D01*
X453500Y337548D01*
D02*
G37*
G36*
X219500Y330367D02*
Y328500D01*
X221367D01*
X220820Y329820D01*
X219500Y330367D01*
D02*
G37*
G36*
X218500D02*
X217180Y329820D01*
X216633Y328500D01*
X218500D01*
Y330367D01*
D02*
G37*
G36*
X256500Y329367D02*
Y327500D01*
X258367D01*
X257820Y328820D01*
X256500Y329367D01*
D02*
G37*
G36*
X255500D02*
X254180Y328820D01*
X253633Y327500D01*
X255500D01*
Y329367D01*
D02*
G37*
G36*
X418367Y329000D02*
X416500D01*
Y327133D01*
X417820Y327680D01*
X418367Y329000D01*
D02*
G37*
G36*
X415500D02*
X413633D01*
X414180Y327680D01*
X415500Y327133D01*
Y329000D01*
D02*
G37*
G36*
X266500Y332844D02*
X264843Y332157D01*
X264156Y330500D01*
X264843Y328843D01*
X266500Y328156D01*
X266764Y328266D01*
X268015Y327015D01*
X269000Y326606D01*
X293233D01*
X293343Y326343D01*
X295000Y325656D01*
X296657Y326343D01*
X297344Y328000D01*
X296657Y329657D01*
X295000Y330344D01*
X293343Y329657D01*
X293233Y329394D01*
X269577D01*
X268735Y330236D01*
X268844Y330500D01*
X268157Y332157D01*
X266500Y332844D01*
D02*
G37*
G36*
X221367Y327500D02*
X219500D01*
Y325633D01*
X220820Y326180D01*
X221367Y327500D01*
D02*
G37*
G36*
X218500D02*
X216633D01*
X217180Y326180D01*
X218500Y325633D01*
Y327500D01*
D02*
G37*
G36*
X258367Y326500D02*
X256500D01*
Y324633D01*
X257820Y325180D01*
X258367Y326500D01*
D02*
G37*
G36*
X255500D02*
X253633D01*
X254180Y325180D01*
X255500Y324633D01*
Y326500D01*
D02*
G37*
G36*
X454000Y327571D02*
Y324000D01*
X457571D01*
X456525Y326525D01*
X454000Y327571D01*
D02*
G37*
G36*
X453000D02*
X450475Y326525D01*
X449429Y324000D01*
X453000D01*
Y327571D01*
D02*
G37*
G36*
X457571Y323000D02*
X454000D01*
Y319429D01*
X456525Y320475D01*
X457571Y323000D01*
D02*
G37*
G36*
X453000D02*
X449429D01*
X450475Y320475D01*
X453000Y319429D01*
Y323000D01*
D02*
G37*
G36*
X300000Y322071D02*
Y318500D01*
X303571D01*
X302525Y321025D01*
X300000Y322071D01*
D02*
G37*
G36*
X299000D02*
X296475Y321025D01*
X295429Y318500D01*
X299000D01*
Y322071D01*
D02*
G37*
G36*
X395000Y319867D02*
Y318000D01*
X396867D01*
X396320Y319320D01*
X395000Y319867D01*
D02*
G37*
G36*
X394000D02*
X392680Y319320D01*
X392133Y318000D01*
X394000D01*
Y319867D01*
D02*
G37*
G36*
X396867Y317000D02*
X395000D01*
Y315133D01*
X396320Y315680D01*
X396867Y317000D01*
D02*
G37*
G36*
X394000D02*
X392133D01*
X392680Y315680D01*
X394000Y315133D01*
Y317000D01*
D02*
G37*
G36*
X273240Y321740D02*
X265760D01*
Y314260D01*
X273240D01*
Y321740D01*
D02*
G37*
G36*
X289500Y322048D02*
X286637Y320863D01*
X285452Y318000D01*
X286637Y315137D01*
X289500Y313952D01*
X292363Y315137D01*
X293548Y318000D01*
X292363Y320863D01*
X289500Y322048D01*
D02*
G37*
G36*
X279500D02*
X276637Y320863D01*
X275452Y318000D01*
X276637Y315137D01*
X279500Y313952D01*
X282363Y315137D01*
X283548Y318000D01*
X282363Y320863D01*
X279500Y322048D01*
D02*
G37*
G36*
X327071Y317500D02*
X323500D01*
Y313929D01*
X326025Y314975D01*
X327071Y317500D01*
D02*
G37*
G36*
X303571D02*
X300000D01*
Y313929D01*
X302525Y314975D01*
X303571Y317500D01*
D02*
G37*
G36*
X299000D02*
X295429D01*
X296475Y314975D01*
X299000Y313929D01*
Y317500D01*
D02*
G37*
G36*
X322500D02*
X318929D01*
X319975Y314975D01*
X322500Y313929D01*
Y317500D01*
D02*
G37*
G36*
X428335Y314143D02*
X427015Y313597D01*
X426468Y312277D01*
X428335D01*
Y314143D01*
D02*
G37*
G36*
X457240Y317240D02*
X449760D01*
Y309760D01*
X457240D01*
Y317240D01*
D02*
G37*
G36*
X428335Y311277D02*
X426468D01*
X427015Y309957D01*
X428335Y309410D01*
Y311277D01*
D02*
G37*
G36*
X402500Y312680D02*
X401873Y312420D01*
X400114D01*
Y308252D01*
X401873D01*
X402500Y307992D01*
X403127Y308252D01*
X404886D01*
Y308942D01*
X407614D01*
Y308252D01*
X412386D01*
Y312420D01*
X407614D01*
Y311729D01*
X404886D01*
Y312420D01*
X403127D01*
X402500Y312680D01*
D02*
G37*
G36*
X423386Y313420D02*
X418614D01*
Y309252D01*
X419173D01*
X419343Y308843D01*
X421000Y308156D01*
X422657Y308843D01*
X422827Y309252D01*
X423386D01*
Y313420D01*
D02*
G37*
G36*
X228500Y322025D02*
X225812Y321490D01*
X223533Y319967D01*
X222010Y317688D01*
X221639Y315822D01*
X221298Y315000D01*
X221639Y314178D01*
X222010Y312312D01*
X223533Y310033D01*
X225812Y308510D01*
X228500Y307975D01*
X231188Y308510D01*
X233467Y310033D01*
X234990Y312312D01*
X235361Y314178D01*
X235702Y315000D01*
X235361Y315822D01*
X234990Y317688D01*
X233467Y319967D01*
X231188Y321490D01*
X228500Y322025D01*
D02*
G37*
G36*
X438912Y310886D02*
X434744D01*
Y309127D01*
X434485Y308500D01*
X434744Y307873D01*
Y306114D01*
X438912D01*
Y307873D01*
X439172Y308500D01*
X438912Y309127D01*
Y310886D01*
D02*
G37*
%LPD*%
G36*
X338011Y336130D02*
X337656Y335274D01*
X338106Y334187D01*
Y330432D01*
X337843Y330323D01*
X337156Y328665D01*
X337511Y327809D01*
X337233Y327394D01*
X331596D01*
X331262Y327893D01*
X331617Y328750D01*
X326883D01*
X327238Y327893D01*
X326904Y327394D01*
X322861D01*
X322678Y327893D01*
X323344Y329500D01*
X323235Y329764D01*
X329502Y336032D01*
X335882D01*
X336867Y336440D01*
X336973Y336546D01*
X337733D01*
X338011Y336130D01*
D02*
G37*
%LPC*%
G36*
X329750Y331617D02*
Y329750D01*
X331617D01*
X331070Y331070D01*
X329750Y331617D01*
D02*
G37*
G36*
X328750D02*
X327430Y331070D01*
X326883Y329750D01*
X328750D01*
Y331617D01*
D02*
G37*
%LPD*%
D16*
X282965Y379500D02*
D03*
X291035D02*
D03*
D24*
X421000Y311336D02*
D03*
Y316664D02*
D03*
X410000Y310336D02*
D03*
Y315664D02*
D03*
X402500Y310336D02*
D03*
Y315664D02*
D03*
D28*
X436828Y308500D02*
D03*
X431500D02*
D03*
D47*
X430000Y319682D02*
Y328500D01*
X428912Y319682D02*
X430000D01*
X431500Y318182D01*
Y308500D02*
Y318182D01*
X423000Y329525D02*
Y330000D01*
X422099Y328624D02*
X423000Y329525D01*
X422099Y317461D02*
Y328624D01*
X420000Y333000D02*
X423000Y330000D01*
X353500Y333000D02*
X420000D01*
X421000Y316664D02*
X421302D01*
X422099Y317461D01*
X423000Y335500D02*
X430000Y328500D01*
X405832Y318832D02*
Y319332D01*
X408500Y322000D01*
X403500Y316500D02*
X405832Y318832D01*
X402703Y315664D02*
X403500Y316461D01*
X402500Y315664D02*
X402703D01*
X403500Y316461D02*
Y316500D01*
X409500Y326500D02*
X409975D01*
X411725Y324750D01*
X413500Y319164D02*
Y323414D01*
X411725Y324750D02*
X412164D01*
X413500Y323414D01*
X411099Y316461D02*
Y316763D01*
X410000Y315664D02*
X410302D01*
X411099Y316461D01*
Y316763D02*
X413500Y319164D01*
X402500Y310336D02*
X410000D01*
X282965Y379500D02*
X284000Y378465D01*
Y372500D02*
Y378465D01*
X291035Y375465D02*
Y379500D01*
Y375465D02*
X297500Y369000D01*
X349260Y339439D02*
X350155Y340335D01*
X339751Y339726D02*
X340038Y339439D01*
X339500Y328665D02*
Y334298D01*
X350288Y337939D02*
X350896Y338547D01*
X340000Y334799D02*
Y335274D01*
X339500Y334298D02*
X340000Y334799D01*
X335656Y339726D02*
X339751D01*
X336396Y337939D02*
X350288D01*
X340038Y339439D02*
X349260D01*
X391838Y338720D02*
X392558Y338000D01*
X350896Y338547D02*
X359723D01*
X359896Y338720D01*
X334915Y341514D02*
X340085D01*
X348000Y341000D02*
X350000Y343000D01*
X392558Y338000D02*
X424500D01*
X435000Y348500D01*
X359896Y338720D02*
X391838D01*
X340599Y341000D02*
X348000D01*
X340085Y341514D02*
X340599Y341000D01*
X335882Y337425D02*
X336396Y337939D01*
X328925Y337425D02*
X335882D01*
X266500Y330500D02*
X269000Y328000D01*
X295000D01*
X433500Y354000D02*
Y355673D01*
X359156Y340507D02*
X420007D01*
X433500Y354000D01*
X321500Y362000D02*
X321836Y362336D01*
Y364336D01*
X328165Y370665D01*
X316500Y364500D02*
X328500Y376500D01*
X437500D01*
X449851Y364149D01*
X440056Y378500D02*
X445056Y373500D01*
X323500Y374500D02*
X327500Y378500D01*
X440056D01*
X433500Y355673D02*
X435000Y357173D01*
Y358500D01*
X314000Y361000D02*
X320000Y355000D01*
X314000Y367000D02*
X321500Y374500D01*
X314000Y361000D02*
Y367000D01*
X308000Y341500D02*
X317000Y350500D01*
Y354500D01*
X310000Y361500D02*
X317000Y354500D01*
X310000Y361500D02*
Y365731D01*
X320000Y355000D02*
X326000D01*
X310000Y365731D02*
X315500Y371231D01*
X327464Y363000D02*
X351000D01*
X352664Y361336D01*
X326000Y364000D02*
X326464D01*
X327464Y363000D01*
X422500Y356000D02*
X425000Y353500D01*
X411000Y358000D02*
X413000Y356000D01*
X422500D01*
X369500Y343500D02*
Y343975D01*
X367750Y345725D02*
X369500Y343975D01*
X367750Y345725D02*
Y345775D01*
X366525Y347000D02*
X367750Y345775D01*
X341000Y347000D02*
X366525D01*
X355889Y367818D02*
X357893Y365814D01*
X355889Y367818D02*
Y367880D01*
X365000Y358000D02*
X411000D01*
X398835Y370665D02*
X401000Y368500D01*
X328165Y370665D02*
X398835D01*
X352000Y368000D02*
X370811Y349189D01*
X419189D01*
X357893Y365107D02*
X365000Y358000D01*
X357893Y365107D02*
Y365814D01*
X419189Y349189D02*
X419500Y349500D01*
X351500Y335000D02*
Y335382D01*
X350155Y340335D02*
X358983D01*
X326000Y355000D02*
X327361Y356361D01*
Y356861D02*
X329500Y359000D01*
X327361Y356361D02*
Y356861D01*
X302765Y346665D02*
X303135D01*
X300430Y349000D02*
X302765Y346665D01*
X296000Y349000D02*
X300430D01*
X298000Y357000D02*
X305445D01*
X306213Y342240D02*
X312794Y348822D01*
X315500Y371231D02*
Y374500D01*
X312794Y348822D02*
Y349650D01*
X305445Y357000D02*
X312794Y349650D01*
X305000Y330000D02*
X310787Y324213D01*
X301500Y328000D02*
X307075Y322425D01*
X357663Y324213D02*
X360238Y326787D01*
X385525Y322425D02*
X385951Y322000D01*
X307075Y322425D02*
X385525D01*
X313000Y326000D02*
X345930D01*
X310787Y324213D02*
X357663D01*
X345930Y326000D02*
X348430Y328500D01*
X308000Y331000D02*
X313000Y326000D01*
X385951Y322000D02*
X408500D01*
X409213Y326787D02*
X409500Y326500D01*
X360238Y326787D02*
X409213D01*
X305000Y341000D02*
X306213Y342213D01*
Y342240D01*
X301500Y328000D02*
Y340055D01*
X305000Y330000D02*
Y341000D01*
X301500Y340055D02*
X309000Y347555D01*
Y350914D01*
X311135Y340865D02*
Y341340D01*
X312730Y342936D01*
Y343230D01*
X313437Y343937D01*
X347168D01*
X361336Y335718D02*
X362245D01*
X358983Y340335D02*
X359156Y340507D01*
X362464Y335500D02*
X423000D01*
X321000Y329500D02*
X328925Y337425D01*
X315500Y341000D02*
X334401D01*
X325213Y339213D02*
X335142D01*
X350000Y343000D02*
X357335D01*
X334401Y341000D02*
X334915Y341514D01*
X362245Y335718D02*
X362464Y335500D01*
X361000Y336054D02*
X361336Y335718D01*
X315500Y329500D02*
X325213Y339213D01*
X335142D02*
X335656Y339726D01*
X401000Y368500D02*
X435000D01*
X449851Y364149D02*
X452851D01*
X453500Y363500D01*
X445056Y373500D02*
X453500D01*
X352664Y360336D02*
Y361336D01*
Y360336D02*
X353000Y360000D01*
X348430Y328500D02*
X348500D01*
X321500Y374500D02*
X323500D01*
X308000Y331000D02*
Y341500D01*
X316500Y361000D02*
Y364500D01*
Y361000D02*
X319000Y358500D01*
X325000D01*
X351500Y335000D02*
X353500Y333000D01*
X298000Y375000D02*
X306750Y366250D01*
X284725Y351750D02*
X308164D01*
X309000Y350914D01*
X282500Y353500D02*
X282975D01*
X284725Y351750D01*
X435000Y368500D02*
X449061Y354439D01*
X435000Y368500D02*
X435000Y368500D01*
X282000Y365000D02*
X297000D01*
X433500Y320500D02*
X440965Y313035D01*
X442965D01*
X443000Y313000D01*
X452561Y354439D02*
X453500Y353500D01*
X449061Y354439D02*
X452561D01*
D48*
X353000Y318000D02*
D03*
X269500D02*
D03*
D49*
X343000D02*
D03*
X333000D02*
D03*
X323000D02*
D03*
X279500D02*
D03*
X289500D02*
D03*
X299500D02*
D03*
X453500Y373500D02*
D03*
Y363500D02*
D03*
Y353500D02*
D03*
Y343500D02*
D03*
Y323500D02*
D03*
Y333500D02*
D03*
X435000Y368500D02*
D03*
Y358500D02*
D03*
Y348500D02*
D03*
Y338500D02*
D03*
D50*
X382500Y315000D02*
D03*
X228500D02*
D03*
D51*
X453500Y313500D02*
D03*
X435000Y328500D02*
D03*
D52*
X428912Y319682D02*
D03*
X423000Y330000D02*
D03*
X416000Y329500D02*
D03*
X426500Y324000D02*
D03*
X402500Y310336D02*
D03*
X421000Y310500D02*
D03*
X436828Y308500D02*
D03*
X428835Y311777D02*
D03*
X297500Y369000D02*
D03*
X256000Y327000D02*
D03*
X421000Y365000D02*
D03*
X394500Y317500D02*
D03*
X340000Y335274D02*
D03*
X274650Y339232D02*
D03*
X266500Y330500D02*
D03*
X321500Y362000D02*
D03*
X369500Y343500D02*
D03*
X355889Y367880D02*
D03*
X390000Y353500D02*
D03*
X352000Y368000D02*
D03*
X351500Y335382D02*
D03*
X329500Y359000D02*
D03*
X303135Y346665D02*
D03*
X339500Y328665D02*
D03*
X311135Y340865D02*
D03*
X347168Y343937D02*
D03*
X361000Y336054D02*
D03*
X357335Y343000D02*
D03*
X341000Y347000D02*
D03*
X366500Y367335D02*
D03*
X397000D02*
D03*
X329500Y367000D02*
D03*
X326000Y364000D02*
D03*
X329250Y329250D02*
D03*
X348500Y328500D02*
D03*
X315500Y329500D02*
D03*
X321000D02*
D03*
X308500Y375000D02*
D03*
X315500Y374500D02*
D03*
X387000Y362500D02*
D03*
X315500Y341000D02*
D03*
X412500Y343500D02*
D03*
X298000Y375000D02*
D03*
Y357000D02*
D03*
X282500Y353500D02*
D03*
X325000Y358500D02*
D03*
X306500Y366000D02*
D03*
X352500Y383500D02*
D03*
X332000Y385500D02*
D03*
X297985Y395985D02*
D03*
X409500Y326500D02*
D03*
X408500Y322000D02*
D03*
X352500Y354500D02*
D03*
X442500Y385500D02*
D03*
X452500Y383000D02*
D03*
X284000Y372500D02*
D03*
X268000Y372000D02*
D03*
X353000Y360000D02*
D03*
X263000Y384000D02*
D03*
X237000Y392000D02*
D03*
X226000Y393000D02*
D03*
X219000Y328000D02*
D03*
X297000Y365000D02*
D03*
X419500Y349500D02*
D03*
X425000Y353500D02*
D03*
X269000Y349000D02*
D03*
X295000Y328000D02*
D03*
X443000Y313000D02*
D03*
X433500Y320500D02*
D03*
X296000Y349000D02*
D03*
X282000Y365000D02*
D03*
M02*
